<?xml version="1.0" encoding="UTF-8"?>
<svg xmlns="http://www.w3.org/2000/svg" xmlns:xlink="http://www.w3.org/1999/xlink" width="150px" height="150px" viewBox="0 0 150 150" version="1.1">
<g id="surface1">
<path style=" stroke:none;fill-rule:nonzero;fill:rgb(100%,100%,100%);fill-opacity:1;" d="M 22.5 0 L 127.5 0 C 139.925781 0 150 10.074219 150 22.5 L 150 127.5 C 150 139.925781 139.925781 150 127.5 150 L 22.5 150 C 10.074219 150 0 139.925781 0 127.5 L 0 22.5 C 0 10.074219 10.074219 0 22.5 0 Z M 22.5 0 "/>
<path style=" stroke:none;fill-rule:nonzero;fill:rgb(61.176473%,80.392158%,16.470589%);fill-opacity:1;" d="M 34.570312 34.570312 L 70.898438 34.570312 L 70.898438 70.898438 L 34.570312 70.898438 Z M 34.570312 34.570312 "/>
<path style=" stroke:none;fill-rule:nonzero;fill:rgb(57.647061%,13.333334%,47.450981%);fill-opacity:1;" d="M 79.101562 34.570312 L 115.429688 34.570312 L 115.429688 70.898438 L 79.101562 70.898438 Z M 79.101562 34.570312 "/>
<path style=" stroke:none;fill-rule:nonzero;fill:rgb(93.725491%,65.490198%,14.117648%);fill-opacity:1;" d="M 79.101562 79.101562 L 115.429688 79.101562 L 115.429688 115.429688 L 79.101562 115.429688 Z M 79.101562 79.101562 "/>
<path style=" stroke:none;fill-rule:nonzero;fill:rgb(14.901961%,14.509805%,46.666667%);fill-opacity:1;" d="M 34.570312 79.101562 L 70.898438 79.101562 L 70.898438 115.429688 L 34.570312 115.429688 Z M 34.570312 79.101562 "/>
<path style=" stroke:none;fill-rule:nonzero;fill:rgb(61.176473%,80.392158%,16.470589%);fill-opacity:1;" d="M 75 132.175781 L 49.3125 106.488281 L 75 80.800781 L 100.6875 106.488281 Z M 75 132.175781 "/>
<path style=" stroke:none;fill-rule:nonzero;fill:rgb(57.647061%,13.333334%,47.450981%);fill-opacity:1;" d="M 43.511719 100.6875 L 17.824219 75 L 43.511719 49.3125 L 69.199219 75 Z M 43.511719 100.6875 "/>
<path style=" stroke:none;fill-rule:nonzero;fill:rgb(93.725491%,65.490198%,14.117648%);fill-opacity:1;" d="M 75 69.199219 L 49.3125 43.511719 L 75 17.824219 L 100.6875 43.511719 Z M 75 69.199219 "/>
<path style=" stroke:none;fill-rule:nonzero;fill:rgb(14.901961%,14.509805%,46.666667%);fill-opacity:1;" d="M 106.488281 100.6875 L 80.800781 75 L 106.488281 49.3125 L 132.175781 75 Z M 106.488281 100.6875 "/>
<path style="fill:none;stroke-width:9;stroke-linecap:butt;stroke-linejoin:miter;stroke:rgb(100%,100%,100%);stroke-opacity:1;stroke-miterlimit:4;" d="M 236 256 L 149 344 L 61 256 L 149 168 Z M 242 242 L 118 242 L 118 118 L 242 118 Z M 242 270 L 242 394 L 118 394 L 118 270 Z M 256 236 L 168 149 L 256 61 L 344 149 Z M 256 276 L 168 363 L 256 451 L 344 363 Z M 270 242 L 270 118 L 394 118 L 394 242 Z M 270 270 L 394 270 L 394 394 L 270 394 Z M 276 256 L 363 344 L 451 256 L 363 168 Z M 276 256 " transform="matrix(0.292969,0,0,0.292969,0,0)"/>
</g>
</svg>
