<?xml version="1.0" encoding="UTF-8"?>
<svg xmlns="http://www.w3.org/2000/svg" xmlns:xlink="http://www.w3.org/1999/xlink" width="197px" height="150px" viewBox="0 0 197 150" version="1.1">
<g id="surface1">
<path style=" stroke:none;fill-rule:nonzero;fill:rgb(91.37255%,33.333334%,12.941177%);fill-opacity:1;" d="M 54.707031 41.953125 L 58.28125 41.644531 C 58.28125 41.644531 55.492188 38.792969 52.78125 40.269531 C 52.78125 40.269531 54.1875 41.320312 54.707031 41.953125 Z M 54.707031 41.953125 "/>
<path style=" stroke:none;fill-rule:nonzero;fill:rgb(91.37255%,33.333334%,12.941177%);fill-opacity:1;" d="M 68.765625 36.796875 C 68.9375 36.910156 69.171875 36.859375 69.28125 36.6875 C 70.550781 34.734375 73.171875 34.175781 75.125 35.445312 C 77.078125 36.714844 77.636719 39.339844 76.367188 41.292969 C 75.75 42.242188 74.804688 42.894531 73.703125 43.128906 C 73.257812 43.222656 72.804688 43.242188 72.367188 43.191406 L 71.722656 43.839844 C 71.847656 43.867188 71.976562 43.898438 72.105469 43.917969 C 72.679688 44 73.273438 43.980469 73.855469 43.855469 C 75.15625 43.582031 76.269531 42.816406 76.992188 41.703125 C 78.484375 39.402344 77.828125 36.316406 75.53125 34.820312 C 73.234375 33.324219 70.148438 33.980469 68.65625 36.28125 C 68.546875 36.453125 68.59375 36.683594 68.765625 36.796875 Z M 68.765625 36.796875 "/>
<path style=" stroke:none;fill-rule:nonzero;fill:rgb(91.37255%,33.333334%,12.941177%);fill-opacity:1;" d="M 123.078125 43.855469 C 123.664062 43.980469 124.253906 44 124.832031 43.917969 C 124.960938 43.898438 125.085938 43.867188 125.214844 43.839844 L 124.570312 43.191406 C 124.128906 43.242188 123.679688 43.222656 123.234375 43.128906 C 122.132812 42.894531 121.183594 42.242188 120.570312 41.292969 C 119.300781 39.339844 119.859375 36.714844 121.808594 35.445312 C 123.761719 34.175781 126.382812 34.734375 127.652344 36.6875 C 127.765625 36.859375 127.996094 36.910156 128.167969 36.796875 C 128.339844 36.683594 128.390625 36.453125 128.277344 36.28125 C 126.785156 33.980469 123.703125 33.324219 121.402344 34.820312 C 119.105469 36.316406 118.453125 39.402344 119.945312 41.703125 C 120.667969 42.816406 121.78125 43.582031 123.078125 43.855469 Z M 123.078125 43.855469 "/>
<path style=" stroke:none;fill-rule:nonzero;fill:rgb(91.37255%,33.333334%,12.941177%);fill-opacity:1;" d="M 173.0625 98.085938 C 174.71875 96.664062 176.132812 94.914062 177.046875 92.769531 C 177.246094 92.019531 177.398438 91.292969 177.519531 90.578125 L 170.605469 92.644531 C 170.582031 92.652344 170.558594 92.652344 170.535156 92.65625 C 170.269531 93.292969 169.941406 93.910156 169.542969 94.484375 C 169.433594 94.660156 166.820312 98.753906 160.539062 101.609375 C 158.523438 102.523438 156.441406 103.160156 154.332031 103.578125 C 162.9375 103.296875 174.175781 101.664062 181.761719 95.808594 C 186.550781 92.109375 189.371094 87.121094 190.140625 80.980469 C 191.84375 67.441406 183.15625 60.3125 181.007812 58.773438 L 179.976562 63.953125 C 183.238281 67.8125 185.214844 72.800781 185.214844 78.242188 C 185.214844 86.699219 181.050781 93.417969 173.0625 98.085938 Z M 173.0625 98.085938 "/>
<path style=" stroke:none;fill-rule:nonzero;fill:rgb(91.37255%,33.333334%,12.941177%);fill-opacity:1;" d="M 59.847656 50.804688 C 59.992188 51.109375 60.222656 51.621094 60.5 52.308594 C 61.671875 51.054688 62.816406 49.988281 63.847656 49.117188 C 62.621094 49.726562 61.269531 50.316406 59.847656 50.804688 Z M 59.847656 50.804688 "/>
<path style=" stroke:none;fill-rule:nonzero;fill:rgb(91.37255%,33.333334%,12.941177%);fill-opacity:1;" d="M 49.542969 50.640625 C 51.402344 49.253906 53.632812 48.066406 55.96875 47.0625 C 55.847656 46.304688 56.230469 45.53125 56.957031 45.195312 C 57.753906 44.828125 58.675781 45.113281 59.144531 45.820312 C 65.960938 43.394531 72.628906 42.394531 72.730469 42.378906 L 72.996094 42.339844 C 72.996094 42.28125 72.996094 42.222656 72.984375 42.15625 C 72.832031 41.316406 72.300781 41.296875 71.621094 41.363281 C 68.390625 41.683594 65.15625 41.992188 61.925781 42.304688 C 59.726562 42.519531 56.675781 42.5625 54.292969 43.082031 C 54.046875 42.742188 53.773438 42.410156 53.472656 42.082031 C 51.191406 39.597656 46.179688 38.199219 47.027344 39.714844 C 47.402344 40.378906 49.363281 45.289062 49.542969 50.640625 Z M 53.082031 43.375 C 52.660156 43.414062 50.953125 43.742188 49.898438 45.613281 C 49.488281 43.726562 48.738281 41.445312 48.371094 40.464844 C 49.652344 40.734375 52.140625 41.816406 53.082031 43.375 Z M 53.082031 43.375 "/>
<path style=" stroke:none;fill-rule:nonzero;fill:rgb(91.37255%,33.333334%,12.941177%);fill-opacity:1;" d="M 53.199219 87.082031 C 56.515625 83.6875 59.359375 79.519531 60.953125 74.480469 C 63.199219 66.757812 61.617188 59.507812 60.75 55.273438 C 60.578125 54.707031 60.402344 54.183594 60.234375 53.714844 C 55.734375 58.855469 51.121094 66.902344 51.332031 78.199219 C 51.328125 78.28125 51.234375 82.226562 53.199219 87.082031 Z M 53.199219 87.082031 "/>
<path style=" stroke:none;fill-rule:nonzero;fill:rgb(91.37255%,33.333334%,12.941177%);fill-opacity:1;" d="M 41.246094 96.269531 C 41.363281 96.183594 41.476562 96.09375 41.585938 96.003906 C 43.75 94.226562 44.992188 91.601562 44.992188 88.800781 C 44.992188 83.664062 40.816406 79.484375 35.6875 79.484375 C 30.554688 79.484375 26.378906 83.664062 26.378906 88.800781 C 26.378906 90.695312 26.945312 92.519531 28.015625 94.074219 C 28.050781 94.128906 30.65625 98.195312 36.753906 100.949219 C 42.476562 103.535156 48.765625 103.871094 54.640625 103.148438 C 52.175781 100.941406 49.570312 97.289062 43.296875 100.09375 L 40.902344 96.507812 C 40.902344 96.507812 41.015625 96.4375 41.210938 96.3125 C 41.222656 96.296875 41.230469 96.28125 41.246094 96.269531 Z M 41.246094 96.269531 "/>
<path style=" stroke:none;fill-rule:nonzero;fill:rgb(91.37255%,33.333334%,12.941177%);fill-opacity:1;" d="M 144.15625 40.269531 C 141.445312 38.792969 138.65625 41.644531 138.65625 41.644531 L 142.226562 41.953125 C 142.75 41.320312 144.15625 40.269531 144.15625 40.269531 Z M 144.15625 40.269531 "/>
<path style=" stroke:none;fill-rule:nonzero;fill:rgb(91.37255%,33.333334%,12.941177%);fill-opacity:1;" d="M 169.300781 82.800781 L 176.621094 80.609375 C 176.152344 79.390625 175.566406 78.246094 174.886719 77.179688 L 165.875 79.875 C 167.226562 80.582031 168.394531 81.585938 169.300781 82.800781 Z M 169.300781 82.800781 "/>
<path style=" stroke:none;fill-rule:nonzero;fill:rgb(91.37255%,33.333334%,12.941177%);fill-opacity:1;" d="M 125.472656 43.347656 C 128.65625 45.863281 138.335938 52.761719 146.734375 51.074219 C 144.972656 49.796875 142.886719 48.695312 140.699219 47.753906 C 140.230469 48.464844 139.304688 48.75 138.507812 48.382812 C 137.78125 48.046875 137.398438 47.269531 137.519531 46.511719 C 132.609375 44.765625 127.765625 43.765625 125.472656 43.347656 Z M 125.472656 43.347656 "/>
<path style=" stroke:none;fill-rule:nonzero;fill:rgb(91.37255%,33.333334%,12.941177%);fill-opacity:1;" d="M 171.128906 86.980469 L 177.699219 85.015625 C 177.550781 83.710938 177.269531 82.476562 176.875 81.3125 L 169.746094 83.445312 C 170.414062 84.507812 170.894531 85.699219 171.128906 86.980469 Z M 171.128906 86.980469 "/>
<path style=" stroke:none;fill-rule:nonzero;fill:rgb(91.37255%,33.333334%,12.941177%);fill-opacity:1;" d="M 144.019531 52.082031 C 141.90625 52.082031 139.792969 51.664062 137.804688 51.039062 C 137.652344 51.347656 137.355469 51.996094 136.996094 52.917969 C 139.4375 55.648438 141.933594 59.214844 143.734375 63.664062 C 147.679688 63.171875 151.207031 63.257812 154.351562 63.730469 C 149.019531 61.238281 147.4375 56.390625 147.378906 51.691406 C 146.273438 51.957031 145.148438 52.082031 144.019531 52.082031 Z M 144.019531 52.082031 "/>
<path style=" stroke:none;fill-rule:nonzero;fill:rgb(91.37255%,33.333334%,12.941177%);fill-opacity:1;" d="M 144.011719 64.386719 C 145.503906 68.316406 146.449219 72.902344 146.347656 78.195312 C 146.351562 78.265625 146.460938 82.503906 144.308594 87.65625 C 146.976562 90.277344 149.914062 92.417969 152.726562 94.136719 C 151.738281 92.558594 151.199219 90.71875 151.199219 88.800781 C 151.199219 83.25 155.707031 78.738281 161.25 78.738281 C 162.511719 78.738281 163.714844 78.980469 164.828125 79.410156 L 174.296875 76.578125 C 173.902344 75.976562 173.027344 74.757812 171.632812 73.308594 L 166.589844 74.644531 C 166.558594 74.652344 166.527344 74.65625 166.496094 74.65625 C 166.328125 74.65625 166.179688 74.546875 166.132812 74.378906 C 166.082031 74.179688 166.199219 73.976562 166.398438 73.921875 L 171.023438 72.695312 C 170.511719 72.195312 169.941406 71.671875 169.308594 71.148438 C 166.894531 69.230469 164.351562 67.785156 162.21875 66.757812 C 157.601562 64.726562 151.59375 63.46875 144.011719 64.386719 Z M 144.011719 64.386719 "/>
<path style=" stroke:none;fill-rule:nonzero;fill:rgb(91.37255%,33.333334%,12.941177%);fill-opacity:1;" d="M 143.738281 87.082031 C 145.703125 82.226562 145.605469 78.28125 145.605469 78.199219 C 145.816406 66.902344 141.203125 58.855469 136.703125 53.714844 C 136.535156 54.183594 136.359375 54.707031 136.1875 55.273438 C 135.320312 59.507812 133.734375 66.757812 135.984375 74.480469 C 137.578125 79.519531 140.417969 83.6875 143.738281 87.082031 Z M 143.738281 87.082031 "/>
<path style=" stroke:none;fill-rule:nonzero;fill:rgb(91.37255%,33.333334%,12.941177%);fill-opacity:1;" d="M 123.953125 42.15625 C 123.941406 42.222656 123.9375 42.28125 123.9375 42.339844 L 124.207031 42.378906 C 124.308594 42.394531 130.976562 43.394531 137.789062 45.820312 C 138.261719 45.113281 139.183594 44.828125 139.980469 45.195312 C 140.707031 45.53125 141.085938 46.304688 140.96875 47.0625 C 143.304688 48.066406 145.535156 49.253906 147.390625 50.640625 C 147.574219 45.289062 149.535156 40.378906 149.910156 39.714844 C 150.757812 38.199219 145.746094 39.597656 143.464844 42.082031 C 143.164062 42.410156 142.890625 42.742188 142.644531 43.082031 C 140.261719 42.5625 137.207031 42.519531 135.011719 42.304688 C 131.78125 41.992188 128.546875 41.683594 125.316406 41.363281 C 124.636719 41.296875 124.101562 41.316406 123.953125 42.15625 Z M 148.566406 40.464844 C 148.199219 41.445312 147.445312 43.726562 147.039062 45.613281 C 145.984375 43.742188 144.277344 43.414062 143.855469 43.375 C 144.796875 41.816406 147.285156 40.734375 148.566406 40.464844 Z M 148.566406 40.464844 "/>
<path style=" stroke:none;fill-rule:nonzero;fill:rgb(91.37255%,33.333334%,12.941177%);fill-opacity:1;" d="M 142.292969 103.148438 C 148.171875 103.871094 154.457031 103.535156 160.183594 100.949219 C 166.28125 98.195312 168.886719 94.128906 168.921875 94.074219 C 169.988281 92.519531 170.554688 90.695312 170.554688 88.800781 C 170.554688 83.664062 166.382812 79.484375 161.25 79.484375 C 156.117188 79.484375 151.945312 83.664062 151.945312 88.800781 C 151.945312 91.601562 153.183594 94.226562 155.347656 96.003906 C 155.460938 96.09375 155.574219 96.183594 155.691406 96.269531 C 155.703125 96.28125 155.710938 96.296875 155.726562 96.3125 C 155.921875 96.433594 156.035156 96.507812 156.035156 96.507812 L 153.636719 100.09375 C 147.363281 97.289062 144.757812 100.941406 142.292969 103.148438 Z M 142.292969 103.148438 "/>
<path style=" stroke:none;fill-rule:nonzero;fill:rgb(91.37255%,33.333334%,12.941177%);fill-opacity:1;" d="M 171.300781 88.800781 C 171.300781 89.828125 171.148438 90.832031 170.851562 91.792969 L 177.640625 89.761719 C 177.824219 88.367188 177.859375 87.039062 177.769531 85.773438 L 171.242188 87.726562 C 171.28125 88.078125 171.300781 88.4375 171.300781 88.800781 Z M 171.300781 88.800781 "/>
<path style=" stroke:none;fill-rule:nonzero;fill:rgb(91.37255%,33.333334%,12.941177%);fill-opacity:1;" d="M 136.4375 52.308594 C 136.710938 51.621094 136.945312 51.109375 137.089844 50.804688 C 135.664062 50.316406 134.316406 49.726562 133.089844 49.117188 C 134.121094 49.988281 135.265625 51.054688 136.4375 52.308594 Z M 136.4375 52.308594 "/>
<path style=" stroke:none;fill-rule:nonzero;fill:rgb(91.37255%,33.333334%,12.941177%);fill-opacity:1;" d="M 96.289062 48.925781 C 96.289062 48.226562 95.722656 47.65625 95.023438 47.65625 C 94.324219 47.65625 93.757812 48.226562 93.757812 48.925781 C 93.757812 49.625 94.324219 50.191406 95.023438 50.191406 C 95.722656 50.191406 96.289062 49.625 96.289062 48.925781 Z M 96.289062 48.925781 "/>
<path style=" stroke:none;fill-rule:nonzero;fill:rgb(91.37255%,33.333334%,12.941177%);fill-opacity:1;" d="M 95.402344 47.144531 C 95.609375 47.191406 95.804688 47.269531 95.980469 47.378906 C 96.550781 46.558594 97.46875 46.066406 98.464844 46.046875 C 98.472656 45.953125 98.484375 45.855469 98.503906 45.761719 C 98.5625 45.492188 98.679688 45.238281 98.851562 45.019531 C 97.257812 44.894531 95.710938 45.714844 94.925781 47.109375 C 94.957031 47.105469 94.988281 47.105469 95.019531 47.105469 C 95.148438 47.105469 95.277344 47.117188 95.402344 47.144531 Z M 95.402344 47.144531 "/>
<path style=" stroke:none;fill-rule:nonzero;fill:rgb(91.37255%,33.333334%,12.941177%);fill-opacity:1;" d="M 172.320312 119.820312 C 172.324219 119.824219 172.328125 119.824219 172.328125 119.824219 Z M 172.320312 119.820312 "/>
<path style=" stroke:none;fill-rule:nonzero;fill:rgb(91.37255%,33.333334%,12.941177%);fill-opacity:1;" d="M 98.1875 52.234375 C 98.082031 52.222656 97.980469 52.207031 97.878906 52.183594 L 97.875 52.183594 C 96.964844 51.988281 96.203125 51.40625 95.773438 50.578125 C 95.4375 50.734375 95.058594 50.78125 94.691406 50.710938 C 95.210938 51.988281 96.308594 52.910156 97.660156 53.203125 C 97.953125 53.265625 98.257812 53.296875 98.558594 53.292969 C 98.324219 52.988281 98.195312 52.617188 98.1875 52.234375 Z M 98.1875 52.234375 "/>
<path style=" stroke:none;fill-rule:nonzero;fill:rgb(91.37255%,33.333334%,12.941177%);fill-opacity:1;" d="M 148.554688 114.09375 C 148.5625 114.09375 148.574219 114.097656 148.582031 114.097656 L 148.566406 114.09375 Z M 148.554688 114.09375 "/>
<path style=" stroke:none;fill-rule:nonzero;fill:rgb(91.37255%,33.333334%,12.941177%);fill-opacity:1;" d="M 100.292969 47.414062 C 100.992188 47.414062 101.558594 46.84375 101.558594 46.144531 C 101.558594 45.445312 100.992188 44.878906 100.292969 44.878906 C 99.59375 44.878906 99.027344 45.445312 99.027344 46.144531 C 99.027344 46.84375 99.59375 47.414062 100.292969 47.414062 Z M 100.292969 47.414062 "/>
<path style=" stroke:none;fill-rule:nonzero;fill:rgb(91.37255%,33.333334%,12.941177%);fill-opacity:1;" d="M 101.273438 52.191406 C 101.273438 51.492188 100.707031 50.925781 100.007812 50.925781 C 99.308594 50.925781 98.742188 51.492188 98.742188 52.191406 C 98.742188 52.890625 99.308594 53.457031 100.007812 53.457031 C 100.707031 53.457031 101.273438 52.890625 101.273438 52.191406 Z M 101.273438 52.191406 "/>
<path style=" stroke:none;fill-rule:nonzero;fill:rgb(91.37255%,33.333334%,12.941177%);fill-opacity:1;" d="M 196.28125 78.242188 C 196.28125 67.171875 190.839844 57.351562 182.5 51.308594 L 181.167969 57.972656 C 181.9375 58.484375 184.371094 60.25 186.664062 63.441406 C 189.164062 66.917969 191.921875 72.800781 190.882812 81.074219 C 190.085938 87.417969 187.167969 92.574219 182.21875 96.398438 C 173.558594 103.082031 160.289062 104.371094 151.347656 104.371094 C 145.820312 104.371094 141.945312 103.878906 141.84375 103.863281 C 141.804688 103.859375 141.769531 103.84375 141.734375 103.828125 C 137.242188 103.230469 133.003906 102.042969 129.449219 100.777344 C 129.253906 100.707031 129.152344 100.496094 129.222656 100.300781 C 129.292969 100.105469 129.503906 100.003906 129.699219 100.074219 C 133.0625 101.273438 137.042969 102.402344 141.269531 103.011719 L 134.902344 98.074219 C 138.621094 94.898438 140.769531 92.382812 142.011719 90.574219 C 142.558594 89.648438 143.027344 88.726562 143.421875 87.832031 C 141.085938 85.476562 138.96875 82.75 137.320312 79.621094 C 137.316406 79.671875 137.316406 79.71875 137.316406 79.769531 C 137.640625 80.988281 137.816406 82.265625 137.816406 83.585938 C 137.816406 91.71875 131.234375 98.308594 123.109375 98.308594 C 114.988281 98.308594 108.40625 91.71875 108.40625 83.585938 C 108.40625 77.03125 112.6875 71.476562 118.605469 69.570312 C 110.398438 47.070312 98.511719 2.566406 98.511719 2.566406 C 98.46875 2.425781 98.421875 2.566406 98.421875 2.566406 C 98.421875 2.566406 86.539062 47.070312 78.328125 69.570312 C 84.246094 71.476562 88.53125 77.03125 88.53125 83.585938 C 88.53125 91.71875 81.949219 98.308594 73.824219 98.308594 C 65.703125 98.308594 59.121094 91.71875 59.121094 83.585938 C 59.121094 82.265625 59.296875 80.988281 59.621094 79.769531 C 59.617188 79.71875 59.617188 79.671875 59.617188 79.621094 C 57.96875 82.75 55.851562 85.476562 53.511719 87.832031 C 53.90625 88.726562 54.375 89.648438 54.925781 90.574219 C 56.164062 92.382812 58.3125 94.898438 62.035156 98.074219 L 55.664062 103.011719 C 59.890625 102.402344 63.875 101.273438 67.238281 100.074219 C 67.429688 100.003906 67.644531 100.105469 67.714844 100.300781 C 67.78125 100.496094 67.679688 100.707031 67.488281 100.777344 C 63.933594 102.042969 59.695312 103.230469 55.203125 103.828125 C 55.167969 103.84375 55.132812 103.859375 55.089844 103.863281 C 54.992188 103.878906 51.117188 104.371094 45.585938 104.371094 C 36.648438 104.371094 23.378906 103.082031 14.71875 96.398438 C 9.765625 92.574219 6.851562 87.417969 6.054688 81.074219 C 5.015625 72.800781 7.773438 66.917969 10.269531 63.441406 C 12.5625 60.25 15 58.484375 15.769531 57.972656 L 14.4375 51.308594 C 6.097656 57.351562 0.65625 67.171875 0.65625 78.242188 C 0.65625 83.796875 2.027344 89.039062 4.445312 93.648438 L 4.441406 93.648438 L 18.679688 120.945312 C 24.898438 113.957031 58 108.421875 98.421875 108.417969 L 98.511719 108.417969 C 138.933594 108.421875 172.039062 113.957031 178.257812 120.945312 L 192.492188 93.648438 C 194.910156 89.039062 196.28125 83.796875 196.28125 78.242188 Z M 98.839844 55.640625 L 98.839844 95.910156 C 100.507812 96.09375 101.8125 97.515625 101.8125 99.246094 C 101.8125 101.085938 100.3125 102.460938 98.472656 102.460938 C 96.625 102.460938 95.125 101.085938 95.125 99.246094 C 95.125 97.519531 96.425781 96.097656 98.09375 95.910156 L 98.09375 55.640625 C 94.660156 55.445312 91.933594 52.605469 91.933594 49.117188 C 91.933594 45.503906 94.859375 42.574219 98.46875 42.574219 C 102.078125 42.574219 105.003906 45.503906 105.003906 49.117188 C 105.003906 52.605469 102.277344 55.445312 98.839844 55.640625 Z M 98.839844 55.640625 "/>
<path style=" stroke:none;fill-rule:nonzero;fill:rgb(91.37255%,33.333334%,12.941177%);fill-opacity:1;" d="M 101.265625 47.699219 C 101.605469 48.34375 101.710938 49.085938 101.558594 49.800781 C 101.480469 50.152344 101.351562 50.480469 101.164062 50.78125 C 101.460938 51.027344 101.671875 51.355469 101.769531 51.726562 C 102.164062 51.230469 102.441406 50.644531 102.574219 50.019531 C 102.804688 48.929688 102.589844 47.789062 101.976562 46.863281 C 101.832031 47.207031 101.582031 47.496094 101.265625 47.699219 Z M 101.265625 47.699219 "/>
<path style=" stroke:none;fill-rule:nonzero;fill:rgb(91.37255%,33.333334%,12.941177%);fill-opacity:1;" d="M 59.414062 46.511719 C 59.539062 47.269531 59.15625 48.046875 58.425781 48.382812 C 57.628906 48.75 56.707031 48.464844 56.238281 47.753906 C 54.050781 48.695312 51.960938 49.796875 50.203125 51.074219 C 58.597656 52.761719 68.28125 45.863281 71.464844 43.347656 C 69.167969 43.765625 64.324219 44.765625 59.414062 46.511719 Z M 59.414062 46.511719 "/>
<path style=" stroke:none;fill-rule:nonzero;fill:rgb(91.37255%,33.333334%,12.941177%);fill-opacity:1;" d="M 35.6875 78.738281 C 41.230469 78.738281 45.738281 83.25 45.738281 88.800781 C 45.738281 90.71875 45.199219 92.558594 44.207031 94.136719 C 47.023438 92.417969 49.957031 90.277344 52.628906 87.65625 C 50.472656 82.503906 50.585938 78.265625 50.585938 78.195312 C 50.488281 72.902344 51.433594 68.316406 52.925781 64.386719 C 45.34375 63.46875 39.332031 64.726562 34.71875 66.757812 C 32.585938 67.785156 30.039062 69.230469 27.628906 71.148438 C 26.996094 71.671875 26.421875 72.195312 25.910156 72.695312 L 30.539062 73.921875 C 30.738281 73.976562 30.855469 74.179688 30.800781 74.378906 C 30.757812 74.546875 30.605469 74.65625 30.441406 74.65625 C 30.410156 74.65625 30.378906 74.652344 30.347656 74.644531 L 25.304688 73.308594 C 23.910156 74.757812 23.035156 75.976562 22.636719 76.578125 L 32.109375 79.410156 C 33.222656 78.980469 34.425781 78.738281 35.6875 78.738281 Z M 35.6875 78.738281 "/>
<path style=" stroke:none;fill-rule:nonzero;fill:rgb(91.37255%,33.333334%,12.941177%);fill-opacity:1;" d="M 27.191406 83.445312 L 20.058594 81.3125 C 19.667969 82.476562 19.382812 83.710938 19.238281 85.015625 L 25.808594 86.980469 C 26.042969 85.699219 26.519531 84.507812 27.191406 83.445312 Z M 27.191406 83.445312 "/>
<path style=" stroke:none;fill-rule:nonzero;fill:rgb(91.37255%,33.333334%,12.941177%);fill-opacity:1;" d="M 31.0625 79.875 L 22.050781 77.183594 C 21.371094 78.246094 20.78125 79.390625 20.3125 80.609375 L 27.636719 82.800781 C 28.542969 81.585938 29.710938 80.582031 31.0625 79.875 Z M 31.0625 79.875 "/>
<path style=" stroke:none;fill-rule:nonzero;fill:rgb(91.37255%,33.333334%,12.941177%);fill-opacity:1;" d="M 53.203125 63.664062 C 55.003906 59.214844 57.5 55.648438 59.9375 52.917969 C 59.582031 51.996094 59.28125 51.347656 59.132812 51.039062 C 57.140625 51.664062 55.03125 52.082031 52.917969 52.082031 C 51.789062 52.082031 50.664062 51.957031 49.554688 51.691406 C 49.5 56.390625 47.917969 61.238281 42.585938 63.730469 C 45.730469 63.257812 49.257812 63.171875 53.203125 63.664062 Z M 53.203125 63.664062 "/>
<path style=" stroke:none;fill-rule:nonzero;fill:rgb(91.37255%,33.333334%,12.941177%);fill-opacity:1;" d="M 98.511719 111.695312 L 98.421875 111.695312 C 55.472656 111.695312 19.699219 118.234375 19.699219 126.304688 L 19.699219 129.222656 C 19.703125 129.21875 19.707031 129.214844 19.710938 129.207031 L 19.710938 135.5 C 19.71875 135.484375 19.730469 135.46875 19.742188 135.449219 C 19.734375 135.519531 19.710938 135.582031 19.710938 135.652344 C 19.710938 142.011719 55.519531 147.171875 98.46875 147.171875 C 141.417969 147.171875 177.226562 142.011719 177.226562 135.652344 C 177.226562 135.582031 177.199219 135.519531 177.191406 135.449219 C 177.203125 135.46875 177.214844 135.484375 177.226562 135.5 L 177.226562 129.207031 C 177.230469 129.214844 177.234375 129.21875 177.238281 129.222656 L 177.238281 126.304688 C 177.238281 118.234375 141.464844 111.695312 98.511719 111.695312 Z M 160.789062 121.582031 C 162.632812 121.582031 164.136719 123.082031 164.136719 124.9375 C 164.136719 126.78125 162.632812 128.28125 160.789062 128.28125 C 158.945312 128.28125 157.445312 126.78125 157.445312 124.9375 C 157.445312 123.082031 158.945312 121.582031 160.789062 121.582031 Z M 98.472656 116.535156 C 100.3125 116.535156 101.8125 118.035156 101.8125 119.890625 C 101.8125 121.734375 100.3125 123.109375 98.472656 123.109375 C 96.625 123.109375 95.125 121.734375 95.125 119.890625 C 95.125 118.035156 96.625 116.535156 98.472656 116.535156 Z M 36.296875 121.582031 C 38.140625 121.582031 39.640625 123.082031 39.640625 124.9375 C 39.640625 126.78125 38.140625 128.28125 36.296875 128.28125 C 34.453125 128.28125 32.949219 126.78125 32.949219 124.9375 C 32.949219 123.082031 34.453125 121.582031 36.296875 121.582031 Z M 98.542969 143.511719 C 58.875 143.511719 30.882812 139.140625 24.417969 135.648438 C 30.878906 132.144531 58.871094 127.761719 98.542969 127.761719 C 138.214844 127.761719 166.207031 132.144531 172.671875 135.648438 C 166.203125 139.140625 138.210938 143.511719 98.542969 143.511719 Z M 98.542969 143.511719 "/>
<path style=" stroke:none;fill-rule:nonzero;fill:rgb(91.37255%,33.333334%,12.941177%);fill-opacity:1;" d="M 24.609375 119.824219 C 24.609375 119.824219 24.613281 119.824219 24.613281 119.820312 Z M 24.609375 119.824219 "/>
<path style=" stroke:none;fill-rule:nonzero;fill:rgb(91.37255%,33.333334%,12.941177%);fill-opacity:1;" d="M 48.351562 114.097656 C 48.363281 114.097656 48.371094 114.09375 48.382812 114.09375 L 48.371094 114.09375 Z M 48.351562 114.097656 "/>
<path style=" stroke:none;fill-rule:nonzero;fill:rgb(91.37255%,33.333334%,12.941177%);fill-opacity:1;" d="M 26.085938 91.792969 C 25.789062 90.832031 25.636719 89.828125 25.636719 88.800781 C 25.636719 88.4375 25.65625 88.078125 25.695312 87.726562 L 19.167969 85.773438 C 19.074219 87.039062 19.113281 88.367188 19.292969 89.761719 Z M 26.085938 91.792969 "/>
<path style=" stroke:none;fill-rule:nonzero;fill:rgb(91.37255%,33.333334%,12.941177%);fill-opacity:1;" d="M 6.792969 80.980469 C 7.566406 87.121094 10.382812 92.109375 15.171875 95.808594 C 22.757812 101.664062 33.996094 103.296875 42.605469 103.578125 C 40.496094 103.160156 38.414062 102.523438 36.398438 101.605469 C 30.117188 98.753906 27.5 94.660156 27.390625 94.484375 C 26.996094 93.910156 26.667969 93.292969 26.402344 92.65625 C 26.378906 92.652344 26.355469 92.652344 26.332031 92.644531 L 19.417969 90.578125 C 19.539062 91.292969 19.691406 92.019531 19.890625 92.765625 C 20.804688 94.914062 22.21875 96.664062 23.875 98.085938 C 15.886719 93.417969 11.722656 86.699219 11.722656 78.242188 C 11.722656 72.800781 13.695312 67.8125 16.960938 63.953125 L 15.929688 58.773438 C 13.777344 60.3125 5.09375 67.441406 6.792969 80.980469 Z M 6.792969 80.980469 "/>
</g>
</svg>
