<svg id="artwork" xmlns="http://www.w3.org/2000/svg" viewBox="0 0 793.33 442.85"><defs><style>.cls-1{fill:#e95420;}</style></defs><path class="cls-1" d="M737.74,276.74a161.23,161.23,0,0,0-8.84-52.82A128.38,128.38,0,0,0,753.24,191,95.76,95.76,0,0,0,775.92,64.41c-.07-.92-.13-1.86-.22-2.78l-.06-.56-.52-.78-.33-.23c-1.15-.81-2.31-1.59-3.48-2.36a95.89,95.89,0,0,0-70.86-38.26A128.23,128.23,0,0,0,511.26,126.19c-58.41,25-99.43,83.09-99.43,150.55A162.23,162.23,0,0,0,426,343.42a643.53,643.53,0,0,0-388.85,7.84l-1.23.43c-1.54.53-3.09,1.06-4.63,1.61l-3.45,1.22h0l-1.4.5-.23.09-1.33.55-.11,0c-.63.28-1.25.57-1.87.88l-.39.21c-.36.19-.73.38-1.09.59l-.25.14a37.39,37.39,0,0,0-4.53,3.05l-.78.62-.62.53-.16.14-.86.77-.83.79-.56.58-.18.19-.44.46c-.73.79-1.45,1.64-2.13,2.53l-.11.13-.21.27c-.37.5-.73,1-1.07,1.51l.79,1.48-.24.35h0a36.06,36.06,0,1,0,66.58,19.21,35.83,35.83,0,0,0-4.69-17.72H444.63a162,162,0,0,0,261.8,0h63.7l1-4a212.49,212.49,0,0,0-50.37-19.5A161.24,161.24,0,0,0,737.74,276.74Zm-18.23,71.85a215.62,215.62,0,0,0-33.28-5.27c-5.67-.45-11.45-.67-17.16-.67a216.66,216.66,0,0,0-22.35,1.17,337.49,337.49,0,0,1,9.43-57.27A128.27,128.27,0,0,0,736,289.33,159.91,159.91,0,0,1,719.51,348.59ZM601.45,117.9a160.79,160.79,0,0,1,91.43,48.83,257.3,257.3,0,0,0-37.28,34.66,94.78,94.78,0,0,1-55.55-82.23l1.43.21Zm100.77,57.69c-2.39-3-4.86-5.89-7.45-8.7a256.31,256.31,0,0,1,28.41-18.53A342.32,342.32,0,0,0,702.22,175.59Zm-.76,1.1c-.57.83-1.15,1.66-1.71,2.5l-.49.72-1,1.47c-1.32,2-2.6,4-3.8,5.86-.27.42-.53.84-.79,1.27l-.48.76q-1.32,2.11-2.61,4.25c-.51.83-1,1.67-1.5,2.51-.8,1.35-1.6,2.71-2.38,4.07l-.37.65c-.33.57-.66,1.14-1,1.71-1.23,2.18-2.32,4.17-3.35,6.08l-.2.38a93.6,93.6,0,0,1-25-7,256.31,256.31,0,0,1,36.93-34.26Q697.78,172,701.46,176.69Zm-45.52,26.25a95.17,95.17,0,0,0,25.23,7.18,339.23,339.23,0,0,0-28.72,73.62,127.2,127.2,0,0,1-35.21-21.61,253.51,253.51,0,0,1,32-51.19Q652.5,206.86,655.94,202.94ZM652.14,285a341,341,0,0,0-9.83,60.85,212.6,212.6,0,0,0-48.83,12.1,253.06,253.06,0,0,1,14.57-73.59q3.84-10.73,8.63-21A128.47,128.47,0,0,0,652.14,285Zm33.56-74.34c2.93.28,5.89.43,8.88.43a95.54,95.54,0,0,0,26.19-3.64,161.68,161.68,0,0,1,6.66,16.13,126.27,126.27,0,0,1-62.07,32.82A337.76,337.76,0,0,1,685.7,210.65Zm8.88-.85c-2.77,0-5.51-.13-8.22-.36.84-1.55,1.73-3.16,2.7-4.89l1-1.68.38-.65q1.15-2,2.34-4c.5-.83,1-1.66,1.49-2.48q1.28-2.11,2.58-4.2l.48-.78.77-1.23c1.18-1.86,2.44-3.81,3.75-5.78l1-1.44.49-.73.93-1.35a161.64,161.64,0,0,1,16,26.07A94.57,94.57,0,0,1,694.58,209.8Zm68.84-95.88a127.31,127.31,0,0,1,1.26,14.4h0a256.69,256.69,0,0,0-28.45,11.75A341,341,0,0,1,763.42,113.92Zm9.19,10.26c-1.31.4-2.58.79-3.8,1.18A130.32,130.32,0,0,0,767,109.6l-.06-.31-.11-.22q3.14-2.62,6.35-5.17C773.18,110.61,773,117.41,772.61,124.18ZM771.56,63c1,11.29,1.54,22.73,1.64,34.08a92,92,0,0,1-17.65-43.5A125.44,125.44,0,0,1,771.56,63Zm1.66,36.2c0,.6,0,1.2,0,1.8v1.28c-2.35,1.84-4.67,3.73-7,5.64l-.7-1.38-2.05,1.72a344,344,0,0,0-38,37.33A257.22,257.22,0,0,0,693.9,166a162,162,0,0,0-92.47-49.34v-.45c0-.33,0-.66,0-1a92.78,92.78,0,0,1,6.23-33.55A125.65,125.65,0,0,1,729,44.07a124.13,124.13,0,0,1,25.18,8.84A93.37,93.37,0,0,0,773.22,99.19ZM597.15,114.46c-4.06-.54-8.15-.9-12.25-1.14a127.52,127.52,0,0,1,16.49-26.63A96.89,96.89,0,0,0,597.15,114.46Zm1.62,4.52a96,96,0,0,0,56,83.41q-3.33,3.81-6.5,7.75a254.73,254.73,0,0,0-32,51.1,126.72,126.72,0,0,1-33.19-143.75C588.33,117.74,593.59,118.22,598.77,119Zm-26.71,47.21a128,128,0,0,0,43.62,96.26q-4.89,10.5-8.83,21.47a254.47,254.47,0,0,0-14.68,74.51,210.58,210.58,0,0,0-21.5,9.73H490.85q-28.69-12-58.55-21.26l-.48-1a157.86,157.86,0,0,1-15.74-69.15c0-87.92,71.53-159.45,159.45-159.45,2.06,0,4.12,0,6.18.13A127.5,127.5,0,0,0,572.06,166.19Zm1.4,202q9.12-4.61,18.65-8.33c-.11,2.77-.16,5.55-.19,8.33ZM39.78,355.33a34.72,34.72,0,0,1,27,12.83h-52l.56-.62.44-.47.13-.13.49-.5.73-.7.76-.68.17-.15.52-.45.33-.26h0l.37-.29a33.08,33.08,0,0,1,4-2.7l.23-.13.94-.51.37-.19q.82-.42,1.65-.78l.1,0c.39-.17.78-.33,1.18-.48l.2-.08c.41-.16.83-.31,1.29-.46,1.15-.42,2.31-.83,3.46-1.23q2.81-1,5.61-1.95C38.78,355.34,39.28,355.33,39.78,355.33Zm29.36,12.83h-.79a36,36,0,0,0-26.38-14,639.42,639.42,0,0,1,387.26-5.29l1.22.41a162.77,162.77,0,0,0,11.16,18.92Zm363.07-18.34,1.79.6-.94-1.95q27.72,8.61,54.47,19.69H443.17A162.69,162.69,0,0,1,432.21,349.82Zm130.66,22.59a213.1,213.1,0,0,0-25.73,17.4q-17.92-9.29-36.43-17.4Zm30.33-4.25c0-3,.08-5.9.21-8.84a210.81,210.81,0,0,1,48.81-12.19l-.11,1.49,1.53-.18q-.63,9.84-.7,19.72Zm92.88,0H644.22q.06-9.95.71-19.86a212.2,212.2,0,0,1,24.14-1.4c5.6,0,11.26.22,16.83.66a210,210,0,0,1,31.57,4.93,162.37,162.37,0,0,1-9.58,15.67Zm32.67-15.37a207.51,207.51,0,0,1,42.61,15.37H709.43A162,162,0,0,0,718.75,352.79Zm17.72-76.05c0,3.78-.15,7.52-.4,11.24a127.09,127.09,0,0,1-79.61-2.68q3.6-13.92,8.39-27.5a127.51,127.51,0,0,0,63-32.91A160.14,160.14,0,0,1,736.47,276.74Zm-8-54.15A161.08,161.08,0,0,0,722,207.08a95.73,95.73,0,0,0,28.85-14.29A127.41,127.41,0,0,1,728.43,222.59Zm23.8-32.43a94.38,94.38,0,0,1-30.79,15.75A162,162,0,0,0,705,179.11a339.86,339.86,0,0,1,28.88-36.43,252.76,252.76,0,0,1,30.88-13l0,1.51,1.45-.49c0,.5,0,1,0,1.48A126.64,126.64,0,0,1,752.23,190.16Zm2.37-1.88a128,128,0,0,0,12.9-56.11c0-.63,0-1.26,0-1.9,2.43-.81,5-1.61,7.78-2.45l1.43-.42.08-1.49v-.08c4-1.17,8.06-2.24,12.15-3.21A94.57,94.57,0,0,1,754.6,188.28Zm34.42-67c-4.09,1-8.15,2-12.18,3.2.37-6.76.58-13.54.63-20.24a95,95,0,0,0,11.75,11.07C789.21,117.33,789.14,119.31,789,121.29Zm.18-7.62a93.67,93.67,0,0,1-11.71-11.32V101c0-.14,0-.28,0-.42q4.57-3.51,9.27-6.87A94.48,94.48,0,0,1,789.2,113.67Zm-2.76-21.3c-3,2.15-6,4.36-9,6.62-.05-10.56-.5-21.2-1.32-31.75A93.83,93.83,0,0,1,786.44,92.37ZM768.1,55.66a128.32,128.32,0,0,0-13.05-7c-.16-2.13-.27-4.28-.29-6.44A95.49,95.49,0,0,1,768.1,55.66ZM753.47,41.14v.32c0,2.2.1,4.38.25,6.54A129.55,129.55,0,0,0,730,39.93c-.71-.17-1.43-.32-2.15-.47a128.65,128.65,0,0,0-24.73-18.54A94.07,94.07,0,0,1,753.47,41.14ZM725.42,39a129.7,129.7,0,0,0-115.7,34.39,94.74,94.74,0,0,1,84.86-52.82c1.85,0,3.69.06,5.51.16A127.54,127.54,0,0,1,725.42,39ZM550.87,41.14A127.09,127.09,0,0,1,697.47,19.3c-1,0-1.92,0-2.89,0A96,96,0,0,0,607,76c-.95,1-1.9,2-2.82,3l-.27.29-.14.37c-.48,1.23-.93,2.47-1.36,3.72a128.15,128.15,0,0,0-18.9,29.83c-2.67-.13-5.34-.22-8-.22a162.8,162.8,0,0,0-63,12.6A126.11,126.11,0,0,1,550.87,41.14Zm-476.29,349a34.8,34.8,0,1,1-64.41-18.21l.26.49H69.69A34.55,34.55,0,0,1,74.58,390.13Zm371.64-17.72h51.32q19.55,8.49,38.51,18.27a214.77,214.77,0,0,0-31.17,30.64A162.1,162.1,0,0,1,446.22,372.41Zm129.31,65.27a160,160,0,0,1-69.47-15.78,212.71,212.71,0,0,1,31.24-30.57,637.13,637.13,0,0,1,71,43A160.54,160.54,0,0,1,575.53,437.68ZM610,434a636.64,636.64,0,0,0-71.59-43.49,211,211,0,0,1,27.07-18h77.49a345.92,345.92,0,0,0,3.74,48.65A159.4,159.4,0,0,1,610,434Zm37.92-13.49a343.49,343.49,0,0,1-3.67-48h60.62A162.08,162.08,0,0,1,647.89,420.46Z"/><path class="cls-1" d="M703.09,62a10.63,10.63,0,1,0,10.63,10.63A10.64,10.64,0,0,0,703.09,62Zm0,17a6.38,6.38,0,1,1,6.38-6.37A6.38,6.38,0,0,1,703.09,79Z"/></svg>