<?xml version="1.0" encoding="UTF-8"?><svg id="a" xmlns="http://www.w3.org/2000/svg" viewBox="0 0 376 286.325"><path d="M104.3228,80.0787l6.8262-.5877s-5.3293-5.4454-10.5115-2.6205c0,0,2.6898,2.0054,3.6854,3.2082Z" style="fill:#e95521;"/><path d="M131.1867,70.2405c.3284.2142.7715.1203.9858-.209,2.4241-3.7308,7.4326-4.7937,11.164-2.3704,3.7316,2.4247,4.7945,7.4327,2.3703,11.164-1.1744,1.8078-2.9827,3.0499-5.0913,3.4974-.8519.181-1.7107.2165-2.5521.1253l-1.2315,1.2332c.2437.0557.4874.1119.7348.1479,1.0976.1597,2.2273.1249,3.3447-.1124,2.4811-.5268,4.6083-1.9883,5.9903-4.1147,2.8525-4.3904,1.6014-10.2827-2.7885-13.1356-4.3916-2.8541-10.2836-1.6015-13.1356,2.7885-.2145.3302-.1207.7714.209.9858Z" style="fill:#e95521;"/><path d="M234.9668,83.7165c1.1174.2373,2.2471.2721,3.3447.1124.2474-.036.4911-.0923.7348-.1479l-1.2315-1.2332c-.8414.0912-1.7002.0557-2.5521-.1253-2.1086-.4475-3.9169-1.6896-5.0913-3.4974-2.4242-3.7313-1.3613-8.7393,2.3703-11.164,3.7314-2.4233,8.7399-1.3604,11.164,2.3704.2143.3293.6574.4232.9858.209.3298-.2144.4235-.6555.209-.9858-2.8519-4.39-8.744-5.6426-13.1356-2.7885-4.3898,2.8528-5.641,8.7451-2.7885,13.1356,1.382,2.1264,3.5092,3.5879,5.9903,4.1147Z" style="fill:#e95521;"/><path d="M330.4712,187.2298c3.1685-2.7155,5.8658-6.0541,7.6135-10.1519.3801-1.4275.6736-2.8179.9034-4.1798l-13.2079,3.9442c-.0463.0139-.0925.0159-.1388.0201-.507,1.2212-1.1333,2.3947-1.8912,3.4953-.2069.3303-5.2035,8.1497-17.2078,13.594-3.8518,1.7464-7.8304,2.963-11.8575,3.7642,16.4437-.5367,37.9178-3.6548,52.4136-14.8355,9.1508-7.0586,14.5376-16.5806,16.0109-28.3018,3.2487-25.841-13.3452-39.4495-17.4522-42.3901l-1.9751,9.8853c6.2381,7.3693,10.0108,16.8887,10.0108,27.2772,0,16.1428-7.9536,28.965-23.2216,37.8788Z" style="fill:#e95521;"/><path d="M114.1415,96.9778c.2765.58.721,1.5585,1.2476,2.8743,2.2385-2.3957,4.424-4.4297,6.3965-6.0958-2.3438,1.1653-4.9237,2.2859-7.6441,3.2215Z" style="fill:#e95521;"/><path d="M94.4555,96.6643c3.5499-2.6459,7.8089-4.9128,12.2745-6.8302-.2284-1.4434.4983-2.9205,1.8906-3.5631,1.5193-.7012,3.2832-.1602,4.182,1.1909,13.0218-4.6305,25.7612-6.5415,25.9563-6.57l.5109-.0747c.0003-.1102-.0037-.2236-.0264-.3508-.2868-1.6029-1.3075-1.6405-2.603-1.512-6.1751.6126-12.353,1.1996-18.5292,1.801-4.1973.4083-10.0311.4863-14.5803,1.4789-.4737-.6445-.9949-1.2835-1.5678-1.9059-4.3638-4.7417-13.9379-7.4129-12.3173-4.5218.7137,1.2732,4.4649,10.6405,4.8099,20.8577ZM101.2127,82.7977c-.8039.0731-4.0665.696-6.0838,4.2684-.7787-3.6026-2.2133-7.9535-2.9182-9.826,2.4482.5133,7.2063,2.5807,9.002,5.5576Z" style="fill:#e95521;"/><path d="M101.4362,166.2285c6.342-6.4818,11.7732-14.4359,14.8201-24.0561,4.2939-14.7423,1.2645-28.5825-.3888-36.6669-.3313-1.0787-.6645-2.078-.9854-2.9732-8.5999,9.8107-17.416,25.1695-17.0098,46.7402-.0049.151-.1889,7.6809,3.5638,16.956Z" style="fill:#e95521;"/><path d="M78.5998,183.7654c.2208-.1651.4375-.3349.6504-.5093,4.1356-3.3948,6.5075-8.4067,6.5075-13.7517,0-9.8049-7.9767-17.7816-17.7816-17.7816s-17.7816,7.9767-17.7816,17.7816c0,3.6193,1.0804,7.1022,3.1243,10.0703.0654.1039,5.0425,7.863,16.6933,13.119,10.9407,4.9341,22.9543,5.5773,34.1838,4.2005-4.7103-4.2164-9.6878-11.1826-21.6747-5.8352l-4.5788-6.8443s.2153-.1351.5897-.3735c.0242-.0243.0394-.0545.0677-.0757Z" style="fill:#e95521;"/><path d="M275.2408,76.8705c-5.1822-2.8249-10.5115,2.6205-10.5115,2.6205l6.8262.5877c.9956-1.2028,3.6854-3.2082,3.6854-3.2082Z" style="fill:#e95521;"/><path d="M323.2839,158.0511l13.9933-4.1784c-.8967-2.3315-2.0204-4.5134-3.3206-6.5459l-17.2194,5.1416c2.5842,1.3458,4.8156,3.2639,6.5466,5.5826Z" style="fill:#e95521;"/><path d="M239.5391,82.747c6.0831,4.7967,24.5823,17.9699,40.6252,14.7482-3.3617-2.4399-7.3532-4.5411-11.529-6.338-.8974,1.3553-2.664,1.8992-4.1855,1.1969-1.3949-.6439-2.122-2.1252-1.8896-3.5711-9.3804-3.3307-18.636-5.2386-23.0211-6.0359Z" style="fill:#e95521;"/><path d="M326.7781,166.0321l12.5565-3.7492c-.2823-2.4921-.8228-4.8458-1.5729-7.0675l-13.6267,4.0689c1.2812,2.0277,2.1945,4.3047,2.6431,6.7478Z" style="fill:#e95521;"/><path d="M274.9757,99.4166c-4.0347,0-8.0717-.7957-11.8738-1.9903-.287.5913-.858,1.8264-1.5408,3.5884,4.6626,5.2074,9.4315,12.0142,12.8728,20.5103,7.5365-.9434,14.2788-.776,20.2846.1275-10.1882-4.7555-13.2085-14.0125-13.318-22.9858-2.1164.5103-4.2683.7499-6.4249.7499Z" style="fill:#e95521;"/><path d="M274.9627,122.9009c2.8495,7.5012,4.6582,16.2565,4.4677,26.3586.005.1348.2169,8.2233-3.8993,18.0643,5.1004,5.0023,10.7086,9.0898,16.0879,12.3705-1.8913-3.017-2.9236-6.5303-2.9236-10.19,0-10.5907,8.6159-19.2067,19.2067-19.2067,2.4106,0,4.7096.4656,6.8372,1.2801l18.0962-5.4034c-.7598-1.1461-2.4324-3.4717-5.096-6.2406l-9.6336,2.5486c-.0612.0162-.1225.0237-.1828.0237-.3154,0-.604-.2111-.6884-.5302-.1007-.3804.1262-.7705.5066-.8712l8.8393-2.3385c-.9788-.9577-2.0741-1.9535-3.28-2.9593-4.6102-3.6604-9.4752-6.4181-13.5503-8.3797-8.8156-3.8716-20.2984-6.2785-34.7876-4.5263Z" style="fill:#e95521;"/><path d="M274.442,166.2285c3.7527-9.2751,3.5687-16.805,3.5638-16.956.4062-21.5707-8.4099-36.9295-17.0098-46.7402-.3208.8952-.6541,1.8945-.9854,2.9732-1.6533,8.0844-4.6827,21.9246-.3888,36.6669,3.047,9.6202,8.4782,17.5743,14.8201,24.0561Z" style="fill:#e95521;"/><path d="M236.635,80.4664c-.0228.1272-.0268.2406-.0264.3508l.5109.0747c.195.0285,12.9344,1.9395,25.9563,6.57.8987-1.351,2.6627-1.8921,4.182-1.1909,1.3923.6427,2.119,2.1197,1.8906,3.5631,4.4656,1.9175,8.7245,4.1843,12.2745,6.8302.345-10.2172,4.0962-19.5845,4.8099-20.8577,1.6206-2.8911-7.9536-.2199-12.3173,4.5218-.5729.6224-1.0941,1.2614-1.5678,1.9059-4.5492-.9926-10.383-1.0706-14.5803-1.4789-6.1761-.6014-12.3541-1.1884-18.5292-1.801-1.2955-.1285-2.3162-.0909-2.603,1.512ZM283.6676,77.24c-.7049,1.8725-2.1395,6.2235-2.9182,9.826-2.0173-3.5724-5.2799-4.1953-6.0838-4.2684,1.7957-2.9769,6.5539-5.0443,9.002-5.5576Z" style="fill:#e95521;"/><path d="M271.6822,196.894c11.2295,1.3768,23.2431.7337,34.1838-4.2005,11.6507-5.2559,16.6279-13.0151,16.6933-13.119,2.0439-2.968,3.1243-6.4509,3.1243-10.0703,0-9.8049-7.9767-17.7816-17.7816-17.7816s-17.7816,7.9767-17.7816,17.7816c0,5.345,2.3719,10.3569,6.5075,13.7517.2129.1744.4296.3442.6504.5093.0282.0212.0435.0514.0677.0757.3744.2384.5897.3735.5897.3735l-4.5788,6.8443c-11.9869-5.3474-16.9644,1.6188-21.6747,5.8352Z" style="fill:#e95521;"/><path d="M327.1087,169.5043c0,1.959-.2934,3.8805-.8615,5.7108l12.9761-3.875c.3479-2.6634.4181-5.1994.246-7.6101l-12.4735,3.7244c.0719.674.113,1.3571.113,2.0499Z" style="fill:#e95521;"/><path d="M260.4891,99.8521c.5266-1.3158.9711-2.2943,1.2476-2.8743-2.7204-.9356-5.3002-2.0562-7.6441-3.2215,1.9725,1.6661,4.158,3.7001,6.3965,6.0958Z" style="fill:#e95521;"/><circle cx="181.3547" cy="93.3882" r="2.418" style="fill:#e95521;"/><path d="M182.0819,89.9938c.3944.0845.765.2335,1.1042.4441,1.0885-1.5658,2.8455-2.5054,4.7487-2.5403.0101-.183.0349-.365.0726-.5443.1113-.5176.3374-1.0021.6611-1.4168-3.0414-.2409-5.9963,1.3285-7.5004,3.9838.0616-.0037.1232-.0046.1839-.0046.2446,0,.4882.0257.73.0782Z" style="fill:#e95521;"/><path d="M329.0578,228.7203c.0045.0014.0092.0029.0137.0043l-.0041-.002-.0097-.0023Z" style="fill:#e95521;"/><path d="M187.4025,99.7072c-.1995-.022-.3981-.0542-.593-.0965h-.0009v.0009c-1.7422-.3733-3.1976-1.4857-4.0159-3.0634-.6445.2932-1.3699.3824-2.0678.2538.9902,2.4318,3.0901,4.198,5.6681,4.7505.5654.1214,1.1419.1802,1.7174.1765-.4441-.5838-.6914-1.2881-.7079-2.0218Z" style="fill:#e95521;"/><path d="M283.6436,217.7859c.019.0034.0376.0068.0566.0101l-.0326-.0079-.0239-.0023Z" style="fill:#e95521;"/><path d="M191.4257,90.5031c1.3354,0,2.4181-1.0826,2.4181-2.418s-1.0826-2.418-2.4181-2.418-2.418,1.0826-2.418,2.418,1.0826,2.418,2.418,2.418Z" style="fill:#e95521;"/><circle cx="190.8815" cy="99.6254" r="2.418" style="fill:#e95521;"/><path d="M374.841,149.3509c0-21.1338-10.3986-39.8741-26.3375-51.4079l-2.5406,12.7158c1.4704.9796,6.1228,4.35,10.5031,10.4431,4.7716,6.637,10.0424,17.8637,8.0574,33.6547-1.5225,12.1128-7.0934,21.9548-16.5569,29.2537-16.5439,12.759-41.9009,15.2167-58.9839,15.2167-10.5657,0-17.9681-.9399-18.1592-.9658-.0774-.0101-.1456-.0405-.2122-.0726-8.5864-1.1373-16.6812-3.405-23.4739-5.8207-.3707-.1327-.5641-.54-.4324-.9102.1322-.372.54-.5632.9102-.4333,6.4275,2.2867,14.035,4.4453,22.1125,5.6097l-12.1708-9.4296c7.1099-6.0555,11.2131-10.86,13.5819-14.3129,1.0501-1.7713,1.9456-3.5287,2.6996-5.2378-4.4686-4.4932-8.514-9.699-11.661-15.673-.0035.0976-.0052.1879-.0099.2895.622,2.3235.9587,4.7637.9587,7.2835,0,15.5194-12.5809,28.1004-28.1003,28.1004s-28.1004-12.581-28.1004-28.1004c0-12.5171,8.1864-23.118,19.4955-26.7529-15.6844-42.9492-38.3952-127.9034-38.3952-127.9034-.0833-.2674-.1733,0-.1733,0,0,0-22.7108,84.9542-38.3952,127.9034,11.3091,3.6349,19.4955,14.2357,19.4955,26.7529,0,15.5194-12.5809,28.1004-28.1004,28.1004s-28.1003-12.581-28.1003-28.1004c0-2.5197.3367-4.9599.9587-7.2835-.0047-.1015-.0064-.1919-.0099-.2895-3.147,5.9739-7.1924,11.1798-11.661,15.673.754,1.7091,1.6496,3.4665,2.6996,5.2378,2.3688,3.4528,6.472,8.2573,13.5819,14.3129l-12.1708,9.4296c8.0775-1.1643,15.685-3.323,22.1125-5.6097.3702-.1299.778.0612.9102.4333.1317.3702-.0617.7775-.4324.9102-6.7927,2.4157-14.8875,4.6834-23.4739,5.8207-.0666.0321-.1348.0625-.2122.0726-.1911.026-7.5935.9658-18.1592.9658-17.083,0-42.44-2.4577-58.9839-15.2167-9.4635-7.2989-15.0344-17.141-16.5569-29.2537-1.985-15.791,3.2858-27.0178,8.0574-33.6547,4.3803-6.0931,9.0327-9.4635,10.5031-10.4431l-2.5406-12.7158c-15.9389,11.5338-26.3375,30.2741-26.3375,51.4079,0,10.6071,2.62,20.6126,7.2422,29.4084l-.005-.002,27.2048,52.1101c11.8823-13.3434,75.1357-23.9097,152.3732-23.9177h.1733c77.2375.0079,140.4909,10.5743,152.3732,23.9177l27.2048-52.1101-.005.002c4.6222-8.7958,7.2422-18.8013,7.2422-29.4084ZM188.6514,106.2069v76.8694c3.1877.3527,5.6791,3.0648,5.6791,6.3655,0,3.5179-2.8659,6.1426-6.3838,6.1426-3.5292,0-6.399-2.6247-6.399-6.1426,0-3.2959,2.488-6.0045,5.6787-6.3634v-76.8715c-6.5626-.3715-11.7738-5.795-11.7738-12.4506,0-6.8962,5.5904-12.4866,12.4866-12.4866s12.4866,5.5904,12.4866,12.4866c0,6.6557-5.2115,12.0793-11.7743,12.4506Z" style="fill:#e95521;"/><path d="M193.283,91.0474c.6528,1.2301.8514,2.6497.559,4.015-.1435.6684-.3963,1.2982-.7521,1.8737.5687.4667.9701,1.0941,1.157,1.8005.7518-.9479,1.2813-2.0683,1.5359-3.2587.445-2.0769.0295-4.2559-1.14-6.023-.2786.6565-.7512,1.2109-1.3598,1.5924Z" style="fill:#e95521;"/><path d="M113.318,88.7829c.2324,1.4459-.4947,2.9272-1.8896,3.5711-1.5215.7023-3.2881.1584-4.1855-1.1969-4.1759,1.797-8.1674,3.8981-11.529,6.338,16.0429,3.2218,34.5422-9.9515,40.6252-14.7482-4.3852.7973-13.6407,2.7053-23.0211,6.0359Z" style="fill:#e95521;"/><polygon points="194.2465 98.7382 194.2474 98.7382 194.2469 98.7367 194.2465 98.7373 194.2465 98.7382" style="fill:#e95521;"/><path d="M67.9761,150.2977c10.5907,0,19.2067,8.6159,19.2067,19.2067,0,3.6597-1.0323,7.173-2.9236,10.19,5.3793-3.2807,10.9874-7.3682,16.0879-12.3705-4.1162-9.841-3.9043-17.9295-3.8993-18.0643-.1904-10.1021,1.6182-18.8574,4.4677-26.3586-14.4892-1.7523-25.972.6547-34.7876,4.5263-4.075,1.9616-8.9401,4.7193-13.5503,8.3797-1.2059,1.0058-2.3012,2.0015-3.28,2.9593l8.8393,2.3385c.3804.1007.6072.4908.5066.8712-.0844.3192-.373.5302-.6884.5302-.0603,0-.1215-.0074-.1828-.0237l-9.6336-2.5486c-2.6636,2.7688-4.3362,5.0944-5.096,6.2406l18.0962,5.4034c2.1277-.8144,4.4267-1.2801,6.8372-1.2801Z" style="fill:#e95521;"/><path d="M51.7432,159.2843l-13.6267-4.0689c-.7501,2.2217-1.2906,4.5754-1.5729,7.0675l12.5565,3.7492c.4486-2.4431,1.3619-4.7201,2.6431-6.7478Z" style="fill:#e95521;"/><path d="M59.1409,152.4685l-17.2194-5.1416c-1.3002,2.0325-2.4239,4.2144-3.3206,6.5459l13.9933,4.1784c1.731-2.3188,3.9624-4.2369,6.5466-5.5826Z" style="fill:#e95521;"/><path d="M101.4443,121.525c3.4413-8.4961,8.2102-15.3029,12.8728-20.5103-.6827-1.762-1.2538-2.9971-1.5408-3.5884-3.8021,1.1946-7.8391,1.9903-11.8738,1.9903-2.1566,0-4.3085-.2396-6.4249-.7499-.1095,8.9733-3.1298,18.2302-13.318,22.9858,6.0058-.9034,12.7481-1.0709,20.2846-.1275Z" style="fill:#e95521;"/><path d="M188.0257,213.21h-.1733c-82.0682,0-150.4253,12.4775-150.4253,27.8881v5.5677c.0056-.0101.0135-.0197.0193-.0299v12.0133c.0208-.032.0441-.0636.0649-.0956-.0146.127-.0649.2528-.0649.3804,0,12.1455,68.4245,21.9929,150.4927,21.9929s150.4927-9.8474,150.4927-21.9929c0-.1276-.0503-.2534-.0649-.3804.0209.032.0442.0636.0649.0956v-12.0133c.0057.0102.0136.0198.0193.0299v-5.5677c0-15.4106-68.3571-27.8881-150.4253-27.8881ZM307.0183,232.0807c3.5292,0,6.399,2.8661,6.399,6.4067,0,3.5178-2.8698,6.3838-6.399,6.3838-3.5179,0-6.3838-2.8659-6.3838-6.3838,0-3.5406,2.8659-6.4067,6.3838-6.4067ZM187.9467,222.4468c3.5179,0,6.3838,2.8662,6.3838,6.4067,0,3.5179-2.8659,6.1426-6.3838,6.1426-3.5292,0-6.399-2.6247-6.399-6.1426,0-3.5405,2.8698-6.4067,6.399-6.4067ZM69.146,232.0807c3.5179,0,6.3838,2.8661,6.3838,6.4067,0,3.5178-2.8659,6.3838-6.3838,6.3838-3.5292,0-6.399-2.8659-6.399-6.3838,0-3.5406,2.8698-6.4067,6.399-6.4067ZM188.0822,273.943c-75.7982,0-129.2818-8.3451-141.6416-15.0142,12.3526-6.6835,65.8338-15.0524,141.6416-15.0524s129.2891,8.3689,141.6416,15.0524c-12.3598,6.6691-65.8434,15.0142-141.6416,15.0142Z" style="fill:#e95521;"/><path d="M46.8067,228.7247c.0045-.0014.0092-.0029.0137-.0043l-.0097.0023-.0041.002Z" style="fill:#e95521;"/><path d="M92.178,217.796c.019-.0034.0376-.0068.0566-.0101l-.0239.0023-.0326.0079Z" style="fill:#e95521;"/><path d="M49.631,175.2151c-.5681-1.8303-.8615-3.7518-.8615-5.7108,0-.6928.0411-1.3759.113-2.0499l-12.4735-3.7244c-.1721,2.4107-.1019,4.9467.246,7.6101l12.9761,3.875Z" style="fill:#e95521;"/><path d="M12.7688,154.5785c1.4733,11.7213,6.8601,21.2432,16.0109,28.3018,14.4958,11.1807,35.9699,14.2988,52.4136,14.8355-4.027-.8012-8.0056-2.0178-11.8575-3.7642-12.0042-5.4443-17.0009-13.2637-17.2078-13.594-.7579-1.1005-1.3842-2.2741-1.8912-3.4953-.0463-.0042-.0925-.0063-.1388-.0201l-13.2079-3.9442c.2297,1.3619.5233,2.7524.9034,4.1798,1.7477,4.0978,4.445,7.4364,7.6135,10.1519-15.268-8.9138-23.2216-21.7361-23.2216-37.8788,0-10.3885,3.7727-19.9079,10.0108-27.2772l-1.9751-9.8853c-4.107,2.9406-20.7009,16.5491-17.4522,42.3901Z" style="fill:#e95521;"/></svg>