<?xml version="1.0" encoding="UTF-8"?>
<svg xmlns="http://www.w3.org/2000/svg" xmlns:xlink="http://www.w3.org/1999/xlink" width="150px" height="150px" viewBox="0 0 150 150" version="1.1">
<g id="surface1">
<path style=" stroke:none;fill-rule:nonzero;fill:rgb(0%,0%,0%);fill-opacity:1;" d="M 71.445312 81.277344 C 71.152344 81.351562 70.996094 81.664062 71.117188 81.945312 C 71.964844 83.867188 73.171875 85.597656 74.671875 87.023438 C 74.867188 87.207031 75.15625 87.207031 75.351562 87.023438 C 76.851562 85.597656 78.058594 83.867188 78.90625 81.945312 C 79.027344 81.664062 78.871094 81.351562 78.582031 81.277344 C 77.429688 81.011719 76.246094 80.867188 75.023438 80.867188 C 73.800781 80.867188 72.605469 81.011719 71.46875 81.277344 Z M 71.445312 81.277344 "/>
<path style=" stroke:none;fill-rule:nonzero;fill:rgb(0%,0%,0%);fill-opacity:1;" d="M 147.570312 75.96875 C 147.570312 75.640625 147.570312 75.328125 147.570312 75 C 147.570312 74.671875 147.570312 74.359375 147.570312 74.03125 L 111.277344 74.03125 C 111.265625 73.574219 111.242188 73.113281 111.21875 72.652344 L 123.289062 71.382812 C 123.265625 71.054688 123.253906 70.742188 123.230469 70.414062 L 147.253906 67.886719 C 147.21875 67.558594 147.195312 67.246094 147.15625 66.917969 L 123.15625 69.449219 C 123.132812 69.121094 123.097656 68.804688 123.058594 68.480469 L 110.941406 69.75 C 110.890625 69.449219 110.855469 69.15625 110.792969 68.867188 L 122.792969 66.316406 C 122.746094 66 122.699219 65.671875 122.648438 65.359375 L 146.128906 60.363281 C 146.070312 60.046875 145.996094 59.734375 145.921875 59.417969 L 122.480469 64.402344 C 122.417969 64.089844 122.371094 63.761719 122.308594 63.449219 L 110.203125 66.023438 C 110.128906 65.734375 110.054688 65.445312 109.972656 65.152344 L 121.863281 61.292969 C 121.789062 60.980469 121.71875 60.664062 121.632812 60.351562 L 144.21875 53.007812 C 144.121094 52.707031 144.023438 52.390625 143.914062 52.089844 L 121.378906 59.40625 C 121.292969 59.09375 121.210938 58.777344 121.125 58.476562 L 109.066406 62.394531 C 108.957031 62.117188 108.859375 61.839844 108.738281 61.558594 L 120.472656 56.335938 C 120.375 56.019531 120.265625 55.71875 120.167969 55.414062 L 141.53125 45.90625 C 141.398438 45.617188 141.265625 45.316406 141.132812 45.023438 L 119.84375 54.507812 C 119.734375 54.207031 119.625 53.902344 119.503906 53.601562 L 107.550781 58.921875 C 107.417969 58.65625 107.285156 58.390625 107.140625 58.125 L 118.644531 51.484375 C 118.523438 51.179688 118.390625 50.890625 118.257812 50.589844 L 138.109375 39.132812 C 137.953125 38.855469 137.78125 38.578125 137.625 38.296875 L 117.859375 49.707031 C 117.726562 49.414062 117.582031 49.113281 117.449219 48.824219 L 105.691406 55.609375 C 105.53125 55.355469 105.363281 55.101562 105.207031 54.859375 L 116.394531 46.730469 C 116.238281 46.441406 116.09375 46.160156 115.933594 45.871094 L 134.019531 32.734375 C 133.828125 32.46875 133.644531 32.214844 133.453125 31.949219 L 115.464844 45.023438 C 115.304688 44.746094 115.136719 44.46875 114.980469 44.175781 L 103.511719 52.511719 C 103.332031 52.28125 103.136719 52.039062 102.945312 51.808594 L 113.710938 42.121094 C 113.527344 41.84375 113.347656 41.578125 113.164062 41.308594 L 129.289062 26.792969 C 129.074219 26.550781 128.855469 26.308594 128.636719 26.082031 L 112.609375 40.511719 C 112.425781 40.246094 112.234375 39.980469 112.050781 39.714844 L 100.996094 49.667969 C 100.789062 49.453125 100.574219 49.246094 100.367188 49.039062 L 110.550781 37.730469 C 110.347656 37.476562 110.140625 37.222656 109.933594 36.96875 L 123.945312 21.410156 C 123.703125 21.195312 123.472656 20.976562 123.230469 20.757812 L 109.320312 36.207031 C 109.113281 35.953125 108.90625 35.710938 108.691406 35.457031 L 98.214844 47.09375 C 97.984375 46.898438 97.753906 46.71875 97.511719 46.523438 L 106.949219 33.53125 C 106.71875 33.289062 106.488281 33.058594 106.269531 32.832031 L 118.078125 16.574219 C 117.824219 16.378906 117.554688 16.183594 117.289062 16.003906 L 105.570312 32.128906 C 105.339844 31.898438 105.109375 31.667969 104.867188 31.441406 L 95.152344 44.820312 C 94.898438 44.648438 94.65625 44.492188 94.402344 44.335938 L 102.894531 29.625 C 102.652344 29.40625 102.398438 29.203125 102.144531 28.984375 L 111.726562 12.386719 C 111.449219 12.21875 111.167969 12.058594 110.890625 11.902344 L 101.394531 28.34375 C 101.140625 28.136719 100.886719 27.929688 100.632812 27.726562 L 91.886719 42.871094 C 91.546875 42.691406 91.210938 42.519531 90.871094 42.351562 L 98.203125 25.875 C 97.996094 25.730469 97.800781 25.585938 97.597656 25.453125 L 104.976562 8.878906 C 104.683594 8.746094 104.382812 8.613281 104.09375 8.480469 L 96.785156 24.882812 C 96.582031 24.75 96.375 24.605469 96.167969 24.472656 L 88.644531 41.359375 C 88.222656 41.191406 87.785156 41.019531 87.351562 40.863281 L 93.265625 22.667969 C 93.046875 22.546875 92.84375 22.425781 92.625 22.304688 L 97.886719 6.097656 C 97.585938 6 97.269531 5.890625 96.96875 5.792969 L 91.753906 21.824219 C 91.535156 21.703125 91.320312 21.582031 91.101562 21.472656 L 85.039062 40.113281 C 84.605469 39.980469 84.15625 39.871094 83.710938 39.761719 L 87.929688 19.921875 C 87.703125 19.828125 87.484375 19.71875 87.253906 19.621094 L 90.554688 4.089844 C 90.242188 4.015625 89.925781 3.957031 89.613281 3.882812 L 86.347656 19.222656 C 86.117188 19.125 85.898438 19.027344 85.667969 18.929688 L 81.351562 39.242188 C 80.902344 39.15625 80.445312 39.097656 79.984375 39.023438 L 82.234375 17.648438 C 82.003906 17.566406 81.761719 17.492188 81.53125 17.417969 L 83.070312 2.84375 C 82.753906 2.804688 82.425781 2.769531 82.101562 2.746094 L 80.589844 17.128906 C 80.359375 17.054688 80.117188 16.984375 79.886719 16.910156 L 77.589844 38.78125 C 77.128906 38.746094 76.667969 38.722656 76.210938 38.710938 L 76.210938 15.96875 C 75.96875 15.917969 75.726562 15.859375 75.484375 15.808594 L 75.484375 2.417969 C 75.328125 2.417969 75.15625 2.417969 75 2.417969 C 74.84375 2.417969 74.671875 2.417969 74.515625 2.417969 L 74.515625 15.628906 C 74.273438 15.582031 74.03125 15.53125 73.789062 15.484375 L 73.789062 38.722656 C 73.332031 38.734375 72.871094 38.757812 72.410156 38.792969 L 69.894531 14.902344 C 69.652344 14.878906 69.398438 14.855469 69.15625 14.832031 L 67.886719 2.757812 C 67.558594 2.792969 67.246094 2.820312 66.917969 2.855469 L 68.164062 14.734375 C 67.921875 14.710938 67.667969 14.683594 67.425781 14.671875 L 69.992188 39.035156 C 69.53125 39.097656 69.085938 39.167969 68.625 39.253906 L 63.363281 14.503906 C 63.207031 14.503906 63.046875 14.503906 62.878906 14.503906 C 62.710938 14.503906 62.699219 14.503906 62.613281 14.503906 L 60.351562 3.882812 C 60.035156 3.945312 59.722656 4.015625 59.40625 4.089844 L 61.621094 14.527344 C 61.378906 14.527344 61.125 14.527344 60.882812 14.550781 L 66.242188 39.773438 C 65.792969 39.882812 65.347656 40.003906 64.910156 40.125 L 56.699219 14.832031 C 56.457031 14.855469 56.203125 14.890625 55.960938 14.914062 L 52.996094 5.804688 C 52.695312 5.902344 52.378906 6 52.078125 6.109375 L 54.980469 15.035156 C 54.738281 15.074219 54.496094 15.097656 54.253906 15.132812 L 62.613281 40.875 C 62.175781 41.03125 61.753906 41.203125 61.320312 41.371094 L 49.972656 15.894531 C 49.730469 15.945312 49.488281 16.003906 49.246094 16.066406 L 45.871094 8.492188 C 45.582031 8.625 45.277344 8.757812 44.988281 8.890625 L 48.289062 16.304688 C 48.046875 16.367188 47.820312 16.425781 47.578125 16.488281 L 59.105469 42.375 C 58.695312 42.582031 58.28125 42.785156 57.871094 43.003906 L 43.304688 17.769531 C 43.078125 17.855469 42.847656 17.941406 42.605469 18.011719 L 39.085938 11.914062 C 38.804688 12.074219 38.527344 12.242188 38.25 12.398438 L 41.683594 18.351562 C 41.457031 18.433594 41.226562 18.519531 40.996094 18.605469 L 55.777344 44.203125 C 55.320312 44.492188 54.871094 44.78125 54.421875 45.097656 L 36.582031 20.527344 C 36.433594 20.601562 36.289062 20.671875 36.144531 20.746094 L 32.699219 16.003906 C 32.429688 16.199219 32.175781 16.378906 31.910156 16.574219 L 35.261719 21.179688 C 35.117188 21.253906 34.972656 21.328125 34.828125 21.410156 L 52.863281 46.234375 C 52.367188 46.609375 51.882812 47.007812 51.410156 47.40625 L 30.339844 24.011719 C 30.207031 24.097656 30.058594 24.195312 29.925781 24.277344 L 26.757812 20.757812 C 26.515625 20.976562 26.273438 21.195312 26.042969 21.410156 L 29.117188 24.824219 C 28.984375 24.917969 28.851562 25.003906 28.71875 25.101562 L 49.972656 48.714844 C 49.523438 49.136719 49.078125 49.585938 48.652344 50.03125 L 24.484375 28.269531 C 24.363281 28.378906 24.230469 28.476562 24.109375 28.585938 L 21.351562 26.09375 C 21.132812 26.335938 20.914062 26.566406 20.699219 26.804688 L 23.359375 29.203125 C 23.238281 29.308594 23.117188 29.40625 22.984375 29.515625 L 47.347656 51.449219 C 46.949219 51.917969 46.546875 52.402344 46.171875 52.898438 L 19.113281 33.242188 C 19.003906 33.363281 18.894531 33.484375 18.773438 33.59375 L 16.511719 31.949219 C 16.320312 32.203125 16.125 32.46875 15.945312 32.734375 L 18.109375 34.304688 C 18 34.425781 17.890625 34.546875 17.78125 34.667969 L 45.023438 54.460938 C 44.671875 54.96875 44.335938 55.488281 44.007812 56.019531 L 14.324219 38.878906 C 14.226562 39.011719 14.128906 39.144531 14.03125 39.265625 L 12.316406 38.273438 C 12.144531 38.550781 11.988281 38.832031 11.832031 39.109375 L 13.464844 40.050781 C 13.367188 40.183594 13.269531 40.320312 13.183594 40.453125 L 43.039062 57.691406 C 42.738281 58.234375 42.460938 58.789062 42.195312 59.347656 L 10.246094 45.121094 C 10.160156 45.265625 10.089844 45.398438 10.003906 45.542969 L 8.820312 45.011719 C 8.683594 45.300781 8.550781 45.605469 8.417969 45.894531 L 9.53125 46.390625 C 9.460938 46.535156 9.375 46.667969 9.300781 46.816406 L 41.394531 61.101562 C 41.152344 61.667969 40.933594 62.25 40.730469 62.84375 L 6.992188 51.882812 C 6.75 52.476562 6.507812 53.082031 6.277344 53.683594 L 40.183594 64.707031 C 40.003906 65.296875 39.847656 65.902344 39.703125 66.507812 L 4.535156 59.03125 C 4.367188 59.648438 4.210938 60.277344 4.050781 60.90625 L 39.289062 68.394531 C 39.179688 69 39.085938 69.617188 39 70.234375 L 3 66.449219 C 2.914062 67.089844 2.832031 67.730469 2.757812 68.371094 L 38.792969 72.15625 C 38.746094 72.773438 38.710938 73.390625 38.699219 74.019531 L 2.429688 74.019531 C 2.429688 74.347656 2.429688 74.660156 2.429688 74.988281 C 2.429688 75.316406 2.429688 75.628906 2.429688 75.957031 L 38.722656 75.957031 C 38.734375 76.414062 38.757812 76.875 38.78125 77.335938 L 26.710938 78.605469 C 26.734375 78.929688 26.746094 79.246094 26.769531 79.574219 L 2.746094 82.101562 C 2.78125 82.425781 2.804688 82.742188 2.84375 83.070312 L 26.84375 80.539062 C 26.867188 80.867188 26.902344 81.179688 26.941406 81.507812 L 39.058594 80.238281 C 39.109375 80.539062 39.144531 80.832031 39.207031 81.121094 L 27.207031 83.671875 C 27.253906 83.988281 27.300781 84.316406 27.351562 84.628906 L 3.871094 89.625 C 3.929688 89.941406 4.003906 90.253906 4.078125 90.570312 L 27.519531 85.585938 C 27.582031 85.898438 27.628906 86.226562 27.691406 86.539062 L 39.796875 83.964844 C 39.871094 84.253906 39.945312 84.542969 40.027344 84.835938 L 28.136719 88.695312 C 28.210938 89.007812 28.28125 89.324219 28.367188 89.636719 L 5.78125 96.980469 C 5.878906 97.28125 5.976562 97.597656 6.085938 97.898438 L 28.621094 90.582031 C 28.707031 90.894531 28.789062 91.210938 28.875 91.511719 L 40.933594 87.59375 C 41.042969 87.871094 41.140625 88.148438 41.261719 88.425781 L 29.527344 93.652344 C 29.625 93.96875 29.734375 94.269531 29.832031 94.574219 L 8.46875 104.082031 C 8.601562 104.371094 8.734375 104.671875 8.867188 104.964844 L 30.15625 95.480469 C 30.265625 95.78125 30.375 96.085938 30.496094 96.386719 L 42.449219 91.066406 C 42.582031 91.332031 42.714844 91.597656 42.859375 91.863281 L 31.355469 98.503906 C 31.476562 98.804688 31.609375 99.097656 31.742188 99.398438 L 11.890625 110.855469 C 12.046875 111.132812 12.21875 111.410156 12.375 111.691406 L 32.140625 100.28125 C 32.273438 100.574219 32.417969 100.875 32.550781 101.164062 L 44.308594 94.378906 C 44.46875 94.632812 44.636719 94.886719 44.792969 95.128906 L 33.605469 103.257812 C 33.761719 103.546875 33.90625 103.828125 34.066406 104.117188 L 15.980469 117.253906 C 16.171875 117.519531 16.355469 117.773438 16.546875 118.039062 L 34.535156 104.964844 C 34.695312 105.242188 34.863281 105.519531 35.019531 105.808594 L 46.488281 97.476562 C 46.667969 97.707031 46.863281 97.949219 47.054688 98.175781 L 36.289062 107.867188 C 36.472656 108.144531 36.652344 108.410156 36.835938 108.675781 L 20.710938 123.195312 C 20.925781 123.433594 21.144531 123.675781 21.363281 123.90625 L 37.390625 109.476562 C 37.574219 109.742188 37.765625 110.007812 37.949219 110.273438 L 49.003906 100.320312 C 49.210938 100.535156 49.425781 100.742188 49.632812 100.949219 L 39.449219 112.257812 C 39.652344 112.511719 39.859375 112.765625 40.066406 113.019531 L 26.054688 128.578125 C 26.296875 128.792969 26.527344 129.011719 26.769531 129.230469 L 40.679688 113.78125 C 40.886719 114.035156 41.09375 114.277344 41.308594 114.53125 L 51.785156 102.894531 C 52.015625 103.089844 52.246094 103.269531 52.488281 103.464844 L 43.050781 116.457031 C 43.28125 116.699219 43.511719 116.925781 43.730469 117.15625 L 31.921875 133.414062 C 32.175781 133.609375 32.445312 133.800781 32.710938 133.984375 L 44.429688 117.859375 C 44.660156 118.089844 44.890625 118.320312 45.132812 118.546875 L 54.847656 105.167969 C 55.101562 105.339844 55.34375 105.496094 55.597656 105.652344 L 47.105469 120.363281 C 47.347656 120.582031 47.601562 120.785156 47.855469 121.003906 L 38.273438 137.601562 C 38.550781 137.769531 38.832031 137.925781 39.109375 138.085938 L 48.605469 121.644531 C 48.859375 121.851562 49.113281 122.054688 49.367188 122.261719 L 58.113281 107.117188 C 58.453125 107.296875 58.789062 107.46875 59.128906 107.636719 L 51.796875 124.113281 C 52.003906 124.257812 52.199219 124.402344 52.402344 124.535156 L 45.023438 141.109375 C 45.316406 141.242188 45.617188 141.375 45.90625 141.507812 L 53.214844 125.105469 C 53.417969 125.238281 53.625 125.382812 53.832031 125.515625 L 61.355469 108.628906 C 61.777344 108.796875 62.214844 108.96875 62.648438 109.125 L 56.734375 127.320312 C 56.953125 127.441406 57.15625 127.558594 57.375 127.679688 L 52.113281 143.890625 C 52.414062 143.988281 52.730469 144.097656 53.03125 144.195312 L 58.246094 128.164062 C 58.464844 128.285156 58.679688 128.40625 58.898438 128.515625 L 64.960938 109.875 C 65.394531 110.007812 65.84375 110.117188 66.289062 110.226562 L 62.070312 130.066406 C 62.296875 130.160156 62.515625 130.269531 62.746094 130.367188 L 59.445312 145.898438 C 59.757812 145.972656 60.074219 146.03125 60.386719 146.105469 L 63.652344 130.765625 C 63.882812 130.863281 64.101562 130.960938 64.332031 131.054688 L 68.648438 110.746094 C 69.097656 110.832031 69.554688 110.890625 70.015625 110.964844 L 67.765625 132.339844 C 67.996094 132.421875 68.238281 132.496094 68.46875 132.570312 L 66.929688 147.144531 C 67.246094 147.179688 67.574219 147.21875 67.898438 147.242188 L 69.410156 132.859375 C 69.640625 132.929688 69.882812 133.003906 70.113281 133.078125 L 72.410156 111.207031 C 72.871094 111.242188 73.332031 111.265625 73.789062 111.277344 L 73.789062 134.019531 C 74.03125 134.070312 74.273438 134.128906 74.515625 134.175781 L 74.515625 147.582031 C 74.671875 147.582031 74.84375 147.582031 75 147.582031 C 75.15625 147.582031 75.328125 147.582031 75.484375 147.582031 L 75.484375 134.371094 C 75.726562 134.417969 75.96875 134.46875 76.210938 134.515625 L 76.210938 111.277344 C 76.667969 111.265625 77.128906 111.242188 77.589844 111.207031 L 80.105469 135.097656 C 80.347656 135.121094 80.601562 135.144531 80.84375 135.167969 L 82.113281 147.242188 C 82.441406 147.207031 82.753906 147.179688 83.082031 147.144531 L 81.835938 135.265625 C 82.078125 135.289062 82.332031 135.316406 82.574219 135.328125 L 80.007812 110.964844 C 80.46875 110.902344 80.914062 110.832031 81.375 110.746094 L 86.636719 135.496094 C 86.792969 135.496094 86.953125 135.496094 87.121094 135.496094 C 87.289062 135.496094 87.300781 135.496094 87.386719 135.496094 L 89.648438 146.117188 C 89.964844 146.054688 90.277344 145.984375 90.59375 145.910156 L 88.378906 135.472656 C 88.621094 135.472656 88.875 135.472656 89.117188 135.449219 L 83.757812 110.226562 C 84.207031 110.117188 84.652344 109.996094 85.089844 109.875 L 93.300781 135.167969 C 93.542969 135.144531 93.796875 135.109375 94.039062 135.085938 L 97.003906 144.195312 C 97.304688 144.097656 97.621094 144 97.921875 143.890625 L 95.019531 134.964844 C 95.261719 134.925781 95.503906 134.902344 95.746094 134.867188 L 87.386719 109.125 C 87.824219 108.96875 88.246094 108.796875 88.679688 108.628906 L 100.027344 134.105469 C 100.269531 134.054688 100.511719 133.996094 100.753906 133.933594 L 104.128906 141.507812 C 104.417969 141.375 104.722656 141.242188 105.011719 141.109375 L 101.710938 133.695312 C 101.953125 133.632812 102.179688 133.574219 102.421875 133.511719 L 90.894531 107.625 C 91.304688 107.417969 91.71875 107.214844 92.128906 106.996094 L 106.695312 132.230469 C 106.921875 132.144531 107.152344 132.058594 107.394531 131.988281 L 110.914062 138.085938 C 111.195312 137.925781 111.472656 137.757812 111.75 137.601562 L 108.316406 131.648438 C 108.542969 131.566406 108.773438 131.480469 109.003906 131.394531 L 94.222656 105.796875 C 94.679688 105.507812 95.128906 105.21875 95.578125 104.902344 L 113.417969 129.472656 C 113.566406 129.398438 113.710938 129.328125 113.855469 129.253906 L 117.300781 133.996094 C 117.570312 133.800781 117.824219 133.621094 118.089844 133.425781 L 114.738281 128.820312 C 114.882812 128.746094 115.027344 128.671875 115.171875 128.589844 L 97.136719 103.765625 C 97.632812 103.390625 98.117188 102.992188 98.589844 102.59375 L 119.660156 125.988281 C 119.792969 125.902344 119.941406 125.804688 120.074219 125.722656 L 123.242188 129.242188 C 123.484375 129.023438 123.726562 128.804688 123.957031 128.589844 L 120.882812 125.175781 C 121.015625 125.082031 121.148438 124.996094 121.28125 124.898438 L 100.027344 101.285156 C 100.476562 100.863281 100.921875 100.414062 101.347656 99.96875 L 125.515625 121.730469 C 125.636719 121.621094 125.769531 121.523438 125.890625 121.414062 L 128.648438 123.90625 C 128.867188 123.664062 129.085938 123.433594 129.300781 123.195312 L 126.640625 120.796875 C 126.761719 120.691406 126.882812 120.59375 127.015625 120.484375 L 102.652344 98.550781 C 103.050781 98.082031 103.453125 97.597656 103.828125 97.101562 L 130.886719 116.757812 C 130.996094 116.636719 131.105469 116.515625 131.226562 116.40625 L 133.488281 118.050781 C 133.679688 117.796875 133.875 117.53125 134.054688 117.265625 L 131.890625 115.695312 C 132 115.574219 132.109375 115.453125 132.21875 115.332031 L 104.976562 95.539062 C 105.328125 95.03125 105.664062 94.511719 105.992188 93.980469 L 135.675781 111.121094 C 135.773438 110.988281 135.871094 110.855469 135.96875 110.734375 L 137.683594 111.726562 C 137.855469 111.449219 138.011719 111.167969 138.167969 110.890625 L 136.535156 109.949219 C 136.632812 109.816406 136.730469 109.679688 136.816406 109.546875 L 106.960938 92.308594 C 107.261719 91.765625 107.539062 91.210938 107.804688 90.652344 L 139.753906 104.878906 C 139.839844 104.734375 139.910156 104.601562 139.996094 104.457031 L 141.179688 104.988281 C 141.316406 104.699219 141.449219 104.394531 141.582031 104.105469 L 140.46875 103.609375 C 140.539062 103.464844 140.625 103.332031 140.699219 103.183594 L 108.605469 88.898438 C 108.847656 88.332031 109.066406 87.75 109.269531 87.15625 L 143.070312 98.140625 C 143.308594 97.546875 143.550781 96.945312 143.78125 96.339844 L 109.875 85.320312 C 110.054688 84.726562 110.214844 84.121094 110.359375 83.515625 L 145.523438 90.992188 C 145.695312 90.375 145.851562 89.746094 146.007812 89.117188 L 110.769531 81.628906 C 110.878906 81.023438 110.976562 80.40625 111.058594 79.789062 L 147.058594 83.578125 C 147.144531 82.933594 147.230469 82.292969 147.300781 81.652344 L 111.265625 77.867188 C 111.316406 77.25 111.351562 76.632812 111.363281 76.003906 L 147.652344 76.003906 Z M 97.910156 82.378906 C 95.953125 74.359375 89.890625 67.949219 82.089844 65.492188 C 80.914062 65.128906 79.695312 65.855469 79.453125 67.050781 L 78.035156 74.152344 C 77.925781 74.683594 78.277344 75.21875 78.808594 75.351562 C 85.65625 77.042969 90.738281 83.238281 90.738281 90.617188 C 86.359375 93.90625 80.914062 95.855469 75.011719 95.855469 C 69.109375 95.855469 63.664062 93.90625 59.285156 90.617188 C 59.285156 83.238281 64.367188 77.054688 71.214844 75.351562 C 71.746094 75.21875 72.085938 74.683594 71.988281 74.152344 L 70.574219 67.050781 C 70.332031 65.855469 69.109375 65.128906 67.933594 65.492188 C 60.121094 67.949219 54.074219 74.359375 52.113281 82.378906 C 50.515625 79.511719 49.441406 76.320312 49.015625 72.929688 C 50.503906 70.753906 52.246094 68.769531 54.21875 67.039062 C 54.691406 62.324219 56.40625 57.980469 59.03125 54.339844 C 59.191406 54.109375 59.503906 54.074219 59.722656 54.242188 C 62.007812 56.03125 63.992188 58.183594 65.578125 60.617188 C 68.550781 59.683594 71.734375 59.175781 75.023438 59.175781 C 78.316406 59.175781 81.484375 59.683594 84.460938 60.617188 C 86.042969 58.183594 88.027344 56.019531 90.316406 54.242188 C 90.53125 54.074219 90.847656 54.121094 91.003906 54.339844 C 93.628906 57.980469 95.347656 62.324219 95.820312 67.039062 C 97.789062 68.78125 99.542969 70.765625 101.019531 72.945312 C 100.597656 76.34375 99.519531 79.535156 97.921875 82.390625 Z M 86.613281 72.640625 C 86.613281 73.707031 85.742188 74.578125 84.675781 74.578125 C 83.613281 74.578125 82.742188 73.707031 82.742188 72.640625 C 82.742188 71.578125 83.613281 70.707031 84.675781 70.707031 C 85.742188 70.707031 86.613281 71.578125 86.613281 72.640625 Z M 63.386719 72.640625 C 63.386719 71.578125 64.257812 70.707031 65.324219 70.707031 C 66.386719 70.707031 67.257812 71.578125 67.257812 72.640625 C 67.257812 73.707031 66.386719 74.578125 65.324219 74.578125 C 64.257812 74.578125 63.386719 73.707031 63.386719 72.640625 Z M 63.386719 72.640625 "/>
</g>
</svg>
