<?xml version="1.0" encoding="UTF-8"?>
<svg xmlns="http://www.w3.org/2000/svg" xmlns:xlink="http://www.w3.org/1999/xlink" width="269px" height="150px" viewBox="0 0 268 150" version="1.1">
<g id="surface1">
<path style=" stroke:none;fill-rule:nonzero;fill:rgb(91.37255%,32.941177%,12.54902%);fill-opacity:1;" d="M 249.222656 93.722656 C 249.226562 87.636719 248.21875 81.59375 246.234375 75.84375 C 249.550781 72.59375 252.328125 68.832031 254.457031 64.703125 C 267.625 54.519531 270.941406 35.988281 262.117188 21.855469 C 262.09375 21.546875 262.074219 21.226562 262.042969 20.914062 L 262.023438 20.726562 L 261.847656 20.460938 L 261.738281 20.382812 C 261.347656 20.109375 260.957031 19.847656 260.5625 19.585938 C 254.867188 11.957031 246.113281 7.222656 236.625 6.636719 C 223.515625 -0.480469 207.679688 -0.34375 194.695312 6.996094 C 181.710938 14.335938 173.40625 27.847656 172.710938 42.765625 C 152.980469 51.226562 139.121094 70.890625 139.121094 93.722656 C 139.105469 101.5 140.738281 109.191406 143.910156 116.289062 C 100.898438 103.578125 55.015625 104.507812 12.550781 118.945312 L 12.132812 119.089844 C 11.613281 119.269531 11.089844 119.449219 10.570312 119.632812 L 9.40625 120.046875 L 8.933594 120.214844 L 8.855469 120.246094 L 8.40625 120.433594 L 8.367188 120.433594 C 8.15625 120.527344 7.945312 120.625 7.734375 120.730469 L 7.605469 120.800781 C 7.484375 120.867188 7.359375 120.929688 7.234375 121 L 7.152344 121.050781 C 6.617188 121.355469 6.105469 121.699219 5.621094 122.082031 L 5.359375 122.292969 L 5.148438 122.46875 L 5.09375 122.519531 L 4.804688 122.777344 L 4.523438 123.046875 L 4.335938 123.242188 L 4.273438 123.308594 L 4.125 123.460938 C 3.878906 123.730469 3.636719 124.015625 3.40625 124.320312 L 3.367188 124.363281 L 3.296875 124.453125 C 3.171875 124.625 3.050781 124.792969 2.9375 124.964844 L 3.203125 125.464844 L 3.121094 125.585938 C 0.363281 129.976562 0.675781 135.632812 3.902344 139.691406 C 7.128906 143.746094 12.5625 145.316406 17.453125 143.605469 C 22.339844 141.894531 25.613281 137.273438 25.613281 132.085938 C 25.613281 129.984375 25.066406 127.917969 24.027344 126.089844 L 150.203125 126.089844 C 160.503906 140.246094 176.9375 148.617188 194.421875 148.617188 C 211.910156 148.617188 228.34375 140.246094 238.644531 126.089844 L 260.164062 126.089844 L 260.5 124.734375 C 255.132812 121.820312 249.414062 119.601562 243.484375 118.136719 C 247.261719 110.554688 249.226562 102.195312 249.222656 93.722656 Z M 243.0625 118.039062 C 239.367188 117.152344 235.609375 116.554688 231.820312 116.257812 C 229.90625 116.105469 227.953125 116.03125 226.023438 116.03125 C 223.5 116.03125 220.980469 116.164062 218.472656 116.425781 C 218.976562 109.886719 220.042969 103.398438 221.660156 97.042969 C 230.320312 100.226562 239.769531 100.554688 248.632812 97.984375 C 248.089844 104.96875 246.199219 111.777344 243.0625 118.039062 Z M 203.179688 39.960938 C 215.015625 41.902344 225.875 47.714844 234.066406 56.488281 C 229.492188 59.972656 225.273438 63.902344 221.472656 68.21875 C 210.480469 63.226562 203.226562 52.464844 202.707031 40.386719 L 203.191406 40.457031 Z M 237.222656 59.488281 C 236.414062 58.472656 235.578125 57.492188 234.703125 56.542969 C 237.761719 54.242188 240.96875 52.144531 244.300781 50.269531 C 241.789062 53.222656 239.425781 56.296875 237.222656 59.488281 Z M 236.964844 59.859375 C 236.773438 60.140625 236.578125 60.421875 236.386719 60.707031 L 236.222656 60.949219 L 235.882812 61.445312 C 235.4375 62.125 235.003906 62.800781 234.601562 63.429688 C 234.507812 63.570312 234.421875 63.714844 234.332031 63.859375 L 234.171875 64.117188 C 233.875 64.59375 233.578125 65.074219 233.289062 65.554688 C 233.117188 65.835938 232.953125 66.121094 232.78125 66.40625 C 232.511719 66.863281 232.242188 67.320312 231.980469 67.78125 L 231.855469 68.003906 C 231.742188 68.195312 231.628906 68.386719 231.515625 68.582031 C 231.101562 69.320312 230.730469 69.992188 230.382812 70.640625 L 230.316406 70.765625 C 227.40625 70.375 224.5625 69.578125 221.871094 68.398438 C 225.640625 64.132812 229.816406 60.25 234.347656 56.800781 C 235.261719 57.78125 236.136719 58.800781 236.964844 59.859375 Z M 221.585938 68.742188 C 224.304688 69.945312 227.171875 70.761719 230.109375 71.171875 C 225.917969 79.074219 222.664062 87.433594 220.410156 96.089844 C 216.070312 94.320312 212.054688 91.847656 208.515625 88.777344 C 211.414062 82.589844 215.042969 76.773438 219.324219 71.453125 C 220.058594 70.53125 220.8125 69.628906 221.585938 68.742188 Z M 220.304688 96.515625 C 218.578125 103.269531 217.46875 110.160156 216.984375 117.113281 C 211.34375 117.820312 205.804688 119.195312 200.488281 121.207031 C 200.882812 112.707031 202.542969 104.3125 205.410156 96.300781 C 206.273438 93.878906 207.246094 91.511719 208.324219 89.191406 C 211.894531 92.269531 215.941406 94.742188 220.304688 96.515625 Z M 231.640625 71.355469 C 232.628906 71.453125 233.628906 71.503906 234.640625 71.503906 C 237.632812 71.503906 240.609375 71.089844 243.488281 70.269531 C 244.335938 72.046875 245.085938 73.871094 245.738281 75.730469 C 239.9375 81.34375 232.667969 85.195312 224.769531 86.835938 C 226.675781 81.511719 228.972656 76.335938 231.640625 71.351562 Z M 234.640625 71.070312 C 233.703125 71.070312 232.777344 71.023438 231.863281 70.945312 C 232.148438 70.421875 232.449219 69.878906 232.777344 69.292969 L 233.113281 68.722656 L 233.242188 68.503906 C 233.5 68.050781 233.765625 67.601562 234.03125 67.148438 C 234.203125 66.867188 234.371094 66.585938 234.535156 66.308594 C 234.824219 65.832031 235.113281 65.359375 235.40625 64.886719 L 235.570312 64.625 L 235.828125 64.207031 C 236.226562 63.578125 236.652344 62.917969 237.097656 62.25 L 237.433594 61.765625 L 237.601562 61.515625 L 237.914062 61.058594 C 239.988281 63.824219 241.800781 66.777344 243.320312 69.882812 C 240.492188 70.675781 237.574219 71.074219 234.640625 71.066406 Z M 257.894531 38.617188 C 258.128906 40.234375 258.273438 41.859375 258.320312 43.492188 C 255.042969 44.621094 251.832031 45.949219 248.710938 47.46875 C 251.605469 44.347656 254.671875 41.394531 257.894531 38.613281 Z M 261 42.089844 C 260.558594 42.226562 260.128906 42.355469 259.714844 42.488281 C 259.621094 40.699219 259.417969 38.917969 259.105469 37.152344 L 259.085938 37.046875 L 259.046875 36.972656 C 259.753906 36.382812 260.46875 35.796875 261.191406 35.222656 C 261.191406 37.492188 261.132812 39.796875 261 42.085938 Z M 260.644531 21.378906 C 260.984375 25.199219 261.164062 29.074219 261.199219 32.914062 C 257.976562 28.605469 255.921875 23.53125 255.238281 18.191406 C 257.117188 19.117188 258.925781 20.183594 260.644531 21.378906 Z M 261.207031 33.632812 C 261.207031 33.835938 261.207031 34.039062 261.207031 34.242188 L 261.207031 34.675781 C 260.414062 35.296875 259.628906 35.9375 258.839844 36.582031 L 258.605469 36.117188 L 257.914062 36.699219 C 253.3125 40.570312 249.023438 44.796875 245.074219 49.332031 C 241.355469 51.371094 237.792969 53.679688 234.410156 56.242188 C 226.132812 47.359375 215.144531 41.484375 203.171875 39.542969 L 203.171875 39.390625 C 203.171875 39.277344 203.171875 39.164062 203.171875 39.050781 C 203.167969 35.167969 203.882812 31.316406 205.277344 27.695312 C 215.636719 16.335938 231.3125 11.472656 246.269531 14.972656 C 249.203125 15.660156 252.054688 16.664062 254.773438 17.964844 C 255.457031 23.675781 257.679688 29.089844 261.207031 33.628906 Z M 201.726562 38.796875 C 200.355469 38.613281 198.972656 38.492188 197.589844 38.410156 C 199.070312 35.1875 200.941406 32.160156 203.160156 29.398438 C 202.230469 32.445312 201.746094 35.609375 201.726562 38.796875 Z M 202.273438 40.328125 C 202.769531 52.554688 210.082031 63.46875 221.191406 68.558594 C 220.441406 69.417969 219.710938 70.292969 218.996094 71.179688 C 214.722656 76.496094 211.09375 82.300781 208.1875 88.476562 C 194.441406 76.335938 189.933594 56.773438 196.972656 39.820312 C 198.746094 39.90625 200.523438 40.070312 202.273438 40.332031 Z M 193.25 56.304688 C 193.25 68.785156 198.621094 80.660156 207.988281 88.886719 C 206.886719 91.253906 205.890625 93.675781 205.003906 96.152344 C 202.101562 104.261719 200.429688 112.761719 200.042969 121.371094 C 197.5625 122.332031 195.140625 123.429688 192.78125 124.664062 L 165.816406 124.664062 C 159.355469 121.957031 152.761719 119.558594 146.039062 117.46875 L 145.875 117.128906 C 142.355469 109.832031 140.535156 101.828125 140.558594 93.726562 C 140.558594 63.96875 164.722656 39.757812 194.421875 39.757812 C 195.121094 39.757812 195.816406 39.757812 196.511719 39.800781 C 194.355469 45.035156 193.246094 50.644531 193.25 56.304688 Z M 193.722656 124.675781 C 195.777344 123.632812 197.878906 122.695312 200.023438 121.855469 C 199.988281 122.792969 199.96875 123.734375 199.960938 124.675781 Z M 13.4375 120.320312 C 16.976562 120.316406 20.328125 121.910156 22.558594 124.664062 L 4.992188 124.664062 L 5.183594 124.453125 L 5.332031 124.296875 L 5.375 124.25 L 5.539062 124.082031 L 5.785156 123.84375 L 6.042969 123.613281 L 6.277344 123.410156 L 6.386719 123.324219 L 6.511719 123.226562 C 6.941406 122.886719 7.390625 122.582031 7.863281 122.3125 L 7.941406 122.265625 L 8.257812 122.09375 L 8.382812 122.03125 C 8.570312 121.9375 8.753906 121.847656 8.941406 121.765625 L 8.976562 121.765625 C 9.109375 121.710938 9.238281 121.65625 9.375 121.605469 L 9.441406 121.578125 C 9.582031 121.523438 9.722656 121.472656 9.878906 121.421875 C 10.265625 121.277344 10.65625 121.140625 11.046875 121.003906 C 11.679688 120.78125 12.3125 120.558594 12.941406 120.34375 C 13.101562 120.324219 13.269531 120.320312 13.4375 120.320312 Z M 23.355469 124.664062 L 23.089844 124.664062 C 20.945312 121.867188 17.691406 120.136719 14.179688 119.925781 C 56.550781 105.792969 102.257812 105.167969 145 118.136719 L 145.414062 118.273438 C 146.523438 120.492188 147.785156 122.628906 149.183594 124.675781 Z M 146.007812 118.457031 L 146.613281 118.660156 L 146.292969 118 C 152.539062 119.941406 158.671875 122.164062 164.695312 124.664062 L 149.710938 124.664062 C 148.339844 122.679688 147.105469 120.605469 146.007812 118.457031 Z M 190.148438 126.101562 C 187.109375 127.851562 184.207031 129.820312 181.453125 131.992188 C 177.417969 129.894531 173.316406 127.933594 169.148438 126.101562 Z M 200.394531 124.664062 C 200.394531 123.648438 200.417969 122.667969 200.464844 121.671875 C 205.777344 119.640625 211.3125 118.257812 216.953125 117.546875 L 216.914062 118.050781 L 217.433594 117.988281 C 217.289062 120.210938 217.210938 122.433594 217.195312 124.664062 Z M 231.769531 124.664062 L 217.628906 124.664062 C 217.640625 122.417969 217.722656 120.179688 217.867188 117.941406 C 220.574219 117.628906 223.296875 117.472656 226.023438 117.46875 C 227.914062 117.46875 229.828125 117.542969 231.707031 117.691406 C 235.300781 117.976562 238.867188 118.535156 242.375 119.359375 C 241.394531 121.1875 240.316406 122.957031 239.136719 124.664062 Z M 242.804688 119.460938 C 247.777344 120.664062 252.605469 122.410156 257.199219 124.664062 L 239.65625 124.664062 C 240.800781 122.988281 241.851562 121.253906 242.804688 119.460938 Z M 248.792969 93.722656 C 248.792969 95 248.742188 96.265625 248.65625 97.527344 C 239.828125 100.117188 230.398438 99.800781 221.761719 96.617188 C 222.574219 93.476562 223.519531 90.375 224.597656 87.3125 C 232.601562 85.695312 239.984375 81.832031 245.878906 76.171875 C 247.808594 81.820312 248.792969 87.75 248.792969 93.722656 Z M 246.089844 75.394531 C 245.453125 73.609375 244.722656 71.855469 243.902344 70.144531 C 247.402344 69.09375 250.695312 67.460938 253.648438 65.308594 C 251.632812 69.023438 249.082031 72.421875 246.074219 75.394531 Z M 254.128906 64.417969 C 251.019531 66.820312 247.492188 68.628906 243.726562 69.75 C 242.171875 66.550781 240.304688 63.511719 238.160156 60.679688 C 241.128906 56.351562 244.386719 52.230469 247.917969 48.347656 C 251.292969 46.652344 254.777344 45.183594 258.347656 43.949219 L 258.347656 44.460938 L 258.839844 44.292969 C 258.839844 44.460938 258.839844 44.632812 258.839844 44.792969 C 258.847656 51.617188 257.226562 58.347656 254.117188 64.417969 Z M 254.929688 63.78125 C 257.804688 57.863281 259.292969 51.371094 259.289062 44.789062 C 259.289062 44.578125 259.289062 44.363281 259.289062 44.148438 C 260.109375 43.875 260.976562 43.601562 261.914062 43.320312 L 262.398438 43.175781 L 262.425781 42.671875 L 262.425781 42.644531 C 263.777344 42.25 265.148438 41.886719 266.53125 41.558594 C 265.839844 50.242188 261.644531 58.265625 254.917969 63.78125 Z M 266.558594 41.105469 C 265.175781 41.445312 263.804688 41.78125 262.441406 42.1875 C 262.566406 39.898438 262.640625 37.605469 262.65625 35.335938 C 263.871094 36.695312 265.199219 37.949219 266.625 39.085938 C 266.609375 39.769531 266.585938 40.4375 266.539062 41.109375 Z M 266.617188 38.527344 C 265.191406 37.367188 263.867188 36.085938 262.664062 34.695312 L 262.664062 34.242188 C 262.664062 34.195312 262.664062 34.144531 262.664062 34.097656 C 263.691406 33.308594 264.734375 32.53125 265.792969 31.773438 C 266.304688 33.988281 266.574219 36.253906 266.605469 38.527344 Z M 265.6875 31.316406 C 264.671875 32.042969 263.660156 32.792969 262.644531 33.558594 C 262.628906 29.984375 262.476562 26.382812 262.199219 22.8125 C 263.761719 25.464844 264.933594 28.328125 265.671875 31.320312 Z M 259.476562 18.894531 C 258.054688 18.019531 256.582031 17.230469 255.070312 16.527344 C 255.015625 15.804688 254.976562 15.078125 254.96875 14.347656 C 256.621094 15.710938 258.128906 17.234375 259.476562 18.894531 Z M 254.535156 13.980469 L 254.535156 14.089844 C 254.535156 14.832031 254.570312 15.570312 254.617188 16.300781 C 252.042969 15.136719 249.359375 14.21875 246.605469 13.570312 C 246.367188 13.515625 246.121094 13.464844 245.878906 13.414062 C 243.355469 10.992188 240.550781 8.886719 237.527344 7.136719 C 243.742188 7.695312 249.660156 10.074219 254.535156 13.980469 Z M 245.058594 13.257812 C 230.914062 10.457031 216.296875 14.808594 205.972656 24.894531 C 211.359375 13.960938 222.46875 7.03125 234.640625 7.019531 C 235.265625 7.019531 235.886719 7.039062 236.503906 7.074219 C 239.597656 8.773438 242.46875 10.851562 245.058594 13.257812 Z M 186.09375 13.980469 C 199.308594 1.128906 219.234375 -1.84375 235.617188 6.589844 C 235.277344 6.589844 234.96875 6.589844 234.640625 6.589844 C 221.867188 6.589844 210.285156 14.101562 205.054688 25.78125 C 204.734375 26.117188 204.414062 26.457031 204.101562 26.792969 L 204.011719 26.894531 L 203.964844 27.019531 C 203.800781 27.433594 203.648438 27.855469 203.503906 28.277344 C 200.921875 31.332031 198.773438 34.730469 197.121094 38.375 C 196.21875 38.328125 195.316406 38.300781 194.417969 38.300781 C 187.109375 38.289062 179.875 39.738281 173.132812 42.5625 C 173.671875 31.734375 178.304688 21.511719 186.09375 13.980469 Z M 25.195312 132.101562 C 25.203125 137.101562 22.066406 141.558594 17.367188 143.230469 C 12.664062 144.898438 7.421875 143.414062 4.289062 139.527344 C 1.15625 135.636719 0.816406 130.191406 3.4375 125.941406 L 3.523438 126.105469 L 23.542969 126.105469 C 24.621094 127.917969 25.195312 129.988281 25.195312 132.101562 Z M 150.742188 126.105469 L 168.078125 126.105469 C 172.480469 128.019531 176.816406 130.082031 181.085938 132.289062 C 177.234375 135.378906 173.707031 138.851562 170.558594 142.660156 C 162.730469 138.800781 155.933594 133.125 150.742188 126.101562 Z M 194.421875 148.195312 C 186.300781 148.207031 178.277344 146.378906 170.957031 142.855469 C 174.109375 139.054688 177.644531 135.585938 181.507812 132.507812 C 189.8125 136.832031 197.824219 141.695312 205.492188 147.0625 C 201.851562 147.820312 198.140625 148.199219 194.421875 148.195312 Z M 206.066406 146.949219 C 198.339844 141.515625 190.257812 136.597656 181.882812 132.226562 C 184.769531 129.964844 187.828125 127.929688 191.027344 126.136719 L 217.207031 126.136719 C 217.238281 131.648438 217.660156 137.148438 218.46875 142.601562 C 214.527344 144.550781 210.363281 146.011719 206.066406 146.949219 Z M 218.878906 142.382812 C 218.085938 137.003906 217.671875 131.574219 217.636719 126.136719 L 238.117188 126.136719 C 233.042969 132.96875 226.453125 138.527344 218.867188 142.367188 Z M 218.878906 142.382812 "/>
<path style=" stroke:none;fill-rule:nonzero;fill:rgb(91.37255%,32.941177%,12.54902%);fill-opacity:1;" d="M 237.515625 21.042969 C 235.53125 21.042969 233.925781 22.652344 233.925781 24.640625 C 233.925781 26.625 235.53125 28.238281 237.515625 28.238281 C 239.5 28.238281 241.105469 26.625 241.105469 24.640625 C 241.105469 22.652344 239.496094 21.042969 237.515625 21.042969 Z M 237.515625 26.792969 C 236.324219 26.792969 235.359375 25.828125 235.359375 24.632812 C 235.359375 23.441406 236.328125 22.476562 237.519531 22.476562 C 238.707031 22.476562 239.671875 23.445312 239.671875 24.640625 C 239.667969 25.832031 238.703125 26.792969 237.515625 26.792969 Z M 237.515625 26.792969 "/>
</g>
</svg>
