<?xml version="1.0" encoding="UTF-8"?>
<svg xmlns="http://www.w3.org/2000/svg" xmlns:xlink="http://www.w3.org/1999/xlink" width="150px" height="150px" viewBox="0 0 150 150" version="1.1">
<g id="surface1">
<path style=" stroke:none;fill-rule:nonzero;fill:rgb(91.37255%,32.941177%,12.54902%);fill-opacity:1;" d="M 111.886719 101.105469 C 117.140625 93.71875 120.226562 84.683594 120.226562 74.929688 C 120.226562 57.722656 110.617188 42.757812 96.472656 35.113281 L 97.585938 43.660156 C 98.171875 48.167969 96.789062 52.710938 93.792969 56.128906 C 90.792969 59.542969 86.464844 61.503906 81.917969 61.503906 L 75.492188 61.503906 L 75.492188 64.101562 C 77.972656 64.71875 80.3125 65.863281 82.277344 67.429688 L 81.664062 68.199219 C 79.714844 66.640625 77.371094 65.527344 74.894531 64.972656 C 74.667969 64.921875 74.507812 64.722656 74.507812 64.492188 L 74.507812 61.503906 L 49.640625 61.503906 L 57.738281 51.09375 L 53.132812 45.335938 C 52.804688 44.925781 52.742188 44.375 52.96875 43.898438 C 53.199219 43.421875 53.667969 43.125 54.195312 43.125 L 63.9375 43.125 L 74.246094 29.707031 C 49.617188 30.109375 29.773438 50.203125 29.773438 74.929688 C 29.773438 77.8125 30.042969 80.632812 30.558594 83.367188 C 33.035156 83.433594 35.0625 84.21875 36.863281 84.914062 C 38.519531 85.558594 40.089844 86.164062 41.804688 86.164062 C 43.378906 86.164062 44.785156 85.878906 45.980469 85.316406 C 48.007812 84.355469 49.488281 82.203125 49.574219 80.082031 C 49.636719 78.636719 49.035156 77.347656 47.929688 76.550781 C 46.808594 75.742188 45.371094 75.582031 43.992188 76.105469 C 42.742188 76.585938 41.765625 77.695312 41.507812 78.933594 C 41.179688 80.523438 42.042969 81.773438 42.828125 82.539062 L 42.140625 83.242188 C 40.785156 81.914062 40.21875 80.3125 40.546875 78.734375 C 40.875 77.152344 42.0625 75.792969 43.644531 75.191406 C 45.335938 74.542969 47.109375 74.75 48.503906 75.753906 C 49.882812 76.75 50.632812 78.339844 50.558594 80.121094 C 50.453125 82.59375 48.742188 85.09375 46.398438 86.203125 C 45.074219 86.828125 43.527344 87.148438 41.804688 87.148438 C 39.90625 87.148438 38.253906 86.507812 36.507812 85.832031 C 34.761719 85.152344 32.957031 84.457031 30.757812 84.355469 C 31.050781 85.738281 31.40625 87.097656 31.820312 88.429688 C 32.332031 88.433594 32.789062 88.433594 33.136719 88.433594 C 38.476562 88.433594 42.046875 89.480469 44.367188 91.726562 C 44.542969 91.898438 44.714844 92.070312 44.890625 92.246094 C 45.472656 92.832031 46.027344 93.386719 46.679688 93.808594 C 48.78125 95.167969 50.242188 94.738281 50.769531 94.488281 C 51.324219 94.226562 51.753906 93.785156 51.914062 93.300781 C 52.046875 92.917969 52.007812 92.53125 51.808594 92.144531 C 51.601562 91.753906 51.25 91.46875 50.816406 91.332031 C 50.355469 91.191406 49.851562 91.242188 49.429688 91.464844 L 48.96875 90.597656 C 49.617188 90.25 50.398438 90.175781 51.105469 90.394531 C 51.792969 90.605469 52.347656 91.066406 52.675781 91.6875 C 53.003906 92.3125 53.0625 92.976562 52.847656 93.617188 C 52.597656 94.355469 51.992188 95 51.1875 95.375 C 50.671875 95.621094 50.101562 95.738281 49.5 95.738281 C 48.4375 95.738281 47.277344 95.363281 46.148438 94.632812 C 45.40625 94.152344 44.789062 93.535156 44.195312 92.9375 C 44.023438 92.769531 43.855469 92.601562 43.683594 92.433594 C 41.558594 90.375 38.207031 89.414062 33.136719 89.414062 C 32.863281 89.414062 32.519531 89.414062 32.140625 89.414062 C 32.351562 90.039062 32.578125 90.660156 32.816406 91.269531 C 36.472656 91.730469 37.761719 92.585938 39.289062 93.597656 C 40.101562 94.136719 40.941406 94.695312 42.277344 95.257812 C 47.890625 97.628906 54.050781 98.464844 60.09375 97.683594 C 66.671875 96.835938 71.566406 94.535156 74.648438 90.847656 C 76.242188 88.941406 77.023438 86.550781 76.742188 84.453125 C 76.523438 82.84375 75.675781 81.484375 74.289062 80.527344 L 74.847656 79.71875 C 76.46875 80.839844 77.457031 82.429688 77.714844 84.320312 C 78.035156 86.6875 77.171875 89.363281 75.402344 91.476562 C 72.15625 95.359375 67.050781 97.777344 60.21875 98.660156 C 58.710938 98.855469 57.195312 98.949219 55.683594 98.949219 C 50.960938 98.949219 46.265625 98.007812 41.894531 96.164062 C 40.476562 95.5625 39.554688 94.953125 38.746094 94.417969 C 37.40625 93.53125 36.261719 92.769531 33.238281 92.320312 C 33.539062 93.046875 33.859375 93.765625 34.199219 94.472656 C 36.425781 95.296875 38.3125 96.757812 41.15625 99.09375 C 45.886719 102.972656 49.378906 104.414062 54.042969 104.414062 L 54.042969 105.394531 C 48.425781 105.394531 44.707031 103.273438 40.535156 99.851562 C 38.207031 97.945312 36.574219 96.65625 34.882812 95.832031 C 36.847656 99.597656 39.328125 103.050781 42.230469 106.101562 C 45.242188 106.820312 48.664062 107.257812 51.757812 106.742188 C 58.492188 105.617188 62 104.378906 64.5625 103.472656 C 67.144531 102.5625 69.007812 101.90625 72.390625 101.90625 C 75.027344 101.90625 77.164062 102.734375 79.046875 103.460938 C 80.707031 104.105469 82.273438 104.710938 83.988281 104.710938 C 85.566406 104.710938 86.96875 104.425781 88.164062 103.863281 C 90.191406 102.902344 91.671875 100.75 91.761719 98.628906 C 91.820312 97.183594 91.222656 95.894531 90.113281 95.097656 C 88.992188 94.289062 87.558594 94.128906 86.179688 94.652344 C 84.925781 95.132812 83.949219 96.242188 83.695312 97.480469 C 83.511719 98.359375 83.59375 99.695312 85.015625 101.085938 L 84.328125 101.789062 C 82.972656 100.460938 82.40625 98.859375 82.734375 97.28125 C 83.0625 95.699219 84.246094 94.339844 85.828125 93.738281 C 87.523438 93.089844 89.292969 93.296875 90.6875 94.300781 C 92.070312 95.292969 92.816406 96.886719 92.742188 98.667969 C 92.640625 101.140625 90.929688 103.640625 88.582031 104.75 C 87.257812 105.375 85.710938 105.695312 83.988281 105.695312 C 82.089844 105.695312 80.441406 105.054688 78.691406 104.378906 C 76.800781 103.644531 74.84375 102.886719 72.390625 102.886719 C 69.175781 102.886719 67.46875 103.488281 64.890625 104.398438 C 62.292969 105.316406 58.738281 106.570312 51.917969 107.710938 C 50.925781 107.875 49.902344 107.949219 48.878906 107.949219 C 47.046875 107.949219 45.203125 107.71875 43.503906 107.386719 C 45.46875 109.296875 47.609375 111.027344 49.898438 112.554688 C 52.171875 112.773438 54.417969 112.753906 56.625 112.5 C 59.125 112.210938 61.964844 111.882812 65.445312 110.453125 C 66.46875 110.03125 67.273438 109.628906 67.980469 109.269531 C 69.3125 108.601562 70.363281 108.070312 71.953125 107.890625 C 74.496094 107.601562 77.152344 108.347656 79.847656 110.105469 L 79.308594 110.929688 C 76.8125 109.296875 74.375 108.601562 72.0625 108.867188 C 70.648438 109.027344 69.714844 109.496094 68.421875 110.148438 C 67.699219 110.511719 66.875 110.925781 65.816406 111.363281 C 62.210938 112.84375 59.175781 113.195312 56.738281 113.476562 C 55.507812 113.617188 54.265625 113.6875 53.015625 113.6875 C 52.554688 113.6875 52.09375 113.679688 51.632812 113.660156 C 52.75 114.335938 53.902344 114.964844 55.082031 115.542969 C 55.871094 115.597656 56.566406 115.628906 57.066406 115.621094 C 58.800781 115.601562 60.574219 115.429688 62.195312 115.125 C 64.683594 114.660156 66.617188 113.953125 67.441406 113.652344 C 68.320312 113.332031 68.777344 113.125 69.148438 112.960938 C 69.585938 112.765625 69.90625 112.621094 70.597656 112.4375 C 71.332031 112.242188 73.273438 111.726562 75.75 112.074219 C 77.507812 112.316406 79.171875 112.9375 80.695312 113.910156 L 80.164062 114.738281 C 78.761719 113.839844 77.230469 113.269531 75.617188 113.042969 C 73.335938 112.726562 71.53125 113.207031 70.851562 113.386719 C 70.234375 113.550781 69.976562 113.667969 69.546875 113.859375 C 69.164062 114.027344 68.6875 114.242188 67.777344 114.574219 C 66.929688 114.882812 64.945312 115.609375 62.378906 116.089844 C 60.796875 116.386719 59.074219 116.558594 57.378906 116.597656 C 59.179688 117.359375 61.035156 118.003906 62.945312 118.53125 C 64.886719 118.113281 66.851562 117.773438 68.816406 117.515625 C 73.710938 116.878906 77.492188 116.902344 79.75 116.917969 C 83.625 116.941406 87.03125 117.160156 90.082031 117.582031 C 94.535156 116.007812 98.667969 113.753906 102.359375 110.945312 C 102.171875 110.90625 102.015625 110.875 101.925781 110.859375 C 98.550781 110.398438 96.464844 111.199219 94.941406 111.78125 C 94.574219 111.921875 94.226562 112.054688 93.90625 112.152344 C 91.730469 112.8125 89.714844 113.140625 87.703125 113.140625 C 86.328125 113.140625 84.949219 112.984375 83.519531 112.683594 L 83.726562 111.722656 C 87.070312 112.433594 90.121094 112.273438 93.621094 111.214844 C 93.910156 111.125 94.226562 111.003906 94.589844 110.867188 C 96.121094 110.277344 98.433594 109.390625 102.058594 109.886719 C 102.296875 109.921875 102.789062 110.03125 103.351562 110.167969 C 104.476562 109.265625 105.554688 108.308594 106.585938 107.300781 C 104.085938 106.730469 100.628906 106.648438 99.085938 106.929688 C 97.832031 107.160156 96.582031 107.566406 95.375 107.960938 C 94.5 108.246094 93.59375 108.542969 92.679688 108.773438 C 90.097656 109.429688 87.335938 109.589844 84.6875 109.238281 C 82.640625 108.96875 81.0625 108.261719 79.535156 107.578125 C 77.605469 106.710938 75.78125 105.894531 73.046875 105.894531 C 69.789062 105.894531 68.382812 106.660156 66.757812 107.542969 C 64.65625 108.6875 62.273438 109.980469 55.597656 109.980469 L 55.597656 109 C 62.023438 109 64.289062 107.765625 66.289062 106.679688 C 67.960938 105.773438 69.539062 104.914062 73.046875 104.914062 C 75.992188 104.914062 77.996094 105.8125 79.9375 106.679688 C 81.46875 107.367188 82.914062 108.011719 84.816406 108.265625 C 87.339844 108.597656 89.976562 108.445312 92.4375 107.820312 C 93.320312 107.597656 94.210938 107.308594 95.070312 107.027344 C 96.308594 106.625 97.589844 106.207031 98.910156 105.964844 C 100.699219 105.636719 104.710938 105.753906 107.390625 106.492188 C 108.789062 105.0625 110.089844 103.539062 111.285156 101.933594 C 106.226562 100.175781 98.578125 101.863281 95.046875 103.988281 L 94.539062 103.148438 C 96.621094 101.894531 99.789062 100.890625 103.011719 100.457031 C 106.425781 99.996094 109.546875 100.230469 111.886719 101.105469 Z M 45.507812 78.695312 C 46.082031 78.695312 46.550781 79.164062 46.550781 79.738281 C 46.550781 80.316406 46.082031 80.78125 45.507812 80.78125 C 44.933594 80.78125 44.464844 80.316406 44.464844 79.738281 C 44.464844 79.164062 44.933594 78.695312 45.507812 78.695312 Z M 77.390625 99.910156 C 76.078125 99.535156 74.738281 99.328125 73.40625 99.292969 C 70.320312 99.203125 68.007812 100.042969 66.625 100.542969 C 66.511719 100.582031 66.40625 100.621094 66.304688 100.65625 C 63.296875 101.726562 59.871094 102.265625 56.105469 102.265625 C 55.386719 102.265625 54.65625 102.246094 53.914062 102.207031 L 53.964844 101.226562 C 58.472656 101.460938 62.515625 100.960938 65.976562 99.730469 C 66.074219 99.695312 66.179688 99.660156 66.292969 99.617188 C 67.644531 99.128906 70.164062 98.214844 73.429688 98.308594 C 74.847656 98.347656 76.269531 98.570312 77.660156 98.96875 Z M 86.835938 96.691406 C 87.492188 96.367188 88.53125 96.214844 89.292969 96.859375 L 88.65625 97.609375 C 88.285156 97.292969 87.691406 97.363281 87.269531 97.570312 C 87.261719 97.578125 86.558594 97.945312 86.84375 98.65625 L 85.929688 99.019531 C 85.476562 97.871094 86.242188 96.984375 86.835938 96.691406 Z M 80.429688 101.367188 C 79.851562 101.367188 79.386719 100.902344 79.386719 100.324219 C 79.386719 99.75 79.851562 99.28125 80.429688 99.28125 C 81.007812 99.28125 81.472656 99.75 81.472656 100.324219 C 81.472656 100.902344 81.007812 101.367188 80.429688 101.367188 Z M 86.460938 78.96875 C 86.988281 81.90625 86.609375 85.046875 85.234375 87.878906 C 83.890625 90.632812 81.710938 93.238281 78.75 95.625 L 78.136719 94.859375 C 80.980469 92.566406 83.074219 90.074219 84.351562 87.449219 C 86.859375 82.289062 85.828125 76.03125 81.847656 72.234375 C 77.746094 68.328125 71.671875 66.703125 66.367188 68.101562 C 61.597656 69.355469 56.296875 72.9375 55.726562 79.238281 C 55.5 81.746094 56.445312 84.496094 58.195312 86.410156 C 59.359375 87.6875 61.4375 89.207031 64.71875 89.207031 C 68.425781 89.207031 71.050781 86.734375 71.730469 84.292969 C 72.277344 82.328125 71.574219 80.582031 69.796875 79.511719 C 69.039062 79.054688 67.902344 79.105469 67.09375 79.636719 C 66.738281 79.871094 66.15625 80.40625 66.28125 81.339844 L 65.308594 81.46875 C 65.164062 80.398438 65.617188 79.429688 66.554688 78.816406 C 67.679688 78.078125 69.222656 78.019531 70.304688 78.671875 C 72.457031 79.96875 73.34375 82.167969 72.675781 84.558594 C 71.898438 87.355469 68.914062 90.1875 64.71875 90.1875 C 61.078125 90.1875 58.769531 88.496094 57.46875 87.074219 C 55.539062 84.960938 54.496094 81.925781 54.75 79.148438 C 55.265625 73.457031 59.621094 68.859375 66.117188 67.148438 C 71.742188 65.671875 78.183594 67.386719 82.523438 71.523438 C 83.703125 72.648438 84.640625 73.976562 85.328125 75.421875 L 85.359375 75.402344 C 87.125 78.601562 89.21875 81.089844 91.585938 82.804688 C 96.246094 86.171875 102.601562 86.257812 107.046875 83.007812 C 111.621094 79.664062 114.285156 73.984375 113.835938 68.53125 C 113.433594 63.628906 110.820312 57.796875 104.703125 56.132812 C 102.257812 55.46875 99.371094 55.921875 97.167969 57.316406 C 95.714844 58.238281 93.859375 60.007812 93.289062 63.21875 C 92.640625 66.847656 94.613281 69.859375 96.894531 70.957031 C 98.746094 71.851562 100.597656 71.464844 101.972656 69.902344 C 102.554688 69.242188 102.703125 68.121094 102.324219 67.238281 C 102.15625 66.84375 101.730469 66.171875 100.78125 66.132812 L 100.824219 65.152344 C 101.910156 65.195312 102.785156 65.816406 103.230469 66.851562 C 103.753906 68.085938 103.542969 69.605469 102.710938 70.550781 C 101.046875 72.441406 98.714844 72.925781 96.46875 71.84375 C 93.855469 70.582031 91.589844 67.15625 92.320312 63.046875 C 92.957031 59.484375 95.023438 57.511719 96.644531 56.488281 C 99.070312 54.949219 102.257812 54.453125 104.960938 55.1875 C 110.488281 56.6875 114.265625 61.773438 114.816406 68.453125 C 115.292969 74.234375 112.46875 80.261719 107.625 83.800781 C 105.28125 85.515625 102.445312 86.367188 99.574219 86.367188 C 96.585938 86.367188 93.5625 85.441406 91.011719 83.597656 C 89.359375 82.402344 87.835938 80.851562 86.460938 78.96875 Z M 67.179688 83.316406 C 67.179688 82.738281 67.648438 82.273438 68.226562 82.273438 C 68.800781 82.273438 69.269531 82.738281 69.269531 83.316406 C 69.269531 83.890625 68.800781 84.359375 68.226562 84.359375 C 67.648438 84.359375 67.179688 83.890625 67.179688 83.316406 Z M 114.941406 80.105469 C 113.9375 82.425781 112.503906 84.464844 110.671875 86.171875 C 109.859375 86.929688 107.707031 88.9375 104.234375 90.019531 C 102.699219 90.496094 101.078125 90.738281 99.457031 90.738281 C 98.769531 90.738281 98.082031 90.695312 97.398438 90.605469 L 97.523438 89.632812 C 99.667969 89.910156 101.886719 89.71875 103.941406 89.082031 C 107.199219 88.066406 109.164062 86.234375 110 85.453125 C 111.734375 83.839844 113.089844 81.910156 114.039062 79.714844 Z M 91.863281 92.890625 C 91.285156 92.890625 90.816406 92.421875 90.816406 91.84375 C 90.816406 91.269531 91.285156 90.800781 91.863281 90.800781 C 92.4375 90.800781 92.90625 91.269531 92.90625 91.84375 C 92.90625 92.421875 92.4375 92.890625 91.863281 92.890625 Z M 92.519531 105.511719 C 91.945312 105.511719 91.476562 105.042969 91.476562 104.46875 C 91.476562 103.890625 91.945312 103.425781 92.519531 103.425781 C 93.097656 103.425781 93.5625 103.890625 93.5625 104.46875 C 93.5625 105.042969 93.097656 105.511719 92.519531 105.511719 Z M 94.328125 95.296875 L 94.824219 94.449219 C 96.742188 95.574219 98.804688 96.273438 100.945312 96.535156 C 103.167969 96.808594 107.792969 97.371094 111.320312 93.96875 C 113.894531 91.484375 114.363281 88.183594 114.410156 86.441406 L 115.390625 86.46875 C 115.339844 88.363281 114.828125 91.949219 112 94.675781 C 109.398438 97.1875 106.304688 97.734375 103.839844 97.734375 C 102.644531 97.734375 101.601562 97.605469 100.828125 97.511719 C 98.550781 97.234375 96.363281 96.488281 94.328125 95.296875 Z M 94.328125 95.296875 "/>
<path style=" stroke:none;fill-rule:nonzero;fill:rgb(91.37255%,32.941177%,12.54902%);fill-opacity:1;" d="M 68.945312 118.492188 C 67.683594 118.65625 66.421875 118.851562 65.167969 119.085938 C 68.335938 119.785156 71.625 120.15625 75 120.15625 C 79.464844 120.15625 83.78125 119.507812 87.855469 118.304688 C 85.398438 118.050781 82.714844 117.917969 79.746094 117.898438 C 77.511719 117.882812 73.773438 117.859375 68.945312 118.492188 Z M 68.945312 118.492188 "/>
<path style=" stroke:none;fill-rule:nonzero;fill:rgb(91.37255%,32.941177%,12.54902%);fill-opacity:1;" d="M 102.964844 19.871094 C 103.0625 20.4375 103.128906 21.03125 103.164062 21.699219 L 108.96875 20.46875 C 106.300781 14.363281 101.085938 9.816406 94.859375 7.910156 C 94.460938 7.921875 94.066406 7.9375 93.675781 7.957031 C 98.535156 10.132812 102.023438 14.546875 102.964844 19.871094 Z M 102.964844 19.871094 "/>
<path style=" stroke:none;fill-rule:nonzero;fill:rgb(91.37255%,32.941177%,12.54902%);fill-opacity:1;" d="M 88.046875 20.132812 C 89.96875 20.132812 91.527344 18.574219 91.527344 16.652344 C 91.527344 14.734375 89.96875 13.175781 88.046875 13.175781 C 86.125 13.175781 84.566406 14.734375 84.566406 16.652344 C 84.566406 18.574219 86.125 20.132812 88.046875 20.132812 Z M 87.65625 18.226562 C 87.128906 18.113281 86.703125 17.753906 86.5 17.257812 C 86.640625 17.28125 86.789062 17.265625 86.921875 17.203125 C 87.089844 17.527344 87.386719 17.753906 87.742188 17.832031 C 87.78125 17.839844 87.824219 17.847656 87.863281 17.851562 C 87.867188 18 87.917969 18.144531 88.007812 18.265625 C 87.890625 18.265625 87.773438 18.253906 87.65625 18.226562 Z M 88.574219 18.328125 C 88.300781 18.328125 88.082031 18.105469 88.082031 17.832031 C 88.082031 17.558594 88.300781 17.339844 88.574219 17.339844 C 88.847656 17.339844 89.070312 17.558594 89.070312 17.832031 C 89.070312 18.105469 88.847656 18.328125 88.574219 18.328125 Z M 89.578125 16.984375 C 89.523438 17.230469 89.417969 17.457031 89.261719 17.652344 C 89.222656 17.507812 89.140625 17.378906 89.027344 17.285156 C 89.097656 17.164062 89.152344 17.039062 89.179688 16.902344 C 89.238281 16.621094 89.199219 16.332031 89.066406 16.078125 C 89.191406 16.003906 89.285156 15.886719 89.34375 15.753906 C 89.582031 16.117188 89.667969 16.5625 89.578125 16.984375 Z M 88.6875 14.980469 C 88.960938 14.980469 89.179688 15.203125 89.179688 15.476562 C 89.179688 15.746094 88.960938 15.96875 88.6875 15.96875 C 88.414062 15.96875 88.191406 15.746094 88.191406 15.476562 C 88.191406 15.203125 88.414062 14.980469 88.6875 14.980469 Z M 88.121094 15.035156 C 88.054688 15.121094 88.011719 15.21875 87.988281 15.324219 C 87.980469 15.363281 87.972656 15.398438 87.972656 15.4375 C 87.582031 15.441406 87.222656 15.636719 87 15.957031 C 86.933594 15.914062 86.855469 15.882812 86.777344 15.863281 C 86.726562 15.855469 86.675781 15.847656 86.625 15.847656 C 86.613281 15.847656 86.601562 15.847656 86.589844 15.851562 C 86.898438 15.308594 87.5 14.984375 88.121094 15.035156 Z M 86.628906 16.0625 C 86.898438 16.0625 87.121094 16.285156 87.121094 16.558594 C 87.121094 16.832031 86.898438 17.054688 86.628906 17.054688 C 86.355469 17.054688 86.132812 16.832031 86.132812 16.558594 C 86.132812 16.285156 86.355469 16.0625 86.628906 16.0625 Z M 86.628906 16.0625 "/>
<path style=" stroke:none;fill-rule:nonzero;fill:rgb(91.37255%,32.941177%,12.54902%);fill-opacity:1;" d="M 54.195312 44.109375 C 53.980469 44.109375 53.886719 44.257812 53.855469 44.324219 C 53.824219 44.386719 53.765625 44.554688 53.898438 44.722656 L 58.988281 51.085938 L 51.648438 60.523438 L 81.917969 60.523438 C 86.183594 60.523438 90.242188 58.683594 93.054688 55.480469 C 95.867188 52.277344 97.164062 48.015625 96.613281 43.789062 L 94.253906 25.714844 L 94.402344 25.546875 C 94.976562 24.902344 95.476562 24.167969 95.894531 23.367188 L 96.003906 23.164062 L 102.1875 21.851562 C 102.15625 21.179688 102.09375 20.597656 101.996094 20.042969 C 101.011719 14.453125 97.039062 9.933594 91.613281 8.222656 C 91.578125 8.226562 91.539062 8.230469 91.503906 8.234375 C 91.421875 8.242188 91.347656 8.25 91.273438 8.261719 C 91.132812 8.289062 90.992188 8.320312 90.839844 8.351562 C 90.777344 8.367188 90.714844 8.382812 90.648438 8.394531 L 90.503906 8.429688 L 90.363281 8.371094 C 89.0625 7.84375 87.699219 7.578125 86.308594 7.578125 C 80.34375 7.578125 75.492188 12.429688 75.492188 18.394531 L 75.492188 29.703125 L 64.417969 44.109375 Z M 86.308594 9.695312 C 91.109375 9.695312 95.003906 13.589844 95.003906 18.394531 C 95.003906 23.195312 91.109375 27.089844 86.308594 27.089844 C 81.503906 27.089844 77.609375 23.195312 77.609375 18.394531 C 77.609375 13.589844 81.503906 9.695312 86.308594 9.695312 Z M 78.207031 38.398438 L 78.207031 29.828125 C 83.484375 30.195312 88.507812 31.46875 93.132812 33.492188 L 94.511719 44.0625 C 94.984375 47.683594 93.871094 51.335938 91.460938 54.082031 C 89.050781 56.828125 85.574219 58.402344 81.917969 58.402344 L 55.980469 58.402344 L 60.714844 52.316406 L 64.292969 52.316406 C 71.976562 52.316406 78.207031 46.085938 78.207031 38.398438 Z M 78.207031 38.398438 "/>
</g>
</svg>
