<?xml version="1.0" encoding="UTF-8"?>
<svg xmlns="http://www.w3.org/2000/svg" xmlns:xlink="http://www.w3.org/1999/xlink" width="193px" height="150px" viewBox="0 0 193 150" version="1.1">
<g id="surface1">
<path style=" stroke:none;fill-rule:nonzero;fill:rgb(91.37255%,32.941177%,12.54902%);fill-opacity:1;" d="M 66.980469 56.488281 C 67 56.65625 67.144531 56.78125 67.3125 56.78125 C 67.332031 56.78125 67.351562 56.773438 67.371094 56.773438 C 67.460938 56.757812 67.539062 56.707031 67.589844 56.632812 C 67.640625 56.558594 67.660156 56.46875 67.644531 56.378906 C 67.609375 56.195312 67.4375 56.070312 67.25 56.09375 C 67.070312 56.128906 66.949219 56.304688 66.980469 56.488281 Z M 66.980469 56.488281 "/>
<path style=" stroke:none;fill-rule:nonzero;fill:rgb(91.37255%,32.941177%,12.54902%);fill-opacity:1;" d="M 86.234375 53.507812 C 86.25 53.507812 86.265625 53.507812 86.285156 53.507812 C 86.375 53.496094 86.460938 53.445312 86.511719 53.367188 C 86.566406 53.292969 86.585938 53.195312 86.566406 53.105469 C 86.535156 52.917969 86.359375 52.792969 86.171875 52.820312 C 86 52.859375 85.882812 53.015625 85.898438 53.191406 C 85.914062 53.367188 86.058594 53.503906 86.234375 53.507812 Z M 86.234375 53.507812 "/>
<path style=" stroke:none;fill-rule:nonzero;fill:rgb(91.37255%,32.941177%,12.54902%);fill-opacity:1;" d="M 64.269531 56.949219 C 64.300781 57.113281 64.4375 57.234375 64.605469 57.242188 C 64.625 57.242188 64.644531 57.242188 64.664062 57.230469 C 64.847656 57.195312 64.96875 57.023438 64.9375 56.835938 C 64.921875 56.746094 64.871094 56.664062 64.796875 56.613281 C 64.71875 56.558594 64.625 56.539062 64.535156 56.554688 C 64.355469 56.59375 64.238281 56.769531 64.269531 56.949219 Z M 64.269531 56.949219 "/>
<path style=" stroke:none;fill-rule:nonzero;fill:rgb(91.37255%,32.941177%,12.54902%);fill-opacity:1;" d="M 53.460938 58.8125 C 53.480469 58.980469 53.625 59.109375 53.796875 59.105469 C 53.816406 59.105469 53.835938 59.101562 53.855469 59.09375 C 54.039062 59.058594 54.160156 58.882812 54.128906 58.699219 C 54.113281 58.609375 54.0625 58.527344 53.984375 58.472656 C 53.910156 58.421875 53.816406 58.398438 53.726562 58.417969 C 53.546875 58.457031 53.429688 58.628906 53.460938 58.8125 Z M 53.460938 58.8125 "/>
<path style=" stroke:none;fill-rule:nonzero;fill:rgb(91.37255%,32.941177%,12.54902%);fill-opacity:1;" d="M 88.941406 53.050781 C 88.960938 53.050781 88.980469 53.046875 89 53.039062 C 89.183594 53.003906 89.304688 52.828125 89.273438 52.644531 C 89.242188 52.457031 89.066406 52.332031 88.878906 52.359375 C 88.699219 52.398438 88.578125 52.570312 88.605469 52.753906 C 88.628906 52.921875 88.773438 53.046875 88.941406 53.050781 Z M 88.941406 53.050781 "/>
<path style=" stroke:none;fill-rule:nonzero;fill:rgb(91.37255%,32.941177%,12.54902%);fill-opacity:1;" d="M 83.527344 53.984375 C 83.546875 53.984375 83.566406 53.972656 83.585938 53.972656 C 83.769531 53.9375 83.890625 53.761719 83.859375 53.578125 C 83.847656 53.488281 83.796875 53.40625 83.722656 53.355469 C 83.648438 53.300781 83.554688 53.28125 83.464844 53.296875 C 83.28125 53.332031 83.160156 53.507812 83.191406 53.691406 C 83.226562 53.851562 83.363281 53.972656 83.527344 53.984375 Z M 83.527344 53.984375 "/>
<path style=" stroke:none;fill-rule:nonzero;fill:rgb(91.37255%,32.941177%,12.54902%);fill-opacity:1;" d="M 61.574219 57.414062 C 61.597656 57.582031 61.738281 57.707031 61.90625 57.707031 C 61.925781 57.710938 61.949219 57.710938 61.96875 57.707031 C 62.058594 57.691406 62.136719 57.636719 62.1875 57.5625 C 62.238281 57.488281 62.257812 57.394531 62.242188 57.304688 C 62.207031 57.117188 62.03125 56.992188 61.847656 57.019531 C 61.664062 57.054688 61.542969 57.230469 61.574219 57.414062 Z M 61.574219 57.414062 "/>
<path style=" stroke:none;fill-rule:nonzero;fill:rgb(91.37255%,32.941177%,12.54902%);fill-opacity:1;" d="M 91.636719 52.578125 C 91.660156 52.578125 91.679688 52.574219 91.699219 52.566406 C 91.882812 52.53125 92.003906 52.355469 91.972656 52.171875 C 91.9375 51.988281 91.761719 51.863281 91.578125 51.890625 C 91.488281 51.90625 91.40625 51.960938 91.355469 52.035156 C 91.304688 52.109375 91.285156 52.203125 91.304688 52.292969 C 91.335938 52.453125 91.476562 52.570312 91.636719 52.578125 Z M 91.636719 52.578125 "/>
<path style=" stroke:none;fill-rule:nonzero;fill:rgb(91.37255%,32.941177%,12.54902%);fill-opacity:1;" d="M 51.039062 58.890625 C 50.945312 58.90625 50.867188 58.953125 50.8125 59.027344 C 50.757812 59.105469 50.738281 59.195312 50.753906 59.285156 C 50.789062 59.449219 50.933594 59.566406 51.097656 59.570312 L 51.160156 59.570312 C 51.25 59.550781 51.328125 59.5 51.378906 59.425781 C 51.429688 59.347656 51.449219 59.253906 51.433594 59.164062 C 51.394531 58.984375 51.21875 58.863281 51.039062 58.890625 Z M 51.039062 58.890625 "/>
<path style=" stroke:none;fill-rule:nonzero;fill:rgb(91.37255%,32.941177%,12.54902%);fill-opacity:1;" d="M 56.167969 58.355469 C 56.199219 58.515625 56.335938 58.636719 56.5 58.648438 C 56.519531 58.648438 56.542969 58.640625 56.5625 58.640625 C 56.742188 58.601562 56.863281 58.429688 56.835938 58.246094 C 56.800781 58.058594 56.625 57.933594 56.441406 57.960938 C 56.257812 57.996094 56.136719 58.171875 56.167969 58.355469 Z M 56.167969 58.355469 "/>
<path style=" stroke:none;fill-rule:nonzero;fill:rgb(91.37255%,32.941177%,12.54902%);fill-opacity:1;" d="M 58.867188 57.890625 C 58.894531 58.054688 59.035156 58.175781 59.199219 58.183594 C 59.21875 58.183594 59.242188 58.171875 59.261719 58.171875 C 59.445312 58.136719 59.5625 57.960938 59.535156 57.777344 C 59.519531 57.6875 59.464844 57.605469 59.390625 57.554688 C 59.316406 57.5 59.21875 57.480469 59.128906 57.496094 C 58.949219 57.535156 58.835938 57.710938 58.867188 57.890625 Z M 58.867188 57.890625 "/>
<path style=" stroke:none;fill-rule:nonzero;fill:rgb(91.37255%,32.941177%,12.54902%);fill-opacity:1;" d="M 102.398438 50.027344 C 102.308594 50.046875 102.226562 50.097656 102.175781 50.171875 C 102.125 50.25 102.105469 50.34375 102.125 50.433594 C 102.15625 50.597656 102.296875 50.722656 102.46875 50.726562 C 102.484375 50.722656 102.5 50.71875 102.519531 50.714844 C 102.699219 50.679688 102.820312 50.503906 102.789062 50.320312 C 102.761719 50.132812 102.585938 50 102.398438 50.027344 Z M 102.398438 50.027344 "/>
<path style=" stroke:none;fill-rule:nonzero;fill:rgb(91.37255%,32.941177%,12.54902%);fill-opacity:1;" d="M 105.09375 49.5625 C 104.910156 49.597656 104.789062 49.773438 104.820312 49.957031 C 104.855469 50.121094 104.996094 50.242188 105.164062 50.25 C 105.179688 50.253906 105.199219 50.253906 105.214844 50.25 C 105.304688 50.234375 105.382812 50.179688 105.4375 50.105469 C 105.488281 50.027344 105.503906 49.9375 105.488281 49.84375 C 105.453125 49.660156 105.28125 49.535156 105.09375 49.5625 Z M 105.09375 49.5625 "/>
<path style=" stroke:none;fill-rule:nonzero;fill:rgb(91.37255%,32.941177%,12.54902%);fill-opacity:1;" d="M 75.363281 54.691406 C 75.179688 54.726562 75.058594 54.902344 75.089844 55.085938 C 75.125 55.25 75.265625 55.371094 75.433594 55.378906 C 75.449219 55.378906 75.464844 55.378906 75.484375 55.378906 C 75.667969 55.347656 75.792969 55.167969 75.761719 54.980469 C 75.726562 54.792969 75.546875 54.667969 75.363281 54.703125 Z M 75.363281 54.691406 "/>
<path style=" stroke:none;fill-rule:nonzero;fill:rgb(91.37255%,32.941177%,12.54902%);fill-opacity:1;" d="M 72.734375 55.847656 C 72.753906 55.847656 72.769531 55.84375 72.785156 55.835938 C 72.921875 55.8125 73.03125 55.710938 73.066406 55.574219 C 73.097656 55.441406 73.042969 55.296875 72.929688 55.21875 C 72.816406 55.136719 72.667969 55.128906 72.550781 55.203125 C 72.429688 55.277344 72.367188 55.414062 72.390625 55.550781 C 72.421875 55.71875 72.566406 55.84375 72.734375 55.847656 Z M 72.734375 55.847656 "/>
<path style=" stroke:none;fill-rule:nonzero;fill:rgb(91.37255%,32.941177%,12.54902%);fill-opacity:1;" d="M 69.949219 55.625 C 69.765625 55.660156 69.644531 55.835938 69.675781 56.019531 C 69.707031 56.183594 69.851562 56.308594 70.019531 56.3125 C 70.035156 56.3125 70.054688 56.308594 70.070312 56.300781 C 70.253906 56.265625 70.375 56.089844 70.34375 55.90625 C 70.308594 55.722656 70.136719 55.59375 69.949219 55.625 Z M 69.949219 55.625 "/>
<path style=" stroke:none;fill-rule:nonzero;fill:rgb(91.37255%,32.941177%,12.54902%);fill-opacity:1;" d="M 94.351562 52.101562 L 94.414062 52.101562 C 94.597656 52.066406 94.71875 51.890625 94.6875 51.707031 C 94.648438 51.523438 94.476562 51.398438 94.292969 51.425781 C 94.121094 51.457031 94 51.617188 94.015625 51.789062 C 94.03125 51.964844 94.179688 52.101562 94.351562 52.101562 Z M 94.351562 52.101562 "/>
<path style=" stroke:none;fill-rule:nonzero;fill:rgb(91.37255%,32.941177%,12.54902%);fill-opacity:1;" d="M 78.0625 54.226562 C 77.878906 54.261719 77.757812 54.4375 77.789062 54.621094 C 77.820312 54.785156 77.964844 54.90625 78.132812 54.914062 C 78.148438 54.914062 78.167969 54.914062 78.183594 54.90625 C 78.367188 54.871094 78.492188 54.691406 78.460938 54.503906 C 78.425781 54.316406 78.246094 54.195312 78.0625 54.226562 Z M 78.0625 54.226562 "/>
<path style=" stroke:none;fill-rule:nonzero;fill:rgb(91.37255%,32.941177%,12.54902%);fill-opacity:1;" d="M 96.980469 50.957031 C 96.890625 50.976562 96.8125 51.027344 96.757812 51.105469 C 96.707031 51.179688 96.6875 51.273438 96.707031 51.363281 C 96.738281 51.527344 96.875 51.644531 97.039062 51.65625 C 97.058594 51.660156 97.082031 51.660156 97.101562 51.65625 C 97.191406 51.640625 97.269531 51.585938 97.320312 51.511719 C 97.371094 51.433594 97.390625 51.34375 97.375 51.253906 C 97.347656 51.0625 97.167969 50.929688 96.980469 50.957031 Z M 96.980469 50.957031 "/>
<path style=" stroke:none;fill-rule:nonzero;fill:rgb(91.37255%,32.941177%,12.54902%);fill-opacity:1;" d="M 80.769531 53.761719 C 80.679688 53.777344 80.597656 53.832031 80.546875 53.90625 C 80.496094 53.984375 80.476562 54.078125 80.496094 54.167969 C 80.523438 54.332031 80.664062 54.453125 80.828125 54.460938 C 80.847656 54.460938 80.871094 54.457031 80.890625 54.449219 C 81.070312 54.410156 81.1875 54.238281 81.160156 54.054688 C 81.148438 53.964844 81.101562 53.878906 81.027344 53.824219 C 80.953125 53.769531 80.859375 53.746094 80.769531 53.761719 Z M 80.769531 53.761719 "/>
<path style=" stroke:none;fill-rule:nonzero;fill:rgb(91.37255%,32.941177%,12.54902%);fill-opacity:1;" d="M 99.6875 50.492188 C 99.507812 50.527344 99.386719 50.703125 99.417969 50.886719 C 99.449219 51.050781 99.585938 51.171875 99.75 51.179688 C 99.769531 51.179688 99.789062 51.171875 99.808594 51.171875 C 99.992188 51.136719 100.113281 50.960938 100.082031 50.777344 C 100.050781 50.589844 99.875 50.464844 99.6875 50.492188 Z M 99.6875 50.492188 "/>
<path style=" stroke:none;fill-rule:nonzero;fill:rgb(91.37255%,32.941177%,12.54902%);fill-opacity:1;" d="M 64.222656 49.097656 C 64.242188 49.097656 64.261719 49.085938 64.28125 49.085938 C 64.464844 49.042969 64.582031 48.867188 64.554688 48.683594 C 64.515625 48.5 64.332031 48.382812 64.148438 48.417969 C 64.0625 48.433594 63.984375 48.484375 63.933594 48.558594 C 63.886719 48.632812 63.867188 48.726562 63.886719 48.8125 C 63.921875 48.972656 64.058594 49.089844 64.222656 49.097656 Z M 64.222656 49.097656 "/>
<path style=" stroke:none;fill-rule:nonzero;fill:rgb(91.37255%,32.941177%,12.54902%);fill-opacity:1;" d="M 61.535156 49.621094 C 61.554688 49.628906 61.574219 49.628906 61.59375 49.621094 C 61.769531 49.574219 61.875 49.398438 61.835938 49.222656 C 61.800781 49.046875 61.632812 48.929688 61.453125 48.957031 C 61.273438 49.003906 61.160156 49.175781 61.191406 49.359375 C 61.226562 49.519531 61.371094 49.628906 61.535156 49.621094 Z M 61.535156 49.621094 "/>
<path style=" stroke:none;fill-rule:nonzero;fill:rgb(91.37255%,32.941177%,12.54902%);fill-opacity:1;" d="M 66.90625 48.5625 C 66.929688 48.5625 66.949219 48.5625 66.96875 48.5625 C 67.152344 48.519531 67.269531 48.339844 67.230469 48.15625 C 67.214844 48.03125 67.128906 47.929688 67.011719 47.886719 C 66.894531 47.84375 66.765625 47.871094 66.671875 47.953125 C 66.582031 48.039062 66.542969 48.167969 66.574219 48.289062 C 66.613281 48.441406 66.75 48.554688 66.90625 48.5625 Z M 66.90625 48.5625 "/>
<path style=" stroke:none;fill-rule:nonzero;fill:rgb(91.37255%,32.941177%,12.54902%);fill-opacity:1;" d="M 56.148438 50.695312 C 56.171875 50.699219 56.191406 50.695312 56.210938 50.683594 C 56.390625 50.648438 56.511719 50.476562 56.484375 50.289062 C 56.441406 50.109375 56.265625 49.988281 56.078125 50.019531 C 55.894531 50.058594 55.777344 50.238281 55.816406 50.421875 C 55.847656 50.582031 55.988281 50.699219 56.148438 50.695312 Z M 56.148438 50.695312 "/>
<path style=" stroke:none;fill-rule:nonzero;fill:rgb(91.37255%,32.941177%,12.54902%);fill-opacity:1;" d="M 58.835938 50.160156 C 58.855469 50.160156 58.878906 50.15625 58.898438 50.148438 C 58.984375 50.132812 59.0625 50.082031 59.113281 50.007812 C 59.164062 49.933594 59.179688 49.84375 59.160156 49.753906 C 59.140625 49.632812 59.058594 49.527344 58.941406 49.484375 C 58.824219 49.441406 58.691406 49.46875 58.601562 49.554688 C 58.507812 49.636719 58.472656 49.765625 58.503906 49.886719 C 58.535156 50.046875 58.675781 50.160156 58.835938 50.160156 Z M 58.835938 50.160156 "/>
<path style=" stroke:none;fill-rule:nonzero;fill:rgb(91.37255%,32.941177%,12.54902%);fill-opacity:1;" d="M 53.460938 51.226562 C 53.484375 51.230469 53.503906 51.226562 53.523438 51.21875 C 53.703125 51.179688 53.820312 51.003906 53.785156 50.824219 C 53.746094 50.640625 53.566406 50.523438 53.382812 50.558594 C 53.292969 50.574219 53.214844 50.625 53.164062 50.699219 C 53.117188 50.777344 53.097656 50.867188 53.117188 50.953125 C 53.152344 51.117188 53.296875 51.234375 53.460938 51.226562 Z M 53.460938 51.226562 "/>
<path style=" stroke:none;fill-rule:nonzero;fill:rgb(91.37255%,32.941177%,12.54902%);fill-opacity:1;" d="M 31.933594 55.53125 C 31.953125 55.53125 31.976562 55.53125 31.996094 55.53125 C 32.179688 55.492188 32.296875 55.3125 32.257812 55.128906 C 32.242188 55.039062 32.191406 54.964844 32.117188 54.914062 C 32.042969 54.863281 31.949219 54.847656 31.863281 54.863281 C 31.679688 54.90625 31.558594 55.082031 31.589844 55.269531 C 31.632812 55.425781 31.773438 55.535156 31.933594 55.53125 Z M 31.933594 55.53125 "/>
<path style=" stroke:none;fill-rule:nonzero;fill:rgb(91.37255%,32.941177%,12.54902%);fill-opacity:1;" d="M 34.621094 54.984375 C 34.640625 54.988281 34.664062 54.984375 34.683594 54.976562 C 34.816406 54.949219 34.917969 54.84375 34.945312 54.710938 C 34.972656 54.578125 34.917969 54.441406 34.804688 54.367188 C 34.691406 54.292969 34.542969 54.292969 34.429688 54.367188 C 34.316406 54.441406 34.261719 54.578125 34.289062 54.710938 C 34.316406 54.875 34.457031 54.992188 34.621094 54.984375 Z M 34.621094 54.984375 "/>
<path style=" stroke:none;fill-rule:nonzero;fill:rgb(91.37255%,32.941177%,12.54902%);fill-opacity:1;" d="M 37.308594 54.449219 C 37.328125 54.453125 37.351562 54.449219 37.371094 54.441406 C 37.53125 54.394531 37.632812 54.230469 37.59375 54.066406 C 37.558594 53.902344 37.402344 53.796875 37.234375 53.824219 C 37.070312 53.851562 36.957031 54.003906 36.976562 54.171875 C 36.996094 54.339844 37.140625 54.460938 37.308594 54.449219 Z M 37.308594 54.449219 "/>
<path style=" stroke:none;fill-rule:nonzero;fill:rgb(91.37255%,32.941177%,12.54902%);fill-opacity:1;" d="M 29.238281 56.070312 C 29.257812 56.070312 29.277344 56.066406 29.296875 56.058594 C 29.480469 56.019531 29.597656 55.839844 29.5625 55.652344 C 29.523438 55.472656 29.347656 55.355469 29.167969 55.390625 C 28.992188 55.425781 28.871094 55.585938 28.890625 55.761719 C 28.910156 55.9375 29.058594 56.074219 29.238281 56.070312 Z M 29.238281 56.070312 "/>
<path style=" stroke:none;fill-rule:nonzero;fill:rgb(91.37255%,32.941177%,12.54902%);fill-opacity:1;" d="M 50.773438 51.769531 C 50.792969 51.773438 50.816406 51.773438 50.835938 51.769531 C 50.925781 51.753906 51.003906 51.699219 51.054688 51.625 C 51.105469 51.546875 51.121094 51.453125 51.097656 51.363281 C 51.082031 51.277344 51.03125 51.199219 50.957031 51.148438 C 50.882812 51.101562 50.792969 51.082031 50.703125 51.101562 C 50.523438 51.136719 50.402344 51.3125 50.429688 51.496094 C 50.460938 51.660156 50.609375 51.777344 50.773438 51.769531 Z M 50.773438 51.769531 "/>
<path style=" stroke:none;fill-rule:nonzero;fill:rgb(91.37255%,32.941177%,12.54902%);fill-opacity:1;" d="M 48.085938 52.316406 C 48.105469 52.316406 48.125 52.304688 48.144531 52.304688 C 48.328125 52.265625 48.445312 52.082031 48.410156 51.898438 C 48.363281 51.726562 48.191406 51.621094 48.019531 51.65625 C 47.84375 51.691406 47.726562 51.855469 47.753906 52.03125 C 47.78125 52.191406 47.921875 52.3125 48.085938 52.316406 Z M 48.085938 52.316406 "/>
<path style=" stroke:none;fill-rule:nonzero;fill:rgb(91.37255%,32.941177%,12.54902%);fill-opacity:1;" d="M 40.003906 53.914062 C 40.023438 53.917969 40.042969 53.917969 40.066406 53.914062 C 40.15625 53.898438 40.234375 53.847656 40.285156 53.769531 C 40.335938 53.691406 40.351562 53.597656 40.328125 53.507812 C 40.289062 53.324219 40.109375 53.199219 39.921875 53.234375 C 39.738281 53.277344 39.625 53.457031 39.660156 53.640625 C 39.6875 53.804688 39.835938 53.925781 40.003906 53.914062 Z M 40.003906 53.914062 "/>
<path style=" stroke:none;fill-rule:nonzero;fill:rgb(91.37255%,32.941177%,12.54902%);fill-opacity:1;" d="M 45.378906 52.847656 C 45.402344 52.851562 45.421875 52.851562 45.441406 52.847656 C 45.625 52.804688 45.742188 52.628906 45.714844 52.441406 C 45.667969 52.261719 45.492188 52.144531 45.308594 52.179688 C 45.222656 52.195312 45.144531 52.246094 45.09375 52.320312 C 45.042969 52.394531 45.027344 52.484375 45.046875 52.574219 C 45.085938 52.730469 45.21875 52.839844 45.378906 52.847656 Z M 45.378906 52.847656 "/>
<path style=" stroke:none;fill-rule:nonzero;fill:rgb(91.37255%,32.941177%,12.54902%);fill-opacity:1;" d="M 42.703125 53.378906 C 42.722656 53.378906 42.746094 53.375 42.765625 53.367188 C 42.851562 53.351562 42.929688 53.300781 42.980469 53.226562 C 43.03125 53.152344 43.046875 53.058594 43.027344 52.972656 C 42.988281 52.785156 42.808594 52.664062 42.621094 52.699219 C 42.441406 52.742188 42.320312 52.917969 42.351562 53.105469 C 42.378906 53.273438 42.53125 53.390625 42.703125 53.378906 Z M 42.703125 53.378906 "/>
<path style=" stroke:none;fill-rule:nonzero;fill:rgb(91.37255%,32.941177%,12.54902%);fill-opacity:1;" d="M 170.535156 66.027344 L 166.050781 62.230469 L 181.222656 59.703125 L 181.425781 59.671875 L 181.261719 58.730469 L 165.101562 61.433594 L 159.433594 56.644531 L 168.675781 34.082031 L 169.203125 24.527344 L 174.96875 6.234375 L 161.914062 2.792969 L 150.742188 8.488281 L 139.296875 19.5 L 132.601562 16.21875 L 113.042969 13.757812 L 96.152344 18.097656 L 81.132812 0.835938 L 73.554688 5.976562 L 73.160156 22.460938 L 75.554688 28.125 L 67.59375 52.777344 L 69.324219 62.613281 L 65.109375 66.972656 L 65.140625 71.433594 L 66.019531 72.839844 L 1.355469 48.394531 L 1.152344 48.324219 L 0.820312 49.222656 L 66.875 74.171875 L 67.148438 74.605469 L 66.230469 76.488281 L 16.800781 70.832031 L 16.601562 70.8125 L 16.488281 71.761719 L 65.785156 77.410156 L 64.652344 79.714844 L 30.761719 83.5 L 30.863281 84.453125 L 64.148438 80.738281 L 63.289062 82.488281 L 63.472656 83.035156 L 44.996094 90.746094 L 45.359375 91.625 L 63.773438 83.945312 L 64.835938 87.164062 L 50.085938 97.878906 L 50.640625 98.660156 L 65.136719 88.113281 L 66.511719 92.273438 L 69.429688 93.023438 L 76.453125 101.621094 L 90.75 103.460938 L 93.507812 101.851562 L 93.585938 109.097656 L 94.539062 109.085938 L 94.457031 101.304688 L 99.769531 98.199219 L 99.789062 98.199219 L 100.386719 103.480469 L 100.40625 103.683594 L 101.417969 103.523438 L 100.8125 98.410156 L 109.589844 100.335938 L 114.4375 118.699219 L 115.699219 149.179688 L 133.078125 145.625 L 165.929688 124.195312 L 166.007812 124.144531 L 184.699219 101.621094 L 192.375 83.578125 Z M 163.492188 61.683594 L 155.753906 62.980469 L 158.21875 57.230469 Z M 167.179688 34.484375 L 158.320312 56.097656 L 155.351562 63.050781 L 147.472656 64.367188 L 149.453125 40.859375 Z M 89.425781 60.613281 L 92.65625 63.203125 L 92.828125 66.816406 L 90.292969 72.054688 L 85.675781 74.222656 L 83.441406 70.304688 L 78.667969 72.476562 L 84.210938 83.113281 L 82.890625 84.144531 L 77.121094 84.660156 L 75.210938 66.851562 Z M 75.070312 66.53125 L 70.644531 62.988281 L 70.523438 62.292969 L 71.292969 61.28125 L 76.6875 57.757812 L 85.910156 57.757812 L 89.144531 60.347656 Z M 80.453125 75.109375 L 84.699219 73.195312 L 85.546875 74.683594 L 90.566406 72.335938 L 93.140625 67.011719 L 106.0625 64.785156 L 99.433594 75.765625 L 93.839844 75.59375 L 84.515625 82.890625 Z M 112.277344 70.25 L 106.578125 64.484375 L 107.246094 58.007812 L 110.621094 54.925781 L 118.195312 54.925781 L 124.890625 48.15625 L 128.699219 44.21875 L 128.679688 44.21875 L 137.164062 35.773438 L 137.1875 35.773438 L 145.574219 19.859375 L 146.917969 27.703125 L 148.039062 34.136719 L 149.105469 40.730469 L 147.105469 64.417969 Z M 113.335938 71.039062 L 141.996094 77.636719 L 111.09375 75.03125 L 112.601562 71.15625 Z M 115.429688 49.40625 C 115.421875 50.898438 114.898438 52.347656 113.953125 53.5 C 113.226562 52.230469 112.847656 50.792969 112.859375 49.328125 C 112.863281 47.832031 113.324219 46.367188 114.183594 45.140625 C 114.984375 46.421875 115.414062 47.898438 115.429688 49.40625 Z M 107.933594 48.332031 L 107.902344 48.332031 L 107.902344 48.363281 L 107.871094 48.382812 L 107.890625 48.414062 L 106.234375 64.402344 L 93.171875 66.660156 L 93.011719 63.148438 L 96.808594 44.875 L 108.921875 31.113281 L 113.761719 43.488281 Z M 106.425781 64.835938 L 111.851562 70.320312 L 105.203125 71.433594 L 105.003906 71.464844 L 105.164062 72.40625 L 112.207031 71.234375 L 110.742188 75.007812 L 104.941406 74.519531 L 104.832031 75.472656 L 110.386719 75.9375 L 109.257812 78.851562 L 104.367188 77.03125 L 104.042969 77.929688 L 108.890625 79.742188 L 107.042969 84.519531 L 99.738281 75.9375 Z M 107.253906 84.921875 L 109.214844 79.863281 L 129.269531 87.351562 L 110.921875 93.285156 L 104.902344 87.046875 Z M 109.570312 78.972656 L 110.730469 75.96875 L 144.632812 78.820312 L 136.957031 84.871094 L 130.742188 86.886719 Z M 137.097656 85.195312 L 145.136719 78.871094 L 140.066406 90.085938 L 139.886719 90.285156 L 131.277344 87.070312 Z M 140.339844 90.316406 L 145.28125 79.398438 L 142.957031 91.449219 L 140.238281 90.429688 Z M 144.492188 77.839844 L 114.257812 70.878906 L 154.726562 64.121094 L 145.671875 77.941406 Z M 139.5625 20.972656 L 149.632812 11.277344 L 145.523438 19.191406 L 145.523438 19.242188 L 137.386719 34.65625 Z M 132.257812 17.40625 L 139.230469 20.84375 L 136.875 35.566406 L 128.519531 43.886719 L 114.085938 43.359375 L 109.195312 30.832031 L 131.882812 17.355469 Z M 113.125 15.003906 L 131.308594 17.289062 L 108.898438 30.601562 L 96.523438 44.65625 L 96.496094 44.683594 L 92.726562 62.796875 L 86.027344 57.414062 L 76.574219 57.414062 L 71.652344 60.632812 L 79.898438 45.332031 L 82.484375 30.621094 L 95.847656 19.4375 Z M 75.878906 48.066406 C 75.878906 46.242188 76.34375 45.421875 76.828125 44.757812 C 77.609375 45.9375 77.71875 48.03125 77.734375 48.601562 L 76.488281 50.914062 C 76.316406 50.359375 75.878906 49.066406 75.878906 48.066406 Z M 81.273438 2.84375 L 95.195312 18.847656 L 84.382812 22.269531 L 80.949219 15.5 Z M 76.847656 28.140625 L 84.3125 22.675781 L 95.457031 19.15625 L 95.546875 19.257812 L 82.210938 30.398438 L 82.164062 30.4375 L 79.605469 45.007812 L 73.644531 38.046875 Z M 68.867188 52.847656 L 73.515625 38.4375 L 75.429688 40.675781 L 72.980469 48.089844 L 74.621094 54.363281 L 71.019531 61.054688 L 71.03125 61.054688 L 70.445312 61.8125 Z M 66.371094 71.0625 L 66.34375 67.449219 L 70.402344 63.25 L 74.867188 66.820312 L 76.777344 84.621094 L 74.351562 84.046875 L 70.320312 83.105469 L 73.410156 72.542969 L 73.453125 72.402344 L 71.480469 71.316406 L 69.097656 70.011719 L 68.90625 69.910156 L 67.867188 73.453125 Z M 68.542969 74.519531 L 68.152344 73.902344 L 68.484375 72.710938 L 72.179688 75.503906 L 70.050781 82.789062 L 66.917969 77.820312 Z M 69.222656 91.703125 L 69.03125 91.664062 L 67.464844 91.257812 L 64.605469 82.597656 L 66.734375 78.253906 L 69.828125 83.414062 L 69.898438 83.375 L 69.898438 83.394531 L 74.160156 84.386719 L 76.738281 84.984375 L 73.363281 92.492188 L 69.222656 91.691406 Z M 90.515625 102.199219 L 77.097656 100.46875 L 70.410156 92.273438 L 73.402344 92.851562 L 73.574219 92.882812 L 74.460938 90.898438 L 82.898438 91.941406 L 84.25 93.523438 L 84.3125 93.59375 L 93.425781 92.574219 L 93.503906 100.464844 Z M 99.574219 96.898438 L 94.445312 99.894531 L 94.375 92.457031 L 99.089844 91.929688 L 99.65625 96.917969 Z M 99.34375 85.960938 L 98.425781 86.121094 L 99.039062 91.546875 L 94.351562 92.070312 L 94.292969 86.800781 L 93.34375 86.808594 L 93.402344 92.171875 L 84.441406 93.175781 L 77.351562 84.988281 L 83.050781 84.480469 L 83.109375 84.433594 L 84.6875 83.207031 L 93.960938 75.941406 L 99.453125 76.113281 L 106.847656 84.804688 L 104.667969 86.789062 L 101.382812 83.390625 L 100.707031 84.058594 L 103.960938 87.417969 L 99.949219 91.058594 Z M 100.011719 91.515625 L 104.214844 87.691406 L 109.929688 93.609375 L 100.617188 96.625 Z M 110.585938 99.316406 L 100.667969 97.140625 L 100.648438 96.980469 L 110.191406 93.894531 L 117.355469 101.300781 L 118.03125 100.632812 L 111.214844 93.570312 L 129.820312 87.546875 L 139.207031 91.058594 L 115.480469 117.914062 Z M 132.769531 144.375 L 132.621094 144.464844 L 116.859375 147.683594 L 115.660156 118.601562 L 115.585938 118.320312 L 139.558594 91.203125 L 142.773438 92.40625 Z M 133.175781 144.082031 L 143.117188 92.511719 L 145.574219 93.421875 L 145.773438 93.496094 L 146.097656 92.59375 L 143.308594 91.550781 L 145.734375 78.894531 L 165.179688 123.203125 Z M 183.714844 100.894531 L 165.429688 122.914062 L 146.15625 78.925781 L 170.320312 80.976562 L 170.441406 80.027344 L 146.074219 77.964844 L 155.207031 64.042969 L 164.460938 62.496094 L 169.773438 66.976562 L 170.339844 67.433594 L 183.816406 100.652344 Z M 184.007812 100.207031 L 170.898438 67.898438 L 190.886719 83.964844 Z M 184.007812 100.207031 "/>
</g>
</svg>
