<?xml version="1.0" encoding="UTF-8"?>
<svg xmlns="http://www.w3.org/2000/svg" xmlns:xlink="http://www.w3.org/1999/xlink" width="150px" height="150px" viewBox="0 0 150 150" version="1.1">
<g id="surface1">
<path style=" stroke:none;fill-rule:evenodd;fill:rgb(22.745098%,30.19608%,32.941177%);fill-opacity:1;" d="M 86.484375 59.53125 L 99.726562 59.53125 L 99.726562 73.007812 L 106.40625 73.007812 C 109.453125 73.007812 112.617188 72.421875 115.546875 71.484375 C 116.953125 71.015625 118.59375 70.3125 120 69.492188 C 118.125 67.03125 117.1875 63.984375 116.953125 60.9375 C 116.601562 56.835938 117.421875 51.445312 120.234375 48.28125 L 121.640625 46.640625 L 123.28125 47.929688 C 127.5 51.328125 130.898438 55.898438 131.601562 61.289062 C 136.640625 59.765625 142.5 60.117188 146.953125 62.695312 L 148.710938 63.75 L 147.773438 65.625 C 144.023438 72.890625 136.171875 75.234375 128.554688 74.765625 C 117.070312 103.242188 92.226562 116.71875 61.992188 116.71875 C 46.40625 116.71875 32.109375 110.859375 23.90625 97.03125 L 23.789062 96.796875 L 22.617188 94.335938 C 19.804688 88.242188 18.984375 81.5625 19.570312 74.882812 L 19.804688 72.890625 L 31.054688 72.890625 L 31.054688 59.53125 L 44.296875 59.53125 L 44.296875 46.40625 L 70.664062 46.40625 L 70.664062 33.164062 L 86.484375 33.164062 Z M 86.484375 59.53125 "/>
<path style=" stroke:none;fill-rule:nonzero;fill:rgb(0%,66.666669%,85.490197%);fill-opacity:1;" d="M 129.375 64.570312 C 130.3125 57.65625 125.15625 52.265625 121.875 49.6875 C 118.242188 53.90625 117.65625 65.15625 123.398438 69.84375 C 120.117188 72.65625 113.4375 75.351562 106.40625 75.351562 L 21.796875 75.351562 C 21.09375 82.617188 22.382812 89.296875 25.3125 95.039062 L 26.25 96.796875 C 26.835938 97.851562 27.539062 98.789062 28.242188 99.84375 C 31.757812 100.078125 34.921875 100.195312 37.851562 100.078125 C 43.59375 99.960938 48.28125 99.257812 51.914062 98.085938 C 52.5 97.851562 52.96875 98.203125 53.203125 98.671875 C 53.4375 99.257812 53.085938 99.726562 52.617188 99.960938 C 52.148438 100.078125 51.679688 100.3125 51.09375 100.429688 C 48.28125 101.25 45.234375 101.71875 41.367188 101.953125 L 40.664062 101.953125 C 39.140625 102.070312 37.5 102.070312 35.742188 102.070312 C 33.867188 102.070312 32.109375 102.070312 30 101.953125 C 37.03125 109.921875 48.046875 114.609375 61.875 114.609375 C 91.171875 114.609375 116.015625 101.601562 126.914062 72.539062 C 134.765625 73.359375 142.265625 71.367188 145.664062 64.6875 C 140.390625 61.523438 133.359375 62.578125 129.375 64.570312 Z M 129.375 64.570312 "/>
<path style=" stroke:none;fill-rule:nonzero;fill:rgb(15.686275%,72.156864%,92.156863%);fill-opacity:1;" d="M 129.375 64.570312 C 130.3125 57.65625 125.15625 52.265625 121.875 49.6875 C 118.242188 53.90625 117.65625 65.15625 123.398438 69.84375 C 120.117188 72.65625 113.4375 75.351562 106.40625 75.351562 L 26.71875 75.351562 C 26.367188 86.484375 30.46875 94.921875 37.851562 99.960938 C 43.59375 99.84375 48.28125 99.140625 51.914062 97.96875 C 52.5 97.734375 52.96875 98.085938 53.203125 98.554688 C 53.4375 99.140625 53.085938 99.609375 52.617188 99.84375 C 52.148438 99.960938 51.679688 100.195312 51.09375 100.3125 C 48.28125 101.132812 45 101.71875 41.132812 101.953125 L 41.015625 101.835938 C 50.976562 106.992188 65.390625 106.875 82.03125 100.546875 C 100.546875 93.398438 117.890625 79.804688 129.960938 64.335938 C 129.726562 64.453125 129.492188 64.453125 129.375 64.570312 Z M 129.375 64.570312 "/>
<path style=" stroke:none;fill-rule:nonzero;fill:rgb(0.784314%,54.509807%,72.156864%);fill-opacity:1;" d="M 21.914062 84.140625 C 22.382812 88.007812 23.554688 91.640625 25.3125 95.039062 L 26.25 96.796875 C 26.835938 97.851562 27.539062 98.789062 28.242188 99.84375 C 31.757812 100.078125 34.921875 100.195312 37.851562 100.078125 C 43.59375 99.960938 48.28125 99.257812 51.914062 98.085938 C 52.5 97.851562 52.96875 98.203125 53.203125 98.671875 C 53.4375 99.257812 53.085938 99.726562 52.617188 99.960938 C 52.148438 100.078125 51.679688 100.3125 51.09375 100.429688 C 48.28125 101.25 45 101.835938 41.132812 102.070312 L 40.664062 102.070312 C 39.140625 102.1875 37.5 102.1875 35.859375 102.1875 C 33.984375 102.1875 32.109375 102.1875 30.117188 102.070312 C 37.148438 110.039062 48.28125 114.726562 62.109375 114.726562 C 87.1875 114.726562 108.984375 105.234375 121.640625 84.257812 L 21.914062 84.257812 Z M 21.914062 84.140625 "/>
<path style=" stroke:none;fill-rule:nonzero;fill:rgb(0.392157%,60.784316%,77.64706%);fill-opacity:1;" d="M 27.539062 84.140625 C 29.0625 90.9375 32.578125 96.328125 37.851562 99.960938 C 43.59375 99.84375 48.28125 99.140625 51.914062 97.96875 C 52.5 97.734375 52.96875 98.085938 53.203125 98.554688 C 53.4375 99.140625 53.085938 99.609375 52.617188 99.84375 C 52.148438 99.960938 51.679688 100.195312 51.09375 100.3125 C 48.28125 101.132812 45 101.71875 41.015625 101.953125 C 50.976562 107.109375 65.390625 106.992188 81.914062 100.664062 C 91.875 96.796875 101.601562 91.054688 110.273438 84.140625 Z M 27.539062 84.140625 "/>
<path style=" stroke:none;fill-rule:evenodd;fill:rgb(0%,67.450982%,82.745099%);fill-opacity:1;" d="M 33.28125 61.757812 L 44.765625 61.757812 L 44.765625 73.242188 L 33.28125 73.242188 Z M 34.21875 62.695312 L 35.15625 62.695312 L 35.15625 72.1875 L 34.21875 72.1875 Z M 35.859375 62.695312 L 36.796875 62.695312 L 36.796875 72.1875 L 35.859375 72.1875 Z M 37.617188 62.695312 L 38.554688 62.695312 L 38.554688 72.1875 L 37.617188 72.1875 Z M 39.375 62.695312 L 40.3125 62.695312 L 40.3125 72.1875 L 39.375 72.1875 Z M 41.132812 62.695312 L 42.070312 62.695312 L 42.070312 72.1875 L 41.132812 72.1875 Z M 42.890625 62.695312 L 43.828125 62.695312 L 43.828125 72.1875 L 42.890625 72.1875 Z M 46.40625 48.632812 L 57.890625 48.632812 L 57.890625 60.117188 L 46.40625 60.117188 Z M 47.460938 49.570312 L 48.398438 49.570312 L 48.398438 59.0625 L 47.460938 59.0625 Z M 49.101562 49.570312 L 50.039062 49.570312 L 50.039062 59.0625 L 49.101562 59.0625 Z M 50.859375 49.570312 L 51.796875 49.570312 L 51.796875 59.0625 L 50.859375 59.0625 Z M 52.617188 49.570312 L 53.554688 49.570312 L 53.554688 59.0625 L 52.617188 59.0625 Z M 54.257812 49.570312 L 55.195312 49.570312 L 55.195312 59.0625 L 54.257812 59.0625 Z M 56.015625 49.570312 L 56.953125 49.570312 L 56.953125 59.0625 L 56.015625 59.0625 Z M 56.015625 49.570312 "/>
<path style=" stroke:none;fill-rule:evenodd;fill:rgb(13.725491%,76.078433%,93.333334%);fill-opacity:1;" d="M 46.40625 61.757812 L 57.890625 61.757812 L 57.890625 73.242188 L 46.40625 73.242188 Z M 47.460938 62.695312 L 48.398438 62.695312 L 48.398438 72.1875 L 47.460938 72.1875 Z M 49.101562 62.695312 L 50.039062 62.695312 L 50.039062 72.1875 L 49.101562 72.1875 Z M 50.859375 62.695312 L 51.796875 62.695312 L 51.796875 72.1875 L 50.859375 72.1875 Z M 52.617188 62.695312 L 53.554688 62.695312 L 53.554688 72.1875 L 52.617188 72.1875 Z M 54.257812 62.695312 L 55.195312 62.695312 L 55.195312 72.1875 L 54.257812 72.1875 Z M 56.015625 62.695312 L 56.953125 62.695312 L 56.953125 72.1875 L 56.015625 72.1875 Z M 56.015625 62.695312 "/>
<path style=" stroke:none;fill-rule:evenodd;fill:rgb(0%,67.450982%,82.745099%);fill-opacity:1;" d="M 59.648438 61.757812 L 71.132812 61.757812 L 71.132812 73.242188 L 59.648438 73.242188 Z M 60.585938 62.695312 L 61.523438 62.695312 L 61.523438 72.1875 L 60.585938 72.1875 Z M 62.34375 62.695312 L 63.28125 62.695312 L 63.28125 72.1875 L 62.34375 72.1875 Z M 64.101562 62.695312 L 65.039062 62.695312 L 65.039062 72.1875 L 64.101562 72.1875 Z M 65.742188 62.695312 L 66.679688 62.695312 L 66.679688 72.1875 L 65.742188 72.1875 Z M 67.5 62.695312 L 68.4375 62.695312 L 68.4375 72.1875 L 67.5 72.1875 Z M 69.257812 62.695312 L 70.195312 62.695312 L 70.195312 72.1875 L 69.257812 72.1875 Z M 69.257812 62.695312 "/>
<path style=" stroke:none;fill-rule:evenodd;fill:rgb(13.725491%,76.078433%,93.333334%);fill-opacity:1;" d="M 59.648438 48.632812 L 71.132812 48.632812 L 71.132812 60.117188 L 59.648438 60.117188 Z M 60.585938 49.570312 L 61.523438 49.570312 L 61.523438 59.0625 L 60.585938 59.0625 Z M 62.34375 49.570312 L 63.28125 49.570312 L 63.28125 59.0625 L 62.34375 59.0625 Z M 64.101562 49.570312 L 65.039062 49.570312 L 65.039062 59.0625 L 64.101562 59.0625 Z M 65.742188 49.570312 L 66.679688 49.570312 L 66.679688 59.0625 L 65.742188 59.0625 Z M 67.5 49.570312 L 68.4375 49.570312 L 68.4375 59.0625 L 67.5 59.0625 Z M 69.257812 49.570312 L 70.195312 49.570312 L 70.195312 59.0625 L 69.257812 59.0625 Z M 72.890625 61.757812 L 84.375 61.757812 L 84.375 73.242188 L 72.890625 73.242188 Z M 73.828125 62.695312 L 74.765625 62.695312 L 74.765625 72.1875 L 73.828125 72.1875 Z M 75.585938 62.695312 L 76.523438 62.695312 L 76.523438 72.1875 L 75.585938 72.1875 Z M 77.226562 62.695312 L 78.164062 62.695312 L 78.164062 72.1875 L 77.226562 72.1875 Z M 78.984375 62.695312 L 79.921875 62.695312 L 79.921875 72.1875 L 78.984375 72.1875 Z M 80.742188 62.695312 L 81.679688 62.695312 L 81.679688 72.1875 L 80.742188 72.1875 Z M 82.5 62.695312 L 83.4375 62.695312 L 83.4375 72.1875 L 82.5 72.1875 Z M 82.5 62.695312 "/>
<path style=" stroke:none;fill-rule:evenodd;fill:rgb(0%,67.450982%,82.745099%);fill-opacity:1;" d="M 72.890625 48.632812 L 84.375 48.632812 L 84.375 60.117188 L 72.890625 60.117188 Z M 73.828125 49.570312 L 74.765625 49.570312 L 74.765625 59.0625 L 73.828125 59.0625 Z M 75.585938 49.570312 L 76.523438 49.570312 L 76.523438 59.0625 L 75.585938 59.0625 Z M 77.226562 49.570312 L 78.164062 49.570312 L 78.164062 59.0625 L 77.226562 59.0625 Z M 78.984375 49.570312 L 79.921875 49.570312 L 79.921875 59.0625 L 78.984375 59.0625 Z M 80.742188 49.570312 L 81.679688 49.570312 L 81.679688 59.0625 L 80.742188 59.0625 Z M 82.5 49.570312 L 83.4375 49.570312 L 83.4375 59.0625 L 82.5 59.0625 Z M 82.5 49.570312 "/>
<path style=" stroke:none;fill-rule:evenodd;fill:rgb(13.725491%,76.078433%,93.333334%);fill-opacity:1;" d="M 72.890625 35.390625 L 84.375 35.390625 L 84.375 46.875 L 72.890625 46.875 Z M 73.828125 36.328125 L 74.765625 36.328125 L 74.765625 45.820312 L 73.828125 45.820312 Z M 75.585938 36.328125 L 76.523438 36.328125 L 76.523438 45.820312 L 75.585938 45.820312 Z M 77.226562 36.328125 L 78.164062 36.328125 L 78.164062 45.820312 L 77.226562 45.820312 Z M 78.984375 36.328125 L 79.921875 36.328125 L 79.921875 45.820312 L 78.984375 45.820312 Z M 80.742188 36.328125 L 81.679688 36.328125 L 81.679688 45.820312 L 80.742188 45.820312 Z M 82.5 36.328125 L 83.4375 36.328125 L 83.4375 45.820312 L 82.5 45.820312 Z M 82.5 36.328125 "/>
<path style=" stroke:none;fill-rule:evenodd;fill:rgb(0%,67.450982%,82.745099%);fill-opacity:1;" d="M 86.132812 61.757812 L 97.617188 61.757812 L 97.617188 73.242188 L 86.132812 73.242188 Z M 87.070312 62.695312 L 88.007812 62.695312 L 88.007812 72.1875 L 87.070312 72.1875 Z M 88.710938 62.695312 L 89.648438 62.695312 L 89.648438 72.1875 L 88.710938 72.1875 Z M 90.46875 62.695312 L 91.40625 62.695312 L 91.40625 72.1875 L 90.46875 72.1875 Z M 92.226562 62.695312 L 93.164062 62.695312 L 93.164062 72.1875 L 92.226562 72.1875 Z M 93.984375 62.695312 L 94.921875 62.695312 L 94.921875 72.1875 L 93.984375 72.1875 Z M 95.742188 62.695312 L 96.679688 62.695312 L 96.679688 72.1875 L 95.742188 72.1875 Z M 95.742188 62.695312 "/>
<path style=" stroke:none;fill-rule:evenodd;fill:rgb(83.137256%,93.333334%,94.509804%);fill-opacity:1;" d="M 57.1875 91.757812 C 58.945312 91.757812 60.351562 93.164062 60.351562 94.921875 C 60.351562 96.679688 58.945312 98.085938 57.1875 98.085938 C 55.429688 98.085938 54.023438 96.679688 54.023438 94.921875 C 54.023438 93.164062 55.429688 91.757812 57.1875 91.757812 "/>
<path style=" stroke:none;fill-rule:evenodd;fill:rgb(22.745098%,30.19608%,32.941177%);fill-opacity:1;" d="M 57.1875 92.695312 C 57.421875 92.695312 57.773438 92.695312 58.007812 92.8125 C 57.773438 92.929688 57.539062 93.28125 57.539062 93.632812 C 57.539062 94.101562 58.007812 94.570312 58.476562 94.570312 C 58.828125 94.570312 59.179688 94.335938 59.296875 94.101562 C 59.414062 94.335938 59.414062 94.6875 59.414062 94.921875 C 59.414062 96.210938 58.359375 97.148438 57.1875 97.148438 C 55.898438 97.148438 54.960938 96.09375 54.960938 94.921875 C 54.960938 93.75 55.898438 92.695312 57.1875 92.695312 M 1.289062 85.3125 L 148.242188 85.3125 C 145.078125 84.492188 138.164062 83.4375 139.21875 79.21875 C 133.359375 85.898438 119.414062 83.90625 115.78125 80.625 C 111.796875 86.367188 88.828125 84.140625 87.304688 79.6875 C 82.382812 85.546875 67.03125 85.546875 62.109375 79.6875 C 60.46875 84.140625 37.5 86.367188 33.632812 80.625 C 30.117188 83.90625 16.054688 85.898438 10.195312 79.21875 C 11.484375 83.320312 4.453125 84.492188 1.289062 85.3125 "/>
<path style=" stroke:none;fill-rule:nonzero;fill:rgb(74.901962%,85.882354%,87.843138%);fill-opacity:1;" d="M 65.625 114.609375 C 57.773438 110.859375 53.554688 105.820312 51.09375 100.3125 C 48.164062 101.132812 44.648438 101.71875 40.664062 101.953125 C 39.140625 102.070312 37.5 102.070312 35.859375 102.070312 C 33.867188 102.070312 31.875 102.070312 29.765625 101.953125 C 36.796875 108.984375 45.703125 114.492188 61.992188 114.609375 Z M 65.625 114.609375 "/>
<path style=" stroke:none;fill-rule:nonzero;fill:rgb(83.137256%,93.333334%,94.509804%);fill-opacity:1;" d="M 54.023438 105.351562 C 52.96875 103.828125 51.914062 102.070312 51.09375 100.3125 C 48.164062 101.132812 44.648438 101.71875 40.664062 101.953125 C 43.359375 103.359375 47.34375 104.765625 54.023438 105.351562 Z M 54.023438 105.351562 "/>
</g>
</svg>
