<?xml version="1.0" encoding="UTF-8"?>
<svg xmlns="http://www.w3.org/2000/svg" xmlns:xlink="http://www.w3.org/1999/xlink" width="153px" height="150px" viewBox="0 0 152 150" version="1.1">
<g id="surface1">
<path style=" stroke:none;fill-rule:nonzero;fill:rgb(52.549022%,85.490197%,18.431373%);fill-opacity:1;" d="M 139.761719 84.660156 C 146.238281 84.160156 151.46875 88.40625 151.964844 94.90625 C 152.464844 101.652344 147.730469 107.148438 141.253906 107.648438 C 135.027344 108.148438 129.550781 103.402344 129.050781 97.152344 C 128.554688 90.40625 133.035156 85.410156 139.761719 84.660156 "/>
<path style=" stroke:none;fill-rule:nonzero;fill:rgb(14.117648%,76.078433%,100%);fill-opacity:1;" d="M 61.054688 137.886719 C 61.054688 131.386719 66.039062 126.390625 72.015625 126.390625 C 77.992188 126.390625 83.722656 131.886719 83.722656 138.136719 C 83.722656 144.132812 78.738281 149.378906 73.011719 149.628906 C 65.789062 149.628906 61.054688 145.132812 61.054688 137.886719 "/>
<path style=" stroke:none;fill-rule:nonzero;fill:rgb(100%,79.607844%,7.058824%);fill-opacity:1;" d="M 78.738281 64.917969 C 77.742188 65.417969 77.246094 64.667969 76.996094 63.917969 C 67.78125 46.675781 70.519531 24.9375 86.710938 11.941406 C 90.945312 8.445312 98.914062 7.695312 102.402344 11.191406 C 103.894531 12.441406 104.144531 13.941406 104.394531 15.691406 C 104.890625 19.4375 105.640625 23.1875 108.128906 26.1875 C 110.871094 29.433594 114.355469 30.683594 118.339844 30.433594 C 121.828125 30.433594 125.316406 29.933594 127.558594 33.933594 C 128.800781 36.179688 128.304688 44.925781 126.3125 46.675781 C 125.316406 47.425781 124.566406 46.925781 123.820312 46.675781 C 118.09375 44.429688 112.113281 44.429688 106.136719 45.425781 C 104.144531 45.675781 103.148438 45.175781 103.148438 42.929688 C 102.898438 39.179688 102.152344 35.683594 100.160156 32.433594 C 96.421875 25.6875 89.449219 25.4375 84.964844 31.683594 C 81.230469 36.679688 80.234375 42.679688 79.238281 48.675781 C 78.242188 53.921875 78.492188 59.421875 78.738281 64.917969 C 78.738281 64.917969 78.492188 64.917969 78.738281 64.917969 "/>
<path style=" stroke:none;fill-rule:nonzero;fill:rgb(52.549022%,85.490197%,18.431373%);fill-opacity:1;" d="M 84.964844 68.667969 C 84.46875 67.917969 84.71875 67.167969 85.464844 66.667969 C 99.660156 53.671875 120.832031 51.175781 137.269531 63.917969 C 141.503906 67.417969 144.242188 74.664062 142.003906 78.910156 C 141.007812 80.660156 139.761719 81.410156 138.265625 81.910156 C 134.78125 83.410156 131.542969 84.910156 129.300781 88.15625 C 127.058594 91.40625 126.558594 95.15625 127.558594 99.152344 C 128.304688 102.402344 129.550781 105.898438 126.3125 108.898438 C 124.566406 110.648438 116.101562 112.148438 113.859375 110.648438 C 112.863281 109.898438 113.109375 109.148438 113.359375 108.148438 C 114.105469 101.902344 112.613281 96.152344 110.371094 90.65625 C 109.625 88.65625 109.871094 87.65625 111.867188 87.15625 C 115.351562 86.160156 118.589844 84.410156 121.082031 81.910156 C 126.558594 76.664062 125.316406 69.917969 118.09375 66.917969 C 112.363281 64.417969 106.386719 64.917969 100.65625 65.417969 C 95.179688 65.667969 89.949219 67.167969 84.964844 68.667969 "/>
<path style=" stroke:none;fill-rule:nonzero;fill:rgb(14.117648%,76.078433%,100%);fill-opacity:1;" d="M 81.730469 75.164062 C 82.476562 74.414062 82.972656 74.664062 83.722656 75.164062 C 100.160156 85.160156 108.628906 104.898438 101.15625 124.140625 C 99.164062 129.140625 92.6875 134.136719 87.957031 132.886719 C 85.960938 132.386719 84.964844 131.386719 83.96875 130.136719 C 81.730469 127.140625 79.238281 124.390625 75.5 123.140625 C 71.515625 121.890625 68.03125 122.640625 64.542969 124.640625 C 61.554688 126.390625 58.566406 128.640625 54.828125 126.390625 C 52.585938 125.140625 48.851562 117.394531 49.597656 114.894531 C 50.097656 113.894531 51.09375 113.894531 52.089844 113.894531 C 58.316406 112.894531 63.296875 109.898438 68.03125 105.898438 C 69.523438 104.648438 70.769531 104.648438 72.015625 106.398438 C 74.007812 109.398438 76.5 111.898438 79.734375 113.644531 C 86.210938 117.394531 92.4375 114.144531 93.1875 106.648438 C 93.933594 100.402344 91.691406 94.90625 89.699219 89.40625 C 87.457031 84.410156 84.71875 79.660156 81.730469 75.164062 "/>
<path style=" stroke:none;fill-rule:nonzero;fill:rgb(0%,41.176471%,85.490197%);fill-opacity:1;" d="M 73.757812 76.664062 C 72.761719 81.660156 70.519531 86.410156 67.53125 90.65625 C 58.566406 104.148438 45.613281 109.648438 29.671875 108.148438 C 23.945312 107.648438 19.214844 102.902344 18.714844 98.152344 C 18.464844 96.152344 18.964844 94.65625 20.210938 93.15625 C 21.953125 90.90625 23.445312 88.90625 24.195312 86.160156 C 25.6875 80.660156 23.695312 76.164062 19.710938 72.164062 C 14.230469 66.667969 14.980469 61.667969 21.453125 57.671875 C 22.203125 57.171875 23.199219 56.671875 24.195312 56.171875 C 25.6875 55.421875 26.933594 55.421875 27.433594 57.171875 C 29.671875 62.917969 34.15625 67.167969 39.136719 70.664062 C 40.882812 72.164062 40.882812 73.164062 39.386719 74.914062 C 36.398438 78.164062 34.65625 82.160156 34.40625 86.660156 C 33.90625 92.15625 37.144531 95.652344 42.625 95.652344 C 46.113281 95.652344 49.351562 94.40625 52.339844 92.90625 C 60.058594 88.90625 66.039062 83.160156 71.765625 77.164062 C 72.511719 76.914062 72.761719 76.414062 73.757812 76.664062 "/>
<path style=" stroke:none;fill-rule:nonzero;fill:rgb(100%,27.450982%,28.627452%);fill-opacity:1;" d="M 32.910156 24.1875 C 33.410156 24.1875 34.65625 24.4375 35.898438 24.6875 C 45.117188 26.4375 50.84375 23.1875 53.832031 14.441406 C 55.824219 8.695312 60.058594 6.945312 65.539062 9.945312 C 65.789062 9.945312 65.789062 10.195312 66.039062 10.195312 C 71.765625 13.441406 71.765625 13.941406 68.277344 18.941406 C 65.289062 22.9375 63.796875 27.4375 63.046875 32.183594 C 62.550781 34.933594 61.554688 35.433594 59.0625 34.433594 C 55.078125 32.933594 50.84375 32.933594 46.609375 34.433594 C 41.878906 35.933594 39.886719 40.179688 41.378906 44.925781 C 43.371094 51.175781 48.851562 53.921875 53.585938 57.171875 C 58.316406 60.421875 63.796875 62.167969 69.027344 64.417969 C 69.773438 64.667969 71.019531 64.667969 70.769531 65.917969 C 70.519531 66.667969 69.523438 66.667969 68.527344 66.667969 C 57.320312 67.167969 46.609375 65.417969 37.894531 57.921875 C 29.671875 51.175781 23.695312 42.929688 24.691406 31.433594 C 25.441406 27.683594 28.179688 24.9375 32.910156 24.1875 "/>
<path style=" stroke:none;fill-rule:nonzero;fill:rgb(0%,41.176471%,85.490197%);fill-opacity:1;" d="M 12.488281 94.40625 C 6.511719 95.15625 0.53125 90.15625 0.0351562 83.910156 C -0.464844 77.914062 4.519531 71.914062 10.246094 71.414062 C 16.722656 70.664062 22.699219 75.164062 23.199219 81.160156 C 23.445312 86.910156 19.710938 93.90625 12.488281 94.40625 "/>
<path style=" stroke:none;fill-rule:nonzero;fill:rgb(100%,79.607844%,7.058824%);fill-opacity:1;" d="M 117.097656 5.445312 C 123.324219 4.945312 129.300781 9.945312 129.796875 16.191406 C 130.296875 22.1875 125.316406 27.933594 119.335938 28.433594 C 112.863281 28.933594 107.132812 24.1875 106.636719 17.941406 C 106.136719 11.691406 110.621094 5.945312 117.097656 5.445312 "/>
<path style=" stroke:none;fill-rule:nonzero;fill:rgb(100%,27.450982%,28.627452%);fill-opacity:1;" d="M 52.089844 10.195312 C 52.835938 16.691406 48.355469 22.1875 41.628906 23.1875 C 35.898438 23.9375 29.921875 19.1875 29.175781 13.691406 C 28.429688 6.445312 32.414062 1.199219 39.136719 0.449219 C 45.363281 -0.300781 51.34375 4.445312 52.089844 10.195312 "/>
</g>
</svg>
