<?xml version="1.0" encoding="UTF-8"?>
<svg xmlns="http://www.w3.org/2000/svg" xmlns:xlink="http://www.w3.org/1999/xlink" width="128px" height="128px" viewBox="0 0 128 128" version="1.1">
<g id="surface1">
<path style=" stroke:none;fill-rule:nonzero;fill:rgb(19.607843%,42.745098%,90.196079%);fill-opacity:1;" d="M 36 116.550781 C 37.710938 118.777344 40.3125 120 42.992188 120 L 85 120 C 87.679688 120 90.28125 118.679688 92 116.527344 L 118.0625 83.105469 C 119.777344 80.878906 120.367188 78.039062 119.777344 75.28125 L 110.457031 33.625 C 109.878906 30.917969 108.089844 28.628906 105.609375 27.40625 L 67.894531 8.929688 C 66.695312 8.316406 65.363281 7.996094 64.015625 8 C 62.671875 8 61.335938 8.304688 60.136719 8.921875 L 22.414062 27.480469 C 19.9375 28.703125 18.152344 30.992188 17.574219 33.695312 L 8.257812 75.359375 C 7.585938 78.121094 8.257812 80.960938 9.96875 83.183594 L 36 116.542969 Z M 36 116.550781 "/>
<path style=" stroke:none;fill-rule:evenodd;fill:rgb(100%,100%,100%);fill-opacity:1;" d="M 101.929688 73.023438 C 102.710938 73.039062 103.496094 73.105469 104.273438 73.214844 L 104.734375 73.320312 L 104.984375 73.382812 C 105.667969 73.476562 106.28125 73.847656 106.675781 74.410156 C 107.070312 74.976562 107.210938 75.679688 107.0625 76.351562 C 106.910156 77.027344 106.480469 77.609375 105.875 77.949219 C 105.273438 78.289062 104.554688 78.355469 103.894531 78.136719 L 103.863281 78.136719 L 103.839844 78.128906 L 103.816406 78.113281 L 103.175781 77.984375 C 102.429688 77.742188 101.699219 77.460938 100.984375 77.136719 C 99.605469 76.582031 98.179688 76.160156 96.71875 75.878906 C 95.003906 76.324219 94.652344 76.265625 94.304688 76.207031 C 91.933594 83.640625 86.910156 89.9375 80.191406 93.902344 C 80.3125 94.238281 80.449219 94.566406 80.601562 94.886719 C 81.007812 97.6875 81.734375 98.984375 82.585938 100.199219 C 83.0625 100.824219 83.496094 101.480469 83.894531 102.152344 L 84.121094 102.609375 L 84.214844 102.808594 C 84.765625 103.714844 84.664062 104.875 83.96875 105.675781 C 83.277344 106.476562 82.144531 106.742188 81.167969 106.328125 L 79.710938 104.726562 C 79.207031 103.53125 78.96875 102.785156 78.777344 102.023438 C 78.351562 100.605469 77.789062 99.234375 77.097656 97.929688 L 75.609375 96.742188 L 75.328125 96.230469 C 68.046875 98.980469 60.011719 98.960938 52.742188 96.175781 L 52.183594 97.175781 C 50.292969 99.054688 49.65625 100.527344 49.230469 102.070312 C 49.042969 102.832031 48.804688 103.578125 48.527344 104.3125 L 48.222656 104.929688 L 48.222656 104.9375 C 47.992188 105.589844 47.492188 106.113281 46.847656 106.378906 C 46.207031 106.644531 45.480469 106.621094 44.855469 106.320312 L 43.910156 102.609375 L 44.121094 102.191406 C 44.519531 101.511719 44.953125 100.863281 45.433594 100.238281 C 46.296875 98.992188 47.03125 97.664062 47.648438 96.273438 L 47.871094 93.824219 C 41.179688 89.886719 36.160156 83.640625 33.761719 76.257812 L 32.6875 76.441406 C 29.820312 76.222656 28.394531 76.640625 27.015625 77.191406 C 26.296875 77.511719 25.566406 77.792969 24.824219 78.03125 L 24.183594 78.175781 L 24.160156 78.175781 L 24.144531 78.191406 L 24.105469 78.191406 C 23.277344 78.457031 22.375 78.269531 21.722656 77.695312 C 21.074219 77.125 20.769531 76.253906 20.929688 75.398438 L 23.054688 73.433594 L 23.070312 73.433594 L 23.121094 73.414062 C 23.3125 73.367188 23.550781 73.304688 23.726562 73.273438 C 24.503906 73.167969 25.289062 73.105469 26.070312 73.089844 C 27.558594 72.984375 29.03125 72.742188 30.464844 72.367188 L 32.535156 71.007812 C 31.425781 63.304688 33.207031 55.460938 37.535156 48.992188 L 36.753906 48.296875 C 35.128906 45.921875 33.910156 45.066406 32.617188 44.335938 C 31.917969 43.980469 31.238281 43.585938 30.585938 43.152344 L 30.199219 42.847656 L 30.078125 42.742188 L 30.046875 42.71875 C 28.886719 41.894531 28.613281 40.28125 29.441406 39.121094 L 33.273438 39.039062 C 33.398438 39.144531 33.542969 39.246094 33.640625 39.335938 C 34.214844 39.871094 34.753906 40.449219 35.257812 41.039062 C 36.257812 42.136719 37.359375 43.136719 38.550781 44.015625 C 39 44.257812 39.519531 44.304688 40.007812 44.160156 L 40.886719 44.785156 C 46.246094 39.101562 53.519531 35.613281 61.304688 34.992188 L 61.367188 33.960938 C 62.214844 31.214844 62.121094 29.734375 61.886719 28.273438 C 61.730469 27.503906 61.621094 26.730469 61.550781 25.953125 L 61.550781 25.257812 C 61.480469 24.566406 61.707031 23.875 62.175781 23.363281 C 62.640625 22.847656 63.304688 22.554688 64 22.558594 C 64.691406 22.5625 65.351562 22.855469 65.820312 23.367188 C 66.285156 23.878906 66.511719 24.566406 66.449219 25.257812 L 66.449219 25.953125 C 66.382812 26.730469 66.273438 27.503906 66.121094 28.273438 C 65.882812 29.734375 65.789062 31.214844 65.839844 32.695312 L 66.640625 33.976562 L 66.695312 35.007812 C 74.433594 35.710938 81.65625 39.183594 87.015625 44.792969 L 87.945312 44.136719 C 90.625 43.097656 91.726562 42.089844 92.726562 40.992188 C 93.230469 40.390625 93.769531 39.824219 94.34375 39.289062 L 94.753906 38.96875 L 94.886719 38.855469 C 95.554688 38.195312 96.542969 37.972656 97.429688 38.28125 C 98.316406 38.59375 98.949219 39.386719 99.058594 40.320312 C 99.164062 41.253906 98.730469 42.167969 97.9375 42.671875 L 97.742188 42.832031 C 97.625 42.929688 97.503906 43.03125 97.398438 43.105469 C 96.746094 43.539062 96.066406 43.933594 95.367188 44.289062 C 94.074219 45.019531 92.855469 45.878906 91.726562 46.847656 L 90.863281 48.574219 L 90.398438 49 C 94.734375 55.449219 96.558594 63.265625 95.496094 70.960938 L 96.480469 71.246094 C 96.726562 71.6875 97.097656 72.054688 97.542969 72.304688 C 98.976562 72.6875 100.449219 72.929688 101.929688 73.023438 Z M 58.328125 41.921875 C 59.183594 41.726562 60.054688 41.574219 60.9375 41.472656 L 60.214844 54.273438 L 60.152344 54.304688 L 56.710938 55.960938 L 46.183594 48.519531 C 49.535156 45.238281 53.742188 42.953125 58.328125 41.921875 Z M 71.273438 55.921875 L 81.734375 48.527344 C 77.75 44.636719 72.601562 42.15625 67.070312 41.472656 L 67.792969 54.257812 L 67.808594 54.257812 Z M 89.257812 69.167969 L 76.871094 65.601562 L 76.855469 65.550781 L 76 61.839844 L 85.558594 53.304688 C 88.488281 58.054688 89.777344 63.625 89.238281 69.167969 Z M 72.769531 76 L 77.710938 87.921875 C 82.441406 84.910156 86.027344 80.414062 87.910156 75.136719 L 75.167969 72.984375 L 75.152344 73.007812 Z M 69.6875 91.238281 C 65.105469 92.28125 60.328125 92.039062 55.871094 90.535156 L 62.089844 79.335938 L 62.097656 79.335938 C 62.472656 78.636719 63.199219 78.199219 63.992188 78.199219 C 64.785156 78.199219 65.515625 78.632812 65.894531 79.328125 L 65.945312 79.328125 L 72.175781 90.542969 C 71.359375 90.816406 70.527344 91.050781 69.6875 91.238281 Z M 50.34375 87.863281 L 55.230469 76.070312 L 55.199219 76.023438 C 55.519531 75.292969 55.40625 74.449219 54.90625 73.828125 C 54.40625 73.207031 53.605469 72.910156 52.824219 73.0625 L 52.800781 73.039062 L 40.167969 75.175781 C 42.070312 80.410156 45.648438 84.871094 50.34375 87.863281 Z M 42.367188 53.304688 L 51.976562 61.871094 L 51.96875 61.929688 C 52.566406 62.449219 52.828125 63.257812 52.648438 64.03125 C 52.472656 64.800781 51.882812 65.414062 51.121094 65.625 L 51.113281 65.664062 L 38.792969 69.207031 C 38.179688 63.65625 39.4375 58.058594 42.367188 53.304688 Z M 65.96875 62.535156 L 62.03125 62.535156 L 59.574219 65.574219 L 60.457031 69.382812 L 64 71.089844 L 67.535156 69.390625 L 68.414062 65.585938 Z M 65.96875 62.535156 "/>
</g>
</svg>
