<?xml version="1.0" encoding="UTF-8"?>
<svg xmlns="http://www.w3.org/2000/svg" xmlns:xlink="http://www.w3.org/1999/xlink" width="150px" height="150px" viewBox="0 0 150 150" version="1.1">
<g id="surface1">
<path style=" stroke:none;fill-rule:nonzero;fill:rgb(23.529412%,43.137255%,70.588237%);fill-opacity:1;" d="M 109.203125 70.082031 C 109.378906 71.167969 109.554688 72.253906 109.769531 73.316406 L 120.261719 73.316406 L 120.261719 70.082031 Z M 110.945312 78.164062 C 111.160156 78.90625 111.390625 79.644531 111.644531 80.382812 C 112.253906 80.683594 112.847656 81.023438 113.421875 81.402344 L 126.726562 81.402344 L 126.726562 78.164062 Z M 89.34375 79.664062 C 88.84375 79.847656 88.355469 80.058594 87.878906 80.289062 L 87.878906 80.292969 C 88.359375 80.0625 88.84375 79.847656 89.34375 79.664062 Z M 41.007812 120.175781 L 41.007812 123.410156 L 79.863281 123.410156 L 79.863281 120.175781 Z M 63.636719 128.257812 L 63.636719 131.484375 L 95.625 131.484375 L 95.625 128.257812 Z M 63.636719 128.257812 "/>
<path style=" stroke:none;fill-rule:nonzero;fill:rgb(80.000001%,80.000001%,80.000001%);fill-opacity:1;" d="M 71.617188 19.054688 C 65.863281 19.054688 60.226562 19.71875 56.867188 21.054688 C 47.621094 24.4375 40.519531 33.683594 38.417969 44.878906 C 35.644531 57.988281 35.808594 68.246094 33.058594 77.898438 C 34.316406 76.941406 35.710938 76.175781 37.195312 75.625 C 39.34375 74.777344 42.945312 74.347656 46.625 74.347656 C 50.304688 74.347656 54.066406 74.777344 56.507812 75.625 C 61.863281 77.585938 66.089844 82.609375 67.839844 88.851562 L 79.226562 88.851562 C 81.5625 84.535156 85.121094 81.207031 89.34375 79.664062 C 93.9375 77.84375 104.773438 77.847656 109.988281 79.664062 C 110.554688 79.871094 111.105469 80.121094 111.648438 80.390625 C 108.058594 70 108.515625 59.121094 105.503906 44.878906 C 103.398438 33.683594 96.296875 24.4375 87.050781 21.054688 C 83.238281 19.722656 77.371094 19.054688 71.617188 19.054688 Z M 71.617188 19.054688 "/>
<path style=" stroke:none;fill-rule:nonzero;fill:rgb(90.588236%,90.980393%,91.37255%);fill-opacity:1;" d="M 53.058594 58.34375 C 50.894531 58.347656 49.140625 60.195312 49.140625 62.472656 C 49.140625 64.75 50.894531 66.597656 53.058594 66.601562 C 55.21875 66.597656 56.972656 64.75 56.972656 62.472656 C 56.972656 60.195312 55.21875 58.347656 53.058594 58.34375 Z M 92.65625 58.34375 C 90.492188 58.347656 88.738281 60.195312 88.742188 62.472656 C 88.738281 64.75 90.492188 66.597656 92.65625 66.601562 C 93.695312 66.601562 94.695312 66.167969 95.429688 65.394531 C 96.167969 64.621094 96.582031 63.570312 96.582031 62.472656 C 96.582031 61.375 96.167969 60.324219 95.429688 59.550781 C 94.695312 58.777344 93.695312 58.34375 92.652344 58.34375 Z M 92.65625 58.34375 "/>
<path style=" stroke:none;fill-rule:nonzero;fill:rgb(65.490198%,66.274512%,67.450982%);fill-opacity:1;" d="M 59.65625 59.421875 L 45.089844 63.324219 L 45.507812 64.886719 L 60.074219 60.980469 Z M 87.21875 59.421875 L 86.796875 60.980469 L 101.359375 64.886719 L 101.78125 63.324219 Z M 61.113281 61.773438 L 46.464844 70.234375 L 47.273438 71.632812 L 61.917969 63.171875 Z M 85.765625 61.773438 L 84.957031 63.171875 L 99.605469 71.632812 L 100.414062 70.234375 Z M 62.183594 64.578125 L 52.097656 74.679688 C 52.785156 74.765625 53.4375 74.875 54.0625 74.996094 L 63.324219 65.722656 Z M 84.695312 64.578125 L 83.554688 65.722656 L 96.21875 78.40625 C 96.9375 78.359375 97.667969 78.328125 98.410156 78.3125 Z M 62.671875 68.257812 L 58.035156 76.296875 C 58.515625 76.535156 58.988281 76.796875 59.449219 77.082031 L 64.074219 69.0625 Z M 84.207031 68.257812 L 82.804688 69.0625 L 89 79.808594 C 89.117188 79.761719 89.226562 79.707031 89.34375 79.664062 C 89.707031 79.519531 90.125 79.390625 90.558594 79.273438 Z M 84.207031 68.257812 "/>
<path style=" stroke:none;fill-rule:nonzero;fill:rgb(100%,100%,100%);fill-opacity:1;" d="M 85.851562 59.578125 C 85.851562 66.191406 80.21875 71.550781 73.269531 71.550781 C 66.320312 71.554688 60.6875 66.191406 60.6875 59.578125 C 60.6875 52.964844 66.324219 47.605469 73.273438 47.605469 C 80.21875 47.605469 85.851562 52.964844 85.851562 59.578125 Z M 85.851562 59.578125 "/>
<path style=" stroke:none;fill-rule:nonzero;fill:rgb(50.196081%,50.196081%,50.196081%);fill-opacity:1;" d="M 78.640625 57.417969 C 78.21875 56.328125 78.21875 54.140625 76.953125 54.140625 C 75.6875 54.140625 74.515625 53.320312 73.273438 53.320312 C 72.027344 53.320312 70.859375 54.140625 69.589844 54.140625 C 68.324219 54.140625 68.324219 56.328125 67.902344 57.421875 C 67.480469 58.511719 73.273438 62.066406 73.273438 62.066406 C 73.273438 62.066406 79.0625 58.511719 78.640625 57.417969 Z M 78.640625 57.417969 "/>
<path style=" stroke:none;fill-rule:nonzero;fill:rgb(23.529412%,43.137255%,70.588237%);fill-opacity:1;" d="M 67.265625 87.058594 C 67.652344 88.097656 67.957031 89.179688 68.195312 90.292969 L 78.503906 90.292969 C 79.023438 89.152344 79.628906 88.070312 80.304688 87.058594 Z M 119.035156 87.058594 C 119.71875 88.089844 120.320312 89.167969 120.828125 90.292969 L 133.804688 90.292969 L 133.804688 87.058594 Z M 119.035156 87.058594 "/>
<path style=" stroke:none;fill-rule:nonzero;fill:rgb(80.000001%,80.000001%,80.000001%);fill-opacity:1;" d="M 46.628906 74.351562 C 42.949219 74.351562 39.34375 74.777344 37.195312 75.625 C 31.28125 77.789062 26.746094 83.6875 25.398438 90.832031 C 24.695312 94.144531 24.292969 97.148438 23.949219 99.980469 L 69.753906 99.980469 C 69.410156 97.148438 69.015625 94.144531 68.3125 90.832031 C 66.96875 83.6875 62.421875 77.789062 56.503906 75.628906 C 54.066406 74.777344 50.304688 74.351562 46.625 74.351562 Z M 46.628906 74.351562 "/>
<path style=" stroke:none;fill-rule:nonzero;fill:rgb(90.588236%,90.980393%,91.37255%);fill-opacity:1;" d="M 34.761719 99.421875 C 34.226562 99.4375 33.710938 99.632812 33.289062 99.980469 L 36.289062 99.980469 C 35.855469 99.621094 35.316406 99.425781 34.761719 99.421875 Z M 60.097656 99.421875 C 59.5625 99.4375 59.046875 99.632812 58.625 99.980469 L 61.628906 99.980469 C 61.191406 99.621094 60.652344 99.425781 60.097656 99.421875 Z M 60.097656 99.421875 "/>
<path style=" stroke:none;fill-rule:nonzero;fill:rgb(65.490198%,66.274512%,67.450982%);fill-opacity:1;" d="M 38.910156 99.828125 L 38.339844 99.980469 L 38.949219 99.980469 Z M 56.6875 99.828125 L 56.648438 99.980469 L 57.257812 99.980469 Z M 56.6875 99.828125 "/>
<path style=" stroke:none;fill-rule:nonzero;fill:rgb(100%,100%,100%);fill-opacity:1;" d="M 47.691406 92.578125 C 43.355469 92.589844 39.804688 95.863281 39.671875 99.980469 L 55.703125 99.980469 C 55.570312 95.867188 52.027344 92.59375 47.691406 92.578125 Z M 47.691406 92.578125 "/>
<path style=" stroke:none;fill-rule:nonzero;fill:rgb(50.196081%,50.196081%,50.196081%);fill-opacity:1;" d="M 47.691406 96.21875 C 46.894531 96.21875 46.148438 96.746094 45.339844 96.746094 C 44.53125 96.746094 44.523438 98.136719 44.253906 98.835938 C 44.160156 99.078125 44.570312 99.519531 45.117188 99.980469 L 50.269531 99.980469 C 50.816406 99.519531 51.214844 99.078125 51.121094 98.835938 C 50.851562 98.136719 50.855469 96.746094 50.046875 96.746094 C 49.234375 96.746094 48.488281 96.21875 47.691406 96.21875 Z M 47.691406 96.21875 "/>
<path style=" stroke:none;fill-rule:nonzero;fill:rgb(53.725493%,17.254902%,62.7451%);fill-opacity:1;" d="M 107.503906 1.71875 L 42.183594 1.910156 C 41.695312 1.914062 41.234375 2.136719 40.929688 2.519531 L 0.347656 53.769531 C 0.0429688 54.152344 -0.0664062 54.652344 0.0429688 55.128906 L 14.757812 118.835938 C 14.871094 119.316406 15.195312 119.71875 15.640625 119.929688 L 74.570312 148.128906 C 75.015625 148.335938 75.53125 148.332031 75.96875 148.117188 L 134.738281 119.574219 C 135.179688 119.359375 135.503906 118.953125 135.609375 118.46875 L 149.960938 54.683594 C 150.066406 54.203125 149.953125 53.703125 149.648438 53.324219 L 108.773438 2.316406 C 108.464844 1.933594 107.996094 1.714844 107.503906 1.71875 Z M 106.734375 4.953125 L 146.636719 54.734375 L 132.625 117.011719 L 75.269531 144.871094 L 17.742188 117.355469 L 3.367188 55.160156 L 42.976562 5.136719 Z M 106.734375 4.953125 "/>
<path style=" stroke:none;fill-rule:nonzero;fill:rgb(80.000001%,80.000001%,80.000001%);fill-opacity:1;" d="M 124.972656 112.191406 C 124.261719 107.359375 123.917969 102.101562 122.609375 95.917969 C 121.167969 88.28125 116.3125 81.972656 109.988281 79.664062 C 104.773438 77.847656 93.9375 77.84375 89.34375 79.664062 C 83.023438 81.972656 78.164062 88.28125 76.726562 95.917969 C 75.414062 102.101562 75.070312 107.359375 74.359375 112.191406 "/>
<path style=" stroke:none;fill-rule:nonzero;fill:rgb(90.588236%,90.980393%,91.37255%);fill-opacity:1;" d="M 86.742188 105.101562 C 85.261719 105.105469 84.0625 106.367188 84.0625 107.921875 C 84.0625 109.480469 85.261719 110.742188 86.742188 110.742188 C 88.222656 110.742188 89.421875 109.476562 89.417969 107.921875 C 89.421875 106.367188 88.222656 105.105469 86.742188 105.101562 Z M 113.824219 105.101562 C 112.34375 105.105469 111.144531 106.367188 111.144531 107.921875 C 111.144531 109.480469 112.34375 110.742188 113.824219 110.742188 C 115.304688 110.742188 116.503906 109.476562 116.5 107.921875 C 116.503906 106.367188 115.304688 105.105469 113.824219 105.101562 Z M 113.824219 105.101562 "/>
<path style=" stroke:none;fill-rule:nonzero;fill:rgb(65.490198%,66.274512%,67.450982%);fill-opacity:1;" d="M 91.1875 105.589844 L 81.226562 108.257812 L 81.648438 109.820312 L 91.605469 107.152344 Z M 110.167969 105.589844 L 109.75 107.152344 L 119.710938 109.820312 L 120.128906 108.257812 Z M 92.121094 107.222656 L 82.109375 112.996094 L 82.914062 114.390625 L 92.925781 108.621094 Z M 109.234375 107.222656 L 108.429688 108.621094 L 118.4375 114.390625 L 119.246094 112.996094 Z M 109.234375 107.222656 "/>
<path style=" stroke:none;fill-rule:nonzero;fill:rgb(100%,100%,100%);fill-opacity:1;" d="M 109.167969 105.949219 C 109.167969 110.460938 105.316406 114.117188 100.5625 114.117188 C 95.8125 114.117188 91.960938 110.460938 91.960938 105.949219 C 91.960938 101.4375 95.8125 97.78125 100.5625 97.78125 C 105.316406 97.78125 109.167969 101.4375 109.167969 105.949219 Z M 109.167969 105.949219 "/>
<path style=" stroke:none;fill-rule:nonzero;fill:rgb(50.196081%,50.196081%,50.196081%);fill-opacity:1;" d="M 104.234375 104.476562 C 103.949219 103.730469 103.949219 102.238281 103.082031 102.238281 C 102.21875 102.238281 101.417969 101.679688 100.566406 101.679688 C 99.710938 101.679688 98.914062 102.238281 98.046875 102.238281 C 97.179688 102.238281 97.179688 103.730469 96.890625 104.476562 C 96.605469 105.222656 100.566406 107.644531 100.566406 107.644531 C 100.566406 107.644531 104.527344 105.222656 104.234375 104.476562 Z M 104.234375 104.476562 "/>
<path style=" stroke:none;fill-rule:nonzero;fill:rgb(37.64706%,37.64706%,35.686275%);fill-opacity:1;" d="M 73.273438 46.398438 C 65.703125 46.398438 59.480469 52.28125 59.480469 59.582031 C 59.480469 66.882812 65.703125 72.769531 73.273438 72.769531 C 80.84375 72.769531 87.066406 66.882812 87.066406 59.582031 C 87.066406 52.28125 80.84375 46.398438 73.273438 46.398438 Z M 73.273438 48.820312 C 79.597656 48.820312 84.644531 53.660156 84.644531 59.582031 C 84.644531 65.507812 79.597656 70.34375 73.273438 70.34375 C 66.949219 70.34375 61.902344 65.507812 61.902344 59.582031 C 61.902344 53.660156 66.949219 48.820312 73.273438 48.820312 Z M 47.691406 91.359375 C 42.707031 91.359375 38.574219 95.179688 38.441406 99.980469 L 40.867188 99.980469 C 40.996094 96.558594 43.957031 93.785156 47.691406 93.785156 C 51.429688 93.785156 54.386719 96.558594 54.519531 99.980469 L 56.941406 99.980469 C 56.808594 95.183594 52.675781 91.359375 47.691406 91.359375 Z M 100.566406 96.570312 C 95.195312 96.570312 90.746094 100.742188 90.746094 105.945312 C 90.746094 111.148438 95.195312 115.328125 100.566406 115.328125 C 105.941406 115.328125 110.386719 111.148438 110.386719 105.945312 C 110.386719 100.742188 105.941406 96.570312 100.566406 96.570312 Z M 100.566406 98.996094 C 104.699219 98.996094 107.960938 102.121094 107.960938 105.945312 C 107.960938 109.765625 104.699219 112.902344 100.566406 112.902344 C 96.4375 112.902344 93.171875 109.765625 93.171875 105.945312 C 93.171875 102.125 96.4375 98.996094 100.566406 98.996094 Z M 100.566406 98.996094 "/>
<path style=" stroke:none;fill-rule:nonzero;fill:rgb(23.529412%,43.137255%,70.588237%);fill-opacity:1;" d="M 18.707031 99.980469 L 18.707031 103.214844 L 75.496094 103.214844 C 75.636719 102.164062 75.792969 101.085938 75.972656 99.980469 Z M 47.480469 112.101562 L 47.480469 115.328125 L 131.460938 115.328125 L 131.460938 112.101562 L 124.960938 112.101562 L 124.976562 112.191406 L 74.359375 112.191406 L 74.371094 112.101562 Z M 47.480469 112.101562 "/>
<path style=" stroke:none;fill-rule:nonzero;fill:rgb(0%,0%,0%);fill-opacity:1;" d="M 71.621094 17.84375 L 71.617188 17.84375 C 65.78125 17.84375 60.097656 18.480469 56.4375 19.933594 C 46.730469 23.5 39.410156 33.085938 37.234375 44.632812 C 35.300781 53.789062 34.785156 61.535156 33.753906 68.546875 C 33.316406 71.546875 32.773438 74.402344 32.003906 77.191406 C 28.0625 80.304688 25.234375 85.121094 24.199219 90.609375 C 23.476562 94.023438 23.078125 97.101562 22.730469 99.980469 L 25.164062 99.980469 C 25.503906 97.203125 25.898438 94.285156 26.574219 91.085938 L 26.585938 91.074219 L 26.585938 91.054688 C 27.863281 84.277344 32.175781 78.757812 37.609375 76.773438 L 37.632812 76.761719 L 37.640625 76.753906 C 39.484375 76.023438 43.039062 75.566406 46.625 75.566406 C 50.210938 75.566406 53.90625 76.011719 56.101562 76.773438 C 61.53125 78.761719 65.839844 84.28125 67.117188 91.054688 L 67.117188 91.074219 L 67.125 91.085938 C 67.804688 94.285156 68.195312 97.203125 68.535156 99.980469 L 70.972656 99.980469 C 70.625 97.101562 70.226562 94.015625 69.5 90.597656 C 68.082031 83.089844 63.3125 76.824219 56.921875 74.492188 L 56.914062 74.492188 L 56.902344 74.480469 C 54.21875 73.546875 50.398438 73.144531 46.625 73.140625 C 42.859375 73.140625 39.210938 73.53125 36.757812 74.5 C 36.152344 74.722656 35.5625 74.992188 34.988281 75.285156 C 35.460938 73.171875 35.851562 71.042969 36.160156 68.902344 C 37.207031 61.753906 37.699219 54.097656 39.597656 45.128906 L 39.609375 45.117188 L 39.609375 45.097656 C 41.644531 34.269531 48.523438 25.402344 57.289062 22.195312 L 57.300781 22.1875 L 57.316406 22.1875 C 60.371094 20.972656 65.960938 20.269531 71.621094 20.269531 C 77.273438 20.269531 83.0625 20.953125 86.632812 22.195312 C 95.398438 25.402344 102.277344 34.269531 104.308594 45.097656 L 104.320312 45.121094 L 104.320312 45.128906 C 106.214844 54.097656 106.71875 61.753906 107.769531 68.902344 C 108.242188 72.125 108.855469 75.242188 109.738281 78.320312 C 106.933594 77.46875 103.171875 77.089844 99.429688 77.089844 C 95.410156 77.089844 91.523438 77.511719 88.925781 78.539062 C 82.132812 81.023438 77.058594 87.679688 75.546875 95.671875 C 74.214844 101.949219 73.859375 107.246094 73.160156 112.011719 L 75.5625 112.367188 C 76.285156 107.464844 76.617188 102.257812 77.90625 96.167969 L 77.917969 96.15625 L 77.917969 96.148438 C 79.289062 88.875 83.921875 82.933594 89.765625 80.800781 L 89.773438 80.800781 L 89.796875 80.789062 C 91.789062 79.996094 95.59375 79.511719 99.433594 79.511719 C 103.269531 79.511719 107.222656 79.988281 109.585938 80.808594 L 109.597656 80.808594 C 115.429688 82.949219 120.054688 88.882812 121.421875 96.144531 L 121.421875 96.167969 C 122.710938 102.253906 123.054688 107.464844 123.773438 112.363281 L 126.179688 112.011719 C 125.480469 107.246094 125.125 101.949219 123.792969 95.667969 C 122.453125 88.570312 118.296875 82.527344 112.625 79.523438 C 111.449219 75.992188 110.726562 72.382812 110.164062 68.546875 C 109.136719 61.539062 108.628906 53.800781 106.695312 44.652344 C 104.523438 33.089844 97.199219 23.472656 87.472656 19.914062 L 87.453125 19.914062 C 83.394531 18.496094 77.46875 17.84375 71.621094 17.84375 Z M 53.375 32.449219 C 50.851562 32.433594 48.464844 33.597656 46.921875 35.59375 L 46.179688 36.546875 L 48.109375 38.03125 L 48.847656 37.066406 C 49.871094 35.765625 51.40625 34.96875 53.058594 34.875 C 54.582031 34.8125 56.164062 35.421875 57.246094 36.5 L 58.109375 37.359375 L 59.824219 35.636719 L 58.960938 34.785156 C 57.46875 33.3125 55.464844 32.476562 53.371094 32.453125 Z M 92.480469 32.449219 C 90.386719 32.472656 88.382812 33.3125 86.890625 34.785156 L 86.03125 35.636719 L 87.734375 37.359375 L 88.597656 36.5 C 89.714844 35.410156 91.226562 34.824219 92.785156 34.875 C 94.398438 34.945312 96.019531 35.785156 97.003906 37.066406 L 97.746094 38.03125 L 99.664062 36.546875 L 98.921875 35.59375 C 97.382812 33.597656 95 32.4375 92.480469 32.449219 Z M 53.3125 43.132812 C 49.96875 43.132812 47.257812 45.914062 47.257812 49.347656 C 47.253906 52.78125 49.96875 55.5625 53.3125 55.566406 C 56.660156 55.570312 59.375 52.785156 59.375 49.347656 C 59.375 45.910156 56.660156 43.128906 53.3125 43.128906 Z M 92.53125 43.132812 C 89.1875 43.132812 86.476562 45.914062 86.476562 49.347656 C 86.476562 52.78125 89.1875 55.5625 92.53125 55.566406 C 95.878906 55.5625 98.589844 52.78125 98.589844 49.347656 C 98.589844 45.914062 95.878906 43.132812 92.535156 43.132812 Z M 73.273438 52.105469 C 72.382812 52.105469 71.65625 52.378906 71.050781 52.585938 C 70.445312 52.789062 69.960938 52.929688 69.589844 52.929688 C 68.925781 52.929688 68.273438 53.292969 67.917969 53.722656 C 67.5625 54.148438 67.394531 54.589844 67.265625 55.007812 C 67.007812 55.84375 66.882812 56.691406 66.769531 56.988281 C 66.511719 57.660156 66.757812 58.195312 66.964844 58.546875 C 67.167969 58.898438 67.421875 59.175781 67.703125 59.460938 C 68.269531 60.03125 68.988281 60.601562 69.710938 61.132812 C 70.453125 61.679688 71.199219 62.171875 71.75 62.535156 L 71.722656 63.019531 C 71.449219 63.242188 70.785156 63.832031 69.683594 64.207031 C 69.03125 64.425781 68.375 64.503906 67.804688 64.359375 C 67.320312 64.234375 66.839844 63.808594 66.34375 63.164062 C 66.375 62.90625 66.386719 62.804688 66.445312 62.382812 C 66.546875 61.648438 66.695312 60.757812 66.761719 60.492188 L 64.40625 59.90625 C 64.265625 60.46875 64.148438 61.289062 64.042969 62.046875 C 63.9375 62.808594 63.859375 63.457031 63.859375 63.457031 L 63.808594 63.890625 L 64.042969 64.257812 C 64.894531 65.597656 66.035156 66.414062 67.207031 66.710938 C 68.378906 67.011719 69.515625 66.832031 70.464844 66.511719 C 71.695312 66.09375 72.699219 65.421875 73.25 65 C 73.804688 65.421875 74.804688 66.09375 76.03125 66.511719 C 76.980469 66.832031 78.105469 67.011719 79.277344 66.710938 C 80.449219 66.414062 81.589844 65.597656 82.441406 64.257812 L 82.675781 63.894531 L 82.625 63.457031 C 82.625 63.457031 82.546875 62.808594 82.441406 62.046875 C 82.335938 61.285156 82.214844 60.46875 82.074219 59.90625 L 79.722656 60.492188 C 79.789062 60.757812 79.9375 61.644531 80.039062 62.382812 C 80.09375 62.796875 80.109375 62.898438 80.140625 63.152344 C 79.640625 63.804688 79.167969 64.234375 78.679688 64.359375 C 78.109375 64.503906 77.453125 64.425781 76.800781 64.207031 C 75.699219 63.832031 75.035156 63.242188 74.761719 63.019531 L 74.742188 62.566406 C 75.304688 62.203125 76.0625 61.699219 76.832031 61.136719 C 77.554688 60.601562 78.273438 60.03125 78.839844 59.460938 C 79.121094 59.175781 79.375 58.898438 79.578125 58.546875 C 79.789062 58.195312 80.03125 57.660156 79.773438 56.988281 C 79.660156 56.695312 79.523438 55.84375 79.265625 55.007812 C 79.136719 54.589844 78.984375 54.148438 78.628906 53.71875 C 78.273438 53.292969 77.621094 52.929688 76.953125 52.929688 C 76.582031 52.929688 76.097656 52.789062 75.496094 52.585938 C 74.890625 52.378906 74.164062 52.109375 73.273438 52.109375 Z M 73.273438 54.53125 C 73.628906 54.53125 74.105469 54.671875 74.714844 54.875 C 75.273438 55.066406 75.980469 55.273438 76.78125 55.3125 C 76.808594 55.351562 76.882812 55.488281 76.953125 55.726562 C 77.085938 56.148438 77.21875 56.792969 77.398438 57.421875 C 77.339844 57.5 77.269531 57.601562 77.117188 57.753906 C 76.71875 58.160156 76.0625 58.683594 75.390625 59.175781 C 74.359375 59.933594 73.714844 60.328125 73.273438 60.605469 C 72.832031 60.328125 72.175781 59.9375 71.140625 59.175781 C 70.46875 58.683594 69.828125 58.160156 69.429688 57.753906 C 69.273438 57.601562 69.203125 57.5 69.148438 57.421875 C 69.328125 56.792969 69.460938 56.152344 69.589844 55.726562 C 69.628906 55.582031 69.6875 55.445312 69.765625 55.3125 C 70.566406 55.273438 71.261719 55.066406 71.820312 54.875 C 72.429688 54.671875 72.917969 54.53125 73.273438 54.53125 Z M 34.667969 82.464844 C 33.027344 82.535156 31.492188 83.335938 30.488281 84.636719 L 29.75 85.601562 L 31.667969 87.082031 L 32.40625 86.117188 C 32.988281 85.386719 33.851562 84.941406 34.78125 84.886719 C 35.65625 84.863281 36.503906 85.191406 37.132812 85.800781 L 37.996094 86.652344 L 39.699219 84.929688 L 38.835938 84.078125 C 37.730469 82.984375 36.222656 82.402344 34.667969 82.464844 Z M 60.261719 82.464844 C 58.710938 82.398438 57.203125 82.984375 56.101562 84.078125 L 55.238281 84.929688 L 56.941406 86.652344 L 57.804688 85.800781 C 58.433594 85.191406 59.28125 84.863281 60.15625 84.886719 C 61.085938 84.941406 61.949219 85.386719 62.53125 86.117188 L 63.261719 87.082031 L 65.1875 85.601562 L 64.445312 84.636719 C 63.4375 83.332031 61.90625 82.539062 60.261719 82.464844 Z M 113.703125 87.046875 L 113.699219 87.046875 C 112.167969 87.066406 110.703125 87.679688 109.613281 88.753906 L 108.75 89.605469 L 110.457031 91.328125 L 111.316406 90.476562 C 112.007812 89.8125 112.9375 89.453125 113.894531 89.484375 C 114.878906 89.527344 115.886719 90.042969 116.488281 90.824219 L 117.230469 91.785156 L 119.148438 90.304688 L 118.40625 89.34375 C 117.347656 87.96875 115.738281 87.132812 114.003906 87.058594 C 113.902344 87.054688 113.804688 87.046875 113.703125 87.046875 Z M 86.957031 87.046875 C 86.851562 87.046875 86.753906 87.054688 86.652344 87.058594 C 84.914062 87.132812 83.300781 87.96875 82.238281 89.34375 L 81.5 90.304688 L 83.425781 91.789062 L 84.164062 90.824219 C 84.796875 90.027344 85.738281 89.539062 86.75 89.484375 C 87.710938 89.453125 88.644531 89.8125 89.335938 90.476562 L 90.199219 91.328125 L 91.90625 89.605469 L 91.042969 88.753906 C 89.953125 87.679688 88.488281 87.066406 86.957031 87.050781 Z M 34.921875 89.71875 C 32.78125 89.71875 31.050781 91.492188 31.046875 93.683594 C 31.046875 94.738281 31.453125 95.746094 32.179688 96.492188 C 32.90625 97.238281 33.894531 97.660156 34.921875 97.660156 C 35.949219 97.660156 36.9375 97.238281 37.664062 96.492188 C 38.390625 95.746094 38.796875 94.738281 38.796875 93.683594 C 38.792969 91.492188 37.0625 89.71875 34.921875 89.71875 Z M 60.015625 89.71875 C 58.984375 89.714844 57.996094 90.132812 57.269531 90.875 C 56.539062 91.621094 56.128906 92.628906 56.128906 93.683594 C 56.128906 94.738281 56.535156 95.75 57.265625 96.496094 C 57.992188 97.242188 58.984375 97.660156 60.015625 97.660156 C 61.042969 97.660156 62.03125 97.238281 62.757812 96.492188 C 63.484375 95.746094 63.890625 94.738281 63.886719 93.683594 C 63.886719 91.492188 62.152344 89.71875 60.015625 89.71875 Z M 86.914062 94.726562 C 84.628906 94.734375 82.777344 96.628906 82.773438 98.96875 C 82.777344 101.304688 84.628906 103.203125 86.910156 103.207031 C 89.203125 103.210938 91.058594 101.3125 91.0625 98.96875 C 91.058594 96.625 89.199219 94.726562 86.914062 94.726562 Z M 113.738281 94.726562 C 111.449219 94.726562 109.59375 96.625 109.589844 98.96875 C 109.59375 101.3125 111.449219 103.210938 113.738281 103.207031 C 116.027344 103.203125 117.878906 101.308594 117.878906 98.96875 C 117.878906 96.628906 116.023438 94.730469 113.738281 94.726562 Z M 47.691406 95.011719 C 47.027344 95.011719 46.515625 95.207031 46.128906 95.335938 C 45.742188 95.46875 45.484375 95.53125 45.339844 95.53125 C 44.789062 95.53125 44.21875 95.851562 43.929688 96.199219 C 43.640625 96.546875 43.523438 96.878906 43.433594 97.171875 C 43.25 97.761719 43.164062 98.304688 43.128906 98.398438 C 42.886719 99.023438 43.117188 99.5 43.28125 99.78125 C 43.324219 99.859375 43.375 99.914062 43.421875 99.980469 L 47.125 99.980469 C 46.941406 99.863281 46.761719 99.738281 46.585938 99.605469 C 46.167969 99.296875 45.757812 98.972656 45.53125 98.746094 L 45.53125 98.734375 C 45.605469 98.429688 45.691406 98.0625 45.746094 97.890625 C 45.75 97.871094 45.75 97.890625 45.757812 97.875 C 46.183594 97.8125 46.613281 97.726562 46.898438 97.628906 C 47.289062 97.496094 47.558594 97.4375 47.691406 97.4375 C 47.824219 97.4375 48.082031 97.496094 48.472656 97.628906 C 48.757812 97.726562 49.191406 97.8125 49.617188 97.875 C 49.625 97.890625 49.621094 97.875 49.628906 97.890625 C 49.683594 98.0625 49.777344 98.425781 49.851562 98.734375 L 49.839844 98.746094 C 49.613281 98.972656 49.207031 99.296875 48.789062 99.605469 C 48.613281 99.734375 48.4375 99.859375 48.261719 99.980469 L 51.964844 99.980469 C 52.011719 99.917969 52.058594 99.855469 52.101562 99.78125 C 52.265625 99.5 52.496094 99.023438 52.253906 98.398438 C 52.21875 98.304688 52.121094 97.761719 51.9375 97.171875 C 51.84375 96.816406 51.675781 96.484375 51.441406 96.199219 C 51.15625 95.851562 50.59375 95.53125 50.046875 95.53125 C 49.902344 95.53125 49.640625 95.46875 49.253906 95.335938 C 48.867188 95.207031 48.355469 95.011719 47.691406 95.011719 Z M 100.566406 100.46875 C 99.875 100.46875 99.335938 100.675781 98.921875 100.816406 C 98.507812 100.953125 98.222656 101.027344 98.050781 101.027344 C 97.484375 101.027344 96.90625 101.347656 96.609375 101.707031 C 96.3125 102.0625 96.1875 102.410156 96.09375 102.71875 C 95.898438 103.339844 95.804688 103.917969 95.757812 104.039062 C 95.515625 104.671875 95.75 105.152344 95.917969 105.4375 C 96.085938 105.726562 96.28125 105.929688 96.488281 106.140625 C 96.902344 106.554688 97.402344 106.945312 97.90625 107.3125 C 98.324219 107.621094 98.730469 107.894531 99.074219 108.128906 C 98.847656 108.308594 98.542969 108.558594 97.988281 108.746094 C 97.589844 108.878906 97.21875 108.910156 96.921875 108.835938 C 96.707031 108.78125 96.464844 108.53125 96.222656 108.261719 C 96.242188 108.113281 96.246094 108.101562 96.273438 107.914062 C 96.34375 107.417969 96.445312 106.796875 96.476562 106.667969 L 94.125 106.078125 C 94.015625 106.511719 93.945312 107.054688 93.871094 107.578125 C 93.796875 108.101562 93.75 108.554688 93.75 108.554688 L 93.699219 108.976562 L 93.933594 109.34375 C 94.558594 110.328125 95.429688 110.960938 96.324219 111.191406 C 97.21875 111.417969 98.066406 111.273438 98.757812 111.039062 C 99.394531 110.816406 99.996094 110.503906 100.542969 110.113281 C 100.964844 110.410156 101.585938 110.785156 102.332031 111.039062 C 103.027344 111.273438 103.867188 111.417969 104.761719 111.191406 C 105.660156 110.960938 106.53125 110.328125 107.15625 109.34375 L 107.390625 108.976562 L 107.339844 108.554688 C 107.339844 108.554688 107.28125 108.101562 107.207031 107.582031 C 107.136719 107.058594 107.0625 106.511719 106.957031 106.078125 L 104.601562 106.667969 C 104.636719 106.796875 104.746094 107.417969 104.816406 107.914062 C 104.839844 108.101562 104.835938 108.109375 104.855469 108.261719 C 104.613281 108.53125 104.378906 108.78125 104.164062 108.835938 C 103.871094 108.910156 103.496094 108.878906 103.097656 108.746094 C 102.558594 108.5625 102.265625 108.320312 102.035156 108.136719 C 102.386719 107.902344 102.796875 107.625 103.222656 107.316406 C 103.726562 106.945312 104.226562 106.554688 104.640625 106.140625 C 104.859375 105.933594 105.050781 105.695312 105.210938 105.4375 C 105.378906 105.152344 105.605469 104.671875 105.363281 104.039062 C 105.316406 103.917969 105.21875 103.339844 105.027344 102.71875 C 104.933594 102.410156 104.816406 102.0625 104.519531 101.703125 C 104.222656 101.347656 103.644531 101.023438 103.082031 101.023438 C 102.910156 101.023438 102.625 100.953125 102.207031 100.8125 C 101.796875 100.671875 101.257812 100.46875 100.566406 100.46875 Z M 100.566406 102.894531 C 100.726562 102.894531 101.011719 102.964844 101.429688 103.105469 C 101.84375 103.230469 102.265625 103.320312 102.695312 103.367188 C 102.710938 103.402344 102.695312 103.378906 102.714844 103.4375 C 102.777344 103.644531 102.878906 104.039062 102.96875 104.394531 L 102.925781 104.433594 C 102.570312 104.769531 102.191406 105.082031 101.792969 105.367188 C 101.199219 105.800781 100.917969 105.964844 100.566406 106.1875 C 100.214844 105.964844 99.933594 105.804688 99.339844 105.367188 C 98.9375 105.082031 98.558594 104.773438 98.199219 104.433594 C 98.175781 104.40625 98.183594 104.40625 98.164062 104.382812 C 98.25 104.03125 98.34375 103.640625 98.40625 103.441406 C 98.421875 103.378906 98.417969 103.402344 98.433594 103.371094 C 98.859375 103.320312 99.28125 103.230469 99.691406 103.105469 C 100.109375 102.964844 100.402344 102.894531 100.5625 102.894531 Z M 100.566406 102.894531 "/>
<path style=" stroke:none;fill-rule:nonzero;fill:rgb(53.725493%,17.254902%,62.7451%);fill-opacity:1;" d="M 53.308594 41.925781 C 51.371094 41.925781 49.519531 42.714844 48.175781 44.109375 C 47.339844 44.964844 46.722656 46.007812 46.375 47.152344 C 46.121094 47.984375 46.015625 48.855469 46.058594 49.726562 C 46.175781 52.039062 47.351562 54.167969 49.25 55.496094 C 49.734375 55.832031 50.257812 56.109375 50.8125 56.316406 C 52.539062 56.96875 54.453125 56.921875 56.144531 56.1875 C 56.792969 55.90625 57.398438 55.53125 57.9375 55.070312 C 58.570312 54.539062 59.109375 53.902344 59.53125 53.1875 C 60.421875 51.695312 60.761719 49.941406 60.5 48.222656 C 60.355469 47.265625 60.027344 46.34375 59.53125 45.507812 C 58.984375 44.59375 58.253906 43.804688 57.378906 43.195312 C 56.890625 42.859375 56.367188 42.585938 55.8125 42.375 C 55.011719 42.074219 54.167969 41.921875 53.3125 41.921875 Z M 92.53125 41.925781 C 91.679688 41.925781 90.832031 42.078125 90.035156 42.378906 C 89.371094 42.628906 88.746094 42.976562 88.1875 43.410156 C 87.53125 43.910156 86.964844 44.519531 86.511719 45.210938 C 85.414062 46.867188 85.023438 48.890625 85.417969 50.835938 C 85.703125 52.25 86.390625 53.550781 87.394531 54.585938 C 87.890625 55.089844 88.453125 55.523438 89.070312 55.871094 C 89.695312 56.21875 90.367188 56.472656 91.066406 56.621094 C 91.792969 56.773438 92.539062 56.8125 93.277344 56.734375 C 94.707031 56.585938 96.0625 56.003906 97.15625 55.066406 C 97.878906 54.457031 98.476562 53.710938 98.921875 52.875 C 99.617188 51.5625 99.910156 50.070312 99.757812 48.59375 C 99.648438 47.503906 99.304688 46.453125 98.746094 45.511719 C 98.140625 44.496094 97.300781 43.636719 96.300781 43.007812 C 95.695312 42.628906 95.039062 42.34375 94.351562 42.160156 C 93.757812 42.003906 93.148438 41.921875 92.535156 41.925781 Z M 53.308594 44.339844 L 53.3125 44.339844 C 53.558594 44.339844 53.804688 44.355469 54.050781 44.394531 C 54.601562 44.480469 55.136719 44.664062 55.625 44.9375 C 56.039062 45.164062 56.414062 45.453125 56.746094 45.792969 C 57.191406 46.25 57.546875 46.792969 57.789062 47.386719 C 58.011719 47.925781 58.136719 48.503906 58.164062 49.085938 C 58.191406 49.683594 58.121094 50.277344 57.949219 50.851562 C 57.765625 51.46875 57.460938 52.042969 57.058594 52.550781 C 56.664062 53.042969 56.175781 53.453125 55.625 53.761719 C 54.695312 54.277344 53.621094 54.464844 52.574219 54.300781 C 51.386719 54.117188 50.316406 53.488281 49.570312 52.546875 C 49.167969 52.042969 48.863281 51.464844 48.679688 50.847656 C 48.535156 50.359375 48.460938 49.855469 48.464844 49.347656 C 48.464844 48.839844 48.539062 48.335938 48.683594 47.847656 C 48.867188 47.230469 49.171875 46.652344 49.574219 46.148438 C 49.96875 45.660156 50.453125 45.246094 51.003906 44.9375 C 51.632812 44.585938 52.339844 44.382812 53.0625 44.34375 C 53.144531 44.339844 53.226562 44.339844 53.308594 44.339844 Z M 92.53125 44.339844 C 93.023438 44.339844 93.507812 44.414062 93.972656 44.5625 C 94.578125 44.753906 95.132812 45.0625 95.613281 45.476562 C 96.101562 45.886719 96.5 46.386719 96.796875 46.949219 C 97.105469 47.535156 97.296875 48.171875 97.355469 48.832031 C 97.453125 49.839844 97.257812 50.851562 96.792969 51.75 C 96.5 52.308594 96.097656 52.8125 95.613281 53.222656 C 95.253906 53.527344 94.851562 53.78125 94.417969 53.96875 C 93.214844 54.492188 91.851562 54.492188 90.648438 53.96875 C 90.070312 53.71875 89.546875 53.355469 89.105469 52.902344 C 88.660156 52.441406 88.308594 51.902344 88.066406 51.308594 C 87.84375 50.769531 87.71875 50.191406 87.691406 49.609375 C 87.671875 49.179688 87.703125 48.75 87.785156 48.332031 C 87.910156 47.691406 88.160156 47.082031 88.515625 46.535156 C 88.859375 46.007812 89.304688 45.550781 89.824219 45.1875 C 90.28125 44.871094 90.789062 44.636719 91.324219 44.496094 C 91.71875 44.390625 92.125 44.335938 92.53125 44.339844 Z M 34.789062 88.507812 C 34.746094 88.507812 34.703125 88.507812 34.660156 88.507812 C 31.96875 88.648438 29.84375 90.941406 29.84375 93.683594 C 29.84375 96.511719 32.113281 98.867188 34.921875 98.867188 C 37.734375 98.867188 40.015625 96.511719 40.015625 93.683594 C 40.015625 90.851562 37.734375 88.507812 34.921875 88.507812 Z M 59.882812 88.507812 C 59.839844 88.507812 59.796875 88.507812 59.75 88.507812 C 57.0625 88.648438 54.921875 90.941406 54.921875 93.683594 C 54.921875 96.511719 57.203125 98.867188 60.015625 98.867188 C 62.828125 98.867188 65.097656 96.511719 65.097656 93.683594 C 65.097656 90.851562 62.828125 88.507812 60.015625 88.507812 Z M 34.921875 90.933594 C 36.390625 90.933594 37.589844 92.128906 37.589844 93.683594 C 37.589844 95.234375 36.390625 96.441406 34.921875 96.441406 C 33.453125 96.441406 32.265625 95.234375 32.265625 93.683594 C 32.265625 92.128906 33.453125 90.933594 34.921875 90.933594 Z M 60.015625 90.933594 C 61.484375 90.933594 62.671875 92.128906 62.671875 93.683594 C 62.671875 95.234375 61.484375 96.441406 60.015625 96.441406 C 58.546875 96.441406 57.347656 95.234375 57.347656 93.683594 C 57.347656 92.128906 58.546875 90.933594 60.015625 90.933594 Z M 86.914062 93.507812 C 83.953125 93.507812 81.558594 95.984375 81.558594 98.964844 C 81.558594 101.949219 83.953125 104.421875 86.914062 104.421875 C 89.875 104.421875 92.269531 101.949219 92.269531 98.964844 C 92.269531 95.984375 89.875 93.507812 86.914062 93.507812 Z M 113.742188 93.507812 C 110.78125 93.507812 108.386719 95.984375 108.386719 98.964844 C 108.386719 101.949219 110.78125 104.421875 113.742188 104.421875 C 116.699219 104.421875 119.097656 101.949219 119.097656 98.964844 C 119.097656 95.984375 116.699219 93.507812 113.742188 93.507812 Z M 86.839844 95.933594 L 86.914062 95.933594 C 88.53125 95.933594 89.84375 97.261719 89.84375 98.964844 C 89.84375 100.667969 88.53125 102 86.914062 102 C 85.296875 102 83.984375 100.667969 83.984375 98.964844 C 83.984375 97.316406 85.210938 96.011719 86.761719 95.933594 Z M 113.664062 95.933594 L 113.742188 95.933594 C 115.359375 95.933594 116.671875 97.261719 116.671875 98.964844 C 116.671875 100.667969 115.359375 102 113.742188 102 C 112.125 102 110.808594 100.667969 110.808594 98.964844 C 110.808594 97.316406 112.039062 96.011719 113.589844 95.933594 Z M 113.664062 95.933594 "/>
<path style=" stroke:none;fill-rule:nonzero;fill:rgb(100%,100%,100%);fill-opacity:1;" d="M 51.292969 44.5 C 49.648438 44.5 48.3125 45.882812 48.308594 47.59375 C 48.308594 48.417969 48.621094 49.207031 49.183594 49.789062 C 49.742188 50.371094 50.5 50.699219 51.292969 50.699219 C 52.085938 50.699219 52.84375 50.371094 53.402344 49.789062 C 53.964844 49.207031 54.277344 48.417969 54.277344 47.59375 C 54.273438 45.882812 52.9375 44.5 51.292969 44.5 Z M 90.496094 44.5 C 88.851562 44.5 87.515625 45.882812 87.511719 47.59375 C 87.511719 48.417969 87.824219 49.207031 88.382812 49.789062 C 88.945312 50.371094 89.703125 50.699219 90.496094 50.699219 C 91.289062 50.699219 92.046875 50.371094 92.605469 49.789062 C 93.164062 49.207031 93.476562 48.417969 93.476562 47.59375 C 93.472656 45.882812 92.140625 44.5 90.496094 44.5 Z M 33.632812 90.589844 C 32.582031 90.589844 31.726562 91.476562 31.730469 92.566406 C 31.726562 93.089844 31.929688 93.59375 32.285156 93.964844 C 32.644531 94.335938 33.128906 94.542969 33.636719 94.542969 C 34.140625 94.542969 34.625 94.335938 34.984375 93.964844 C 35.339844 93.59375 35.542969 93.089844 35.542969 92.566406 C 35.542969 91.472656 34.6875 90.589844 33.636719 90.589844 Z M 58.96875 90.875 C 57.914062 90.871094 57.0625 91.757812 57.0625 92.851562 C 57.0625 93.945312 57.917969 94.828125 58.96875 94.828125 C 59.476562 94.828125 59.960938 94.621094 60.320312 94.25 C 60.675781 93.878906 60.878906 93.375 60.878906 92.851562 C 60.878906 92.324219 60.679688 91.820312 60.320312 91.449219 C 59.960938 91.078125 59.476562 90.871094 58.96875 90.875 Z M 85.535156 95.660156 C 84.410156 95.660156 83.5 96.605469 83.496094 97.769531 C 83.496094 98.332031 83.710938 98.871094 84.089844 99.269531 C 84.472656 99.664062 84.992188 99.886719 85.535156 99.886719 C 86.078125 99.886719 86.597656 99.664062 86.980469 99.269531 C 87.359375 98.871094 87.574219 98.332031 87.574219 97.769531 C 87.570312 96.605469 86.660156 95.660156 85.535156 95.660156 Z M 112.777344 95.933594 C 112.234375 95.933594 111.714844 96.15625 111.332031 96.554688 C 110.949219 96.953125 110.738281 97.492188 110.738281 98.054688 C 110.742188 99.21875 111.652344 100.164062 112.777344 100.164062 C 113.902344 100.164062 114.8125 99.21875 114.816406 98.054688 C 114.820312 97.492188 114.605469 96.953125 114.222656 96.554688 C 113.839844 96.15625 113.320312 95.933594 112.777344 95.933594 Z M 112.777344 95.933594 "/>
</g>
</svg>
